{"glyphs":{" ":{"ha":444,"x_min":0,"x_max":0,"o":""}," ":{"ha":694,"x_min":0,"x_max":0,"o":""}," ":{"ha":1389,"x_min":0,"x_max":0,"o":""}," ":{"ha":694,"x_min":0,"x_max":0,"o":""}," ":{"ha":1389,"x_min":0,"x_max":0,"o":""}," ":{"ha":463,"x_min":0,"x_max":0,"o":""}," ":{"ha":347,"x_min":0,"x_max":0,"o":""}," ":{"ha":231,"x_min":0,"x_max":0,"o":""}," ":{"ha":278,"x_min":0,"x_max":0,"o":""}," ":{"ha":174,"x_min":0,"x_max":0,"o":""},"​":{"ha":0,"x_min":0,"x_max":0,"o":""},"　":{"ha":1389,"x_min":0,"x_max":0,"o":""},"、":{"ha":1389,"x_min":118,"x_max":407,"o":"m 142 228 q 196 215 156 228 q 285 181 236 203 q 370 119 333 158 q 407 33 407 79 q 388 -48 407 -21 q 344 -75 368 -75 q 303 -55 318 -75 q 271 6 288 -35 q 239 67 254 46 q 191 123 222 92 q 139 176 160 154 q 118 206 118 197 q 142 228 118 228 z "},"。":{"ha":1389,"x_min":97,"x_max":456,"o":"m 190 169 q 172 151 190 169 q 154 82 154 133 q 190 -5 154 31 q 276 -40 225 -40 q 363 -5 328 -40 q 399 82 399 31 q 363 169 399 133 q 276 204 328 204 q 190 169 225 204 m 150 -44 q 124 -18 150 -44 q 97 82 97 8 q 150 208 97 156 q 276 261 203 261 q 403 208 350 261 q 456 82 456 156 q 403 -44 456 8 q 276 -97 350 -97 q 150 -44 203 -97 z "},"々":{"ha":1389,"x_min":288,"x_max":1103,"o":"m 756 831 q 731 792 756 813 q 688 747 703 768 q 631 651 686 746 q 738 649 689 649 q 840 650 811 649 q 893 678 886 672 q 910 690 897 681 q 931 704 922 699 q 946 710 940 710 q 989 697 969 710 q 1046 650 1015 679 q 1064 635 1051 644 q 1083 618 1076 625 q 1097 598 1090 611 q 1103 569 1103 585 q 1096 548 1103 557 q 1081 535 1089 539 q 1061 528 1074 532 q 1047 522 1049 524 q 957 464 1013 508 q 806 324 900 418 q 851 283 839 300 q 889 176 889 235 q 864 125 889 142 q 810 104 833 104 q 765 116 786 104 q 733 144 743 128 q 705 201 729 150 q 668 269 681 251 q 597 367 599 364 q 586 389 586 382 q 611 406 586 406 q 726 367 619 406 q 764 350 744 361 q 847 531 842 510 q 854 575 854 558 q 849 610 854 593 q 738 613 782 613 q 659 612 696 613 q 607 611 622 611 q 588 579 597 594 q 471 422 543 511 q 356 292 399 333 q 310 258 322 258 q 294 267 300 258 q 288 279 288 274 q 296 294 288 283 q 490 610 388 403 q 572 861 546 724 q 583 894 578 888 q 604 900 588 900 q 705 876 654 900 q 756 831 756 851 z "},"〻":{"ha":1389,"x_min":558,"x_max":831,"o":"m 586 588 q 609 620 593 600 q 628 644 625 640 q 658 713 658 689 q 644 747 658 733 q 600 791 629 763 q 568 822 571 819 q 558 843 558 832 q 572 855 558 849 q 597 861 585 861 q 697 826 635 861 q 771 767 740 804 q 796 688 796 736 q 784 648 796 671 q 753 625 772 625 q 668 611 707 625 q 626 581 638 601 q 611 513 611 554 q 639 451 611 482 q 682 421 650 439 q 738 397 714 403 q 814 342 783 386 q 831 257 831 317 q 792 178 831 226 q 729 131 753 131 q 699 142 713 131 q 681 164 686 154 q 664 197 675 174 q 633 300 653 219 q 599 396 617 360 q 563 511 563 474 q 586 588 563 540 z "},"ぁ":{"ha":1389,"x_min":314,"x_max":1074,"o":"m 465 479 q 524 525 491 504 q 580 557 557 546 q 605 572 602 569 l 605 649 q 518 636 546 636 q 448 649 475 636 q 405 678 426 660 q 400 683 403 681 q 395 686 397 685 q 391 690 393 688 q 387 695 389 692 q 386 701 386 697 q 385 710 385 706 q 393 729 385 721 q 408 738 402 738 q 417 734 409 738 q 436 723 424 729 q 454 713 447 716 q 518 702 479 702 q 559 709 543 702 q 605 733 575 715 l 605 782 q 594 849 605 847 q 555 870 555 857 q 602 894 555 894 q 653 878 645 894 q 656 850 656 868 q 655 823 656 833 q 653 786 653 794 q 654 757 653 769 q 745 798 709 798 q 778 789 763 798 q 794 763 794 781 q 790 742 794 750 q 781 731 786 734 q 764 721 776 728 q 655 671 720 698 l 655 642 q 657 589 655 605 q 780 606 731 606 q 1003 514 925 606 q 1052 423 1030 482 q 1073 319 1073 364 q 980 92 1073 174 q 807 -7 905 25 q 622 -41 702 -41 q 604 -35 610 -41 q 599 -23 599 -29 q 649 4 599 -5 q 886 119 790 34 q 982 316 982 204 q 932 483 982 415 q 862 537 911 513 q 765 560 814 560 q 699 552 716 560 q 709 483 709 519 q 661 311 709 428 q 669 216 663 266 q 675 153 675 166 q 668 125 675 137 q 649 113 660 113 q 621 123 631 113 q 607 144 611 132 q 599 185 604 156 q 568 151 585 170 q 540 122 551 132 q 513 100 530 112 q 416 64 465 64 q 395 67 404 64 q 378 74 385 69 q 367 83 371 80 q 357 95 364 87 q 348 106 350 104 q 324 156 334 123 q 315 217 315 190 q 349 342 315 276 q 465 479 379 399 m 445 375 q 392 267 411 329 q 373 168 373 205 q 390 141 373 141 q 473 184 430 141 q 555 271 538 248 q 605 387 587 314 l 605 519 q 517 460 551 493 q 445 375 483 427 z "},"あ":{"ha":1389,"x_min":253,"x_max":1135,"o":"m 428 589 q 497 642 458 618 q 561 681 535 667 q 590 697 588 694 l 590 788 q 489 772 522 772 q 408 788 439 772 q 358 821 382 800 q 352 826 356 824 q 347 831 349 829 q 342 835 344 832 q 338 840 339 838 q 335 848 336 843 q 335 858 335 853 q 344 881 335 871 q 361 890 354 890 q 372 885 363 890 q 394 873 381 881 q 415 861 407 865 q 489 849 444 849 q 537 856 518 849 q 590 885 556 864 l 590 942 q 578 1019 590 1017 q 532 1044 532 1029 q 588 1072 532 1072 q 646 1053 638 1072 q 650 1021 650 1042 q 649 989 650 1001 q 646 946 646 956 q 647 913 646 926 q 753 960 711 960 q 792 950 774 960 q 810 919 810 940 q 806 895 810 904 q 795 883 801 886 q 775 871 789 879 q 649 813 724 844 l 649 779 q 651 717 649 736 q 794 738 738 738 q 1053 631 963 738 q 1110 524 1085 593 q 1135 403 1135 456 q 1026 139 1135 235 q 825 24 939 61 q 610 -15 703 -15 q 590 -8 596 -15 q 583 6 583 -1 q 642 38 583 26 q 917 171 806 72 q 1029 400 1029 269 q 971 594 1029 515 q 890 656 946 629 q 776 683 833 683 q 700 674 719 683 q 711 594 711 636 q 656 394 711 531 q 665 283 658 342 q 672 210 672 225 q 663 178 672 192 q 642 164 654 164 q 609 175 621 164 q 593 200 597 186 q 583 247 589 214 q 547 208 567 231 q 515 174 528 186 q 483 149 503 163 q 371 107 428 107 q 346 110 357 107 q 326 119 335 113 q 314 129 318 125 q 302 143 310 133 q 292 156 294 153 q 264 214 275 175 q 253 285 253 253 q 293 431 253 353 q 428 589 328 496 m 404 468 q 343 343 365 415 q 321 228 321 271 q 340 196 321 196 q 438 246 388 196 q 532 347 513 321 q 590 482 569 397 l 590 636 q 488 567 528 606 q 404 468 449 529 z "},"ぃ":{"ha":1389,"x_min":315,"x_max":1099,"o":"m 1060 535 q 1085 485 1073 517 q 1097 424 1097 454 q 1077 365 1097 387 q 1036 342 1058 342 q 979 400 993 342 q 976 426 976 409 l 976 451 q 956 518 976 488 q 945 531 951 525 q 933 540 938 537 q 918 547 929 543 q 903 553 908 552 q 886 557 899 554 q 870 561 874 560 q 865 562 869 562 q 849 568 853 566 q 840 573 844 569 q 835 583 835 577 q 860 604 835 596 q 909 612 884 612 q 999 593 967 612 q 1013 584 1005 589 q 1023 578 1022 579 q 1031 571 1024 578 q 1042 558 1037 565 q 1060 535 1047 552 m 537 228 q 555 243 546 228 q 571 278 564 259 q 589 313 579 297 q 613 328 600 328 q 623 322 618 328 q 628 304 628 315 q 625 295 628 299 q 617 282 623 290 q 610 266 612 274 q 600 215 600 246 q 608 157 600 187 q 620 99 620 108 q 607 75 620 87 q 579 63 594 63 q 493 89 538 63 q 411 160 448 116 q 349 275 373 205 q 324 424 324 345 q 332 542 324 460 q 340 673 340 624 q 328 696 340 683 q 317 718 317 709 q 355 745 317 745 q 407 724 385 745 q 440 634 440 690 q 426 537 440 603 q 411 449 411 470 q 451 272 411 344 q 482 238 465 248 q 537 228 500 228 z "},"い":{"ha":1389,"x_min":254,"x_max":1164,"o":"m 1119 654 q 1149 597 1135 633 q 1163 525 1163 560 q 1140 456 1163 482 q 1092 431 1117 431 q 1025 497 1042 431 q 1022 528 1022 508 l 1022 557 q 999 635 1022 600 q 985 650 993 643 q 972 660 978 657 q 955 669 967 664 q 938 675 943 674 q 917 680 932 676 q 899 685 903 683 q 893 686 897 686 q 874 692 879 690 q 863 699 868 694 q 858 710 858 703 q 887 735 858 725 q 944 744 915 744 q 1049 722 1011 744 q 1065 711 1056 717 q 1076 705 1075 706 q 1085 697 1078 704 q 1099 681 1093 689 q 1119 654 1104 674 m 511 297 q 533 315 522 297 q 551 356 543 333 q 572 396 560 378 q 600 414 585 414 q 611 406 606 414 q 617 386 617 399 q 614 375 617 381 q 605 360 611 369 q 596 342 599 351 q 585 282 585 318 q 594 215 585 250 q 608 147 608 158 q 593 119 608 133 q 560 106 578 106 q 460 136 513 106 q 365 219 408 167 q 292 352 321 271 q 264 525 264 433 q 273 663 264 567 q 282 815 282 758 q 269 842 282 826 q 256 867 256 857 q 300 899 256 899 q 360 874 335 899 q 399 769 399 835 q 382 656 399 733 q 365 554 365 579 q 411 349 365 432 q 448 309 428 321 q 511 297 468 297 z "},"ぅ":{"ha":1389,"x_min":488,"x_max":906,"o":"m 816 425 q 791 521 816 494 q 715 548 766 548 q 675 534 691 548 q 637 507 659 520 q 574 493 614 493 q 511 515 534 493 q 488 568 488 537 q 525 584 488 584 q 552 581 532 584 q 582 579 571 579 q 648 598 593 579 q 723 617 704 617 q 855 555 806 617 q 905 426 905 492 q 870 214 905 297 q 768 73 835 131 q 641 -9 717 27 q 526 -46 565 -46 q 505 -29 505 -46 q 568 13 505 -12 q 646 61 606 28 q 726 144 686 94 q 791 268 766 194 q 816 425 816 342 m 740 762 q 689 752 714 761 q 650 734 665 743 q 632 726 636 726 q 619 739 619 726 q 634 767 619 750 q 648 792 648 783 q 601 817 648 796 q 555 847 555 837 q 715 873 555 873 q 776 857 746 873 q 807 824 807 841 q 786 783 807 801 q 740 762 765 764 z "},"う":{"ha":1389,"x_min":454,"x_max":939,"o":"m 836 526 q 807 638 836 607 q 718 669 778 669 q 672 653 690 669 q 627 622 653 638 q 554 606 601 606 q 481 631 508 606 q 454 693 454 657 q 497 711 454 711 q 528 708 506 711 q 564 706 551 706 q 641 728 576 706 q 728 750 706 750 q 881 677 824 750 q 939 528 939 604 q 899 281 939 378 q 781 117 858 185 q 633 22 721 64 q 499 -21 544 -21 q 474 -1 474 -21 q 547 47 474 18 q 638 103 592 65 q 731 200 685 142 q 807 344 778 258 q 836 526 836 431 m 747 918 q 688 906 717 917 q 643 886 660 896 q 622 876 626 876 q 607 892 607 876 q 624 924 607 904 q 640 953 640 943 q 586 982 640 958 q 532 1017 532 1006 q 718 1047 532 1047 q 790 1028 754 1047 q 825 990 825 1010 q 801 942 825 964 q 747 918 776 921 z "},"ぇ":{"ha":1389,"x_min":368,"x_max":1088,"o":"m 399 589 q 417 573 409 589 q 438 543 426 557 q 467 528 450 528 q 531 548 473 528 q 664 589 589 568 q 785 609 739 609 q 852 586 828 609 q 876 526 876 562 q 830 461 876 495 q 706 383 784 427 q 589 307 628 338 q 644 314 628 314 q 790 200 790 314 q 801 127 790 154 q 853 113 807 113 q 915 128 863 113 q 999 143 967 143 q 1056 122 1025 143 q 1087 71 1087 100 q 1078 45 1087 55 q 1031 27 1069 36 q 924 19 993 19 q 782 51 845 19 q 714 144 720 83 q 693 246 708 217 q 645 276 678 276 q 506 155 569 276 q 490 98 497 138 q 470 31 482 57 q 435 4 458 4 q 395 36 411 4 q 379 111 379 68 q 421 194 379 136 q 510 301 463 253 q 596 377 537 327 q 694 463 655 427 q 733 511 733 498 q 714 540 733 540 q 591 488 702 540 q 451 436 479 436 q 368 510 368 436 q 378 562 368 536 q 399 589 387 589 m 580 906 q 602 890 588 906 q 639 854 617 874 q 686 829 661 835 q 728 820 702 825 q 773 812 754 815 q 811 803 791 808 q 841 789 831 798 q 851 768 851 780 q 822 717 851 728 q 694 697 794 706 q 571 660 648 694 q 483 626 495 626 q 448 642 448 626 q 459 660 448 651 q 491 681 469 670 q 530 700 514 692 q 580 722 546 708 q 625 740 614 735 q 611 759 620 746 q 596 779 602 771 q 583 798 591 787 q 570 816 575 808 q 561 833 565 824 q 555 848 557 842 q 552 861 552 855 q 580 906 552 906 z "},"え":{"ha":1389,"x_min":315,"x_max":1151,"o":"m 351 717 q 372 699 363 717 q 396 663 382 681 q 431 646 410 646 q 505 669 438 646 q 659 717 572 693 q 800 740 746 740 q 878 713 850 740 q 906 644 906 686 q 852 569 906 608 q 708 477 799 529 q 572 389 617 425 q 636 397 617 397 q 806 265 806 397 q 818 181 806 211 q 879 164 825 164 q 951 181 890 164 q 1049 199 1011 199 q 1115 174 1079 199 q 1151 115 1151 149 q 1141 85 1151 96 q 1086 64 1131 74 q 961 54 1042 54 q 797 92 869 54 q 717 200 724 129 q 692 319 710 285 q 638 353 675 353 q 475 213 549 353 q 456 146 465 193 q 433 68 447 99 q 393 38 419 38 q 347 74 365 38 q 328 161 328 111 q 376 258 328 190 q 481 382 425 326 q 580 471 511 413 q 694 570 649 529 q 739 626 739 611 q 717 660 739 660 q 574 599 703 660 q 411 539 444 539 q 315 625 315 539 q 326 686 315 656 q 351 717 338 717 m 561 1086 q 588 1067 571 1086 q 630 1026 604 1049 q 685 996 656 1003 q 733 986 703 992 q 785 976 764 981 q 830 966 807 972 q 865 949 853 960 q 876 925 876 939 q 843 866 876 879 q 694 843 810 853 q 551 799 640 839 q 449 760 463 760 q 408 779 408 760 q 420 800 408 789 q 458 824 432 811 q 503 847 485 838 q 562 872 522 856 q 614 893 601 888 q 598 915 608 900 q 581 938 588 929 q 565 960 574 947 q 550 981 556 972 q 540 1001 544 990 q 532 1019 535 1011 q 529 1033 529 1026 q 561 1086 529 1086 z "},"ぉ":{"ha":1389,"x_min":247,"x_max":1165,"o":"m 555 651 l 556 614 q 599 632 585 621 l 555 651 m 484 262 l 415 205 l 485 155 l 484 262 m 1032 670 q 1125 632 1085 670 q 1165 548 1165 595 q 1151 521 1165 532 q 1115 510 1136 510 q 1065 545 1089 510 q 1017 580 1041 580 q 950 575 983 580 q 913 569 917 569 q 896 593 896 569 q 941 642 896 614 q 1032 670 986 670 m 281 596 q 324 588 288 596 q 379 580 360 580 q 410 582 395 580 q 448 588 426 584 q 483 595 470 592 q 445 765 478 739 q 432 775 440 769 q 421 783 423 781 q 413 790 419 786 q 407 798 408 795 q 403 804 405 800 q 400 812 401 808 q 399 823 399 817 q 447 855 399 855 q 512 812 478 855 q 550 701 546 769 q 602 674 564 682 q 669 661 639 666 q 698 642 698 657 q 691 619 698 629 q 668 601 684 609 q 638 588 653 593 q 598 574 623 583 q 557 559 574 566 l 557 376 q 807 451 691 451 q 976 411 905 451 q 1048 295 1048 370 q 1026 195 1048 241 q 973 120 1005 149 q 902 70 940 90 q 829 40 863 49 q 768 31 795 31 q 702 67 727 31 q 678 151 678 102 q 703 256 678 204 q 747 308 729 308 q 764 294 764 308 q 755 256 764 290 q 746 197 746 222 q 777 129 746 129 q 896 179 834 129 q 957 295 957 229 q 911 377 957 348 q 807 405 864 405 q 709 388 755 405 q 558 309 662 371 q 562 181 558 259 q 565 88 565 104 q 549 46 565 68 q 509 25 532 25 q 465 59 490 25 q 416 128 439 94 q 380 162 393 162 q 348 136 376 162 q 295 111 321 111 q 248 150 248 111 q 263 192 248 175 q 304 221 279 209 q 380 265 329 234 q 483 337 432 296 l 483 531 q 362 492 380 492 q 298 518 335 492 q 261 569 261 544 q 281 596 261 596 z "},"お":{"ha":1389,"x_min":175,"x_max":1242,"o":"m 532 789 l 533 746 q 583 767 567 754 l 532 789 m 450 338 l 369 271 l 451 213 l 450 338 m 1088 811 q 1195 767 1149 811 q 1242 669 1242 724 q 1225 638 1242 651 q 1183 625 1208 625 q 1125 666 1153 625 q 1069 707 1097 707 q 992 701 1031 707 q 949 694 953 694 q 929 722 929 694 q 981 778 929 746 q 1088 811 1033 811 m 214 725 q 264 716 222 725 q 328 707 306 707 q 364 709 346 707 q 408 716 382 711 q 449 724 433 721 q 404 922 443 892 q 389 933 399 926 q 376 943 379 940 q 367 951 374 946 q 360 960 361 957 q 356 967 358 963 q 352 977 353 972 q 351 989 351 982 q 407 1026 351 1026 q 483 976 443 1026 q 526 847 522 926 q 587 816 543 825 q 665 801 631 807 q 699 779 699 796 q 690 752 699 764 q 664 731 682 740 q 628 716 646 722 q 583 700 611 710 q 535 682 554 690 l 535 469 q 825 557 690 557 q 1022 510 939 557 q 1106 375 1106 463 q 1081 259 1106 313 q 1018 172 1056 206 q 935 113 981 138 q 851 78 890 89 q 781 68 811 68 q 703 110 732 68 q 675 208 675 151 q 705 330 675 269 q 756 390 735 390 q 775 374 775 390 q 765 330 775 369 q 754 261 754 290 q 790 182 754 182 q 928 240 857 182 q 1000 375 1000 299 q 946 470 1000 438 q 825 503 892 503 q 711 483 765 503 q 536 392 657 464 q 540 243 536 333 q 544 135 544 153 q 525 86 544 111 q 479 61 506 61 q 427 101 457 61 q 371 181 397 142 q 329 221 344 221 q 292 191 324 221 q 231 161 260 161 q 175 207 175 161 q 193 256 175 236 q 240 290 211 275 q 329 340 269 304 q 449 424 389 376 l 449 650 q 308 604 329 604 q 233 635 276 604 q 190 694 190 665 q 214 725 190 725 z "},"か":{"ha":1389,"x_min":183,"x_max":1238,"o":"m 1210 479 q 1163 462 1196 471 q 1093 438 1129 453 q 1053 415 1081 432 q 1002 384 1025 397 q 974 371 979 371 q 963 377 968 371 q 958 392 958 383 q 976 425 958 408 q 1022 461 996 444 q 1068 512 1051 481 q 1085 568 1085 543 q 1080 597 1085 583 q 1071 619 1075 611 q 1054 642 1067 628 q 1036 660 1042 656 q 1012 680 1031 664 q 989 699 993 696 q 963 716 983 703 q 935 738 943 729 q 926 758 926 747 q 956 776 926 776 q 1142 691 1047 776 q 1238 528 1238 606 q 1210 479 1238 493 m 682 203 q 621 142 667 171 q 536 113 575 113 q 486 149 508 113 q 438 237 471 175 q 383 335 406 299 q 353 255 375 310 q 328 185 332 200 q 281 111 322 163 q 217 60 240 60 q 193 72 203 60 q 183 107 183 85 q 189 142 183 124 q 206 183 194 161 q 226 218 218 204 q 250 255 233 232 q 269 283 267 278 q 347 442 313 350 q 399 610 389 551 q 333 588 371 588 q 221 629 294 588 q 194 682 194 643 q 210 710 194 710 q 243 701 215 710 q 292 693 271 693 q 369 708 324 693 q 432 747 414 724 q 453 913 453 808 q 444 949 453 938 q 428 969 439 957 q 413 989 417 981 q 408 1013 408 997 q 426 1028 408 1022 q 456 1035 443 1035 q 474 1033 465 1035 q 488 1030 482 1032 q 497 1024 493 1028 q 503 1018 501 1021 q 508 1013 506 1015 q 513 1008 511 1010 q 544 951 544 979 q 531 874 544 911 q 508 788 517 839 q 600 804 561 804 q 633 796 615 804 q 675 773 651 788 q 708 754 699 758 q 772 651 772 722 q 682 203 772 388 m 400 396 q 474 296 425 343 q 544 249 522 249 q 559 251 553 249 q 572 258 565 253 q 583 267 578 263 q 592 281 588 271 q 600 297 597 292 q 608 316 603 303 q 616 336 614 329 q 623 359 618 343 q 631 382 628 375 q 653 498 643 418 q 663 632 663 578 q 642 706 663 678 q 590 733 621 733 q 526 706 560 733 q 475 649 493 678 q 400 396 433 464 z "},"が":{"ha":1389,"x_min":183,"x_max":1269,"o":"m 1269 956 q 1219 896 1269 896 q 1169 924 1179 896 q 1128 993 1156 967 q 1097 1015 1117 1004 q 1069 1033 1076 1026 q 1056 1060 1056 1047 q 1089 1076 1056 1076 q 1202 1040 1135 1076 q 1269 956 1269 1004 m 1139 869 q 1089 813 1139 813 q 1039 839 1047 813 q 997 908 1025 882 q 966 931 986 919 q 939 949 946 942 q 925 975 925 963 q 958 993 925 993 q 1072 956 1004 993 q 1139 869 1139 918 m 1210 479 q 1163 462 1196 471 q 1093 438 1129 453 q 1053 415 1081 432 q 1002 384 1025 397 q 974 371 979 371 q 963 377 968 371 q 958 392 958 383 q 976 425 958 408 q 1022 461 996 444 q 1068 512 1051 481 q 1085 568 1085 543 q 1080 597 1085 583 q 1071 619 1075 611 q 1054 642 1067 628 q 1036 660 1042 656 q 1012 680 1031 664 q 989 699 993 696 q 963 716 983 703 q 935 738 943 729 q 926 758 926 747 q 956 776 926 776 q 1142 691 1047 776 q 1238 528 1238 606 q 1210 479 1238 493 m 682 203 q 621 142 667 171 q 536 113 575 113 q 486 149 508 113 q 438 237 471 175 q 383 335 406 299 q 353 255 375 310 q 328 185 332 200 q 281 111 322 163 q 217 60 240 60 q 193 72 203 60 q 183 107 183 85 q 189 142 183 124 q 206 183 194 161 q 226 218 218 204 q 250 255 233 232 q 269 283 267 278 q 347 442 313 350 q 399 610 389 551 q 333 588 371 588 q 221 629 294 588 q 194 682 194 643 q 210 710 194 710 q 243 701 215 710 q 292 693 271 693 q 369 708 324 693 q 432 747 414 724 q 453 913 453 808 q 444 949 453 938 q 428 969 439 957 q 413 989 417 981 q 408 1013 408 997 q 426 1028 408 1022 q 456 1035 443 1035 q 474 1033 465 1035 q 488 1030 482 1032 q 497 1024 493 1028 q 503 1018 501 1021 q 508 1013 506 1015 q 513 1008 511 1010 q 544 951 544 979 q 531 874 544 911 q 508 788 517 839 q 600 804 561 804 q 633 796 615 804 q 675 773 651 788 q 708 754 699 758 q 772 651 772 722 q 682 203 772 388 m 400 396 q 474 296 425 343 q 544 249 522 249 q 559 251 553 249 q 572 258 565 253 q 583 267 578 263 q 592 281 588 271 q 600 297 597 292 q 608 316 603 303 q 616 336 614 329 q 623 359 618 343 q 631 382 628 375 q 653 498 643 418 q 663 632 663 578 q 642 706 663 678 q 590 733 621 733 q 526 706 560 733 q 475 649 493 678 q 400 396 433 464 z "},"き":{"ha":1389,"x_min":367,"x_max":1024,"o":"m 850 694 l 756 744 l 794 669 q 825 683 807 674 q 850 694 843 692 m 461 1064 q 559 1025 515 1064 q 661 892 603 986 q 718 896 689 896 q 799 857 799 896 q 746 789 799 826 q 839 760 792 771 q 917 748 886 750 q 974 743 947 746 q 1012 732 1000 740 q 1024 704 1024 724 q 861 576 1024 649 q 920 470 889 521 q 965 397 951 419 q 978 361 978 374 q 952 270 978 313 q 907 228 926 228 q 828 261 856 228 q 743 310 801 293 q 631 326 685 326 q 506 297 558 326 q 454 200 454 267 q 495 154 454 176 q 582 132 536 132 q 640 136 601 132 q 692 140 679 140 q 776 113 742 140 q 811 57 811 86 q 775 15 811 29 q 694 1 739 1 q 597 8 643 1 q 502 34 551 15 q 424 92 453 53 q 394 190 394 132 q 475 327 394 279 q 692 375 556 375 q 776 368 735 375 q 825 361 817 361 q 847 365 838 361 q 867 373 857 368 q 886 381 878 378 q 806 553 869 451 q 706 532 775 542 q 592 522 636 522 q 435 570 504 522 q 367 647 367 618 q 373 666 367 658 q 388 674 379 674 q 407 664 399 674 q 553 603 457 603 q 746 653 650 603 l 688 769 q 569 780 621 769 q 490 805 518 790 q 442 837 461 819 q 418 868 424 854 q 413 892 413 882 q 428 911 413 911 q 444 899 432 911 q 478 876 456 888 q 528 864 500 864 q 608 878 571 864 q 536 962 565 938 q 478 989 507 986 q 406 1019 406 994 q 424 1049 406 1033 q 461 1064 442 1064 z "},"ぎ":{"ha":1389,"x_min":367,"x_max":1128,"o":"m 1128 963 q 1078 903 1128 903 q 1028 931 1038 903 q 986 1000 1014 974 q 955 1022 975 1011 q 928 1040 935 1033 q 914 1067 914 1054 q 947 1083 914 1083 q 1060 1047 993 1083 q 1128 963 1128 1011 m 997 876 q 947 819 997 819 q 897 846 906 819 q 856 915 883 889 q 824 938 844 926 q 797 956 804 949 q 783 982 783 969 q 817 1000 783 1000 q 930 963 863 1000 q 997 876 997 925 m 850 694 l 756 744 l 794 669 q 825 683 807 674 q 850 694 843 692 m 461 1064 q 559 1025 515 1064 q 661 892 603 986 q 718 896 689 896 q 799 857 799 896 q 746 789 799 826 q 839 760 792 771 q 917 748 886 750 q 974 743 947 746 q 1012 732 1000 740 q 1024 704 1024 724 q 861 576 1024 649 q 920 470 889 521 q 965 397 951 419 q 978 361 978 374 q 952 270 978 313 q 907 228 926 228 q 828 261 856 228 q 743 310 801 293 q 631 326 685 326 q 506 297 558 326 q 454 200 454 267 q 495 154 454 176 q 582 132 536 132 q 640 136 601 132 q 692 140 679 140 q 776 113 742 140 q 811 57 811 86 q 775 15 811 29 q 694 1 739 1 q 597 8 643 1 q 502 34 551 15 q 424 92 453 53 q 394 190 394 132 q 475 327 394 279 q 692 375 556 375 q 776 368 735 375 q 825 361 817 361 q 847 365 838 361 q 867 373 857 368 q 886 381 878 378 q 806 553 869 451 q 706 532 775 542 q 592 522 636 522 q 435 570 504 522 q 367 647 367 618 q 373 666 367 658 q 388 674 379 674 q 407 664 399 674 q 553 603 457 603 q 746 653 650 603 l 688 769 q 569 780 621 769 q 490 805 518 790 q 442 837 461 819 q 418 868 424 854 q 413 892 413 882 q 428 911 413 911 q 444 899 432 911 q 478 876 456 888 q 528 864 500 864 q 608 878 571 864 q 536 962 565 938 q 478 989 507 986 q 406 1019 406 994 q 424 1049 406 1033 q 461 1064 442 1064 z "},"く":{"ha":1389,"x_min":513,"x_max":863,"o":"m 728 1033 q 744 1053 728 1053 q 750 1051 749 1053 q 828 999 796 1032 q 861 938 861 965 q 851 914 861 924 q 637 675 703 765 q 571 522 571 585 q 617 453 571 507 q 717 337 663 399 q 817 195 771 275 q 863 54 863 115 q 838 2 863 26 q 790 -22 813 -22 q 732 15 736 -22 q 689 181 725 94 q 614 327 653 268 q 544 442 575 386 q 513 522 513 497 q 539 653 513 592 q 600 753 565 714 q 679 853 635 793 q 750 972 724 914 q 751 982 751 975 q 740 1013 751 994 q 728 1033 728 1031 z "},"ぐ":{"ha":1389,"x_min":513,"x_max":1203,"o":"m 1203 792 q 1153 732 1203 732 q 1103 760 1113 732 q 1061 829 1089 803 q 1030 851 1050 840 q 1003 869 1010 863 q 989 896 989 883 q 1022 913 989 913 q 1135 876 1068 913 q 1203 792 1203 840 m 1072 706 q 1022 649 1072 649 q 972 675 981 649 q 931 744 958 718 q 899 767 919 756 q 872 785 879 778 q 858 811 858 799 q 892 829 858 829 q 1005 792 938 829 q 1072 706 1072 754 m 728 1033 q 744 1053 728 1053 q 750 1051 749 1053 q 828 999 796 1032 q 861 938 861 965 q 851 914 861 924 q 637 675 703 765 q 571 522 571 585 q 617 453 571 507 q 717 337 663 399 q 817 195 771 275 q 863 54 863 115 q 838 2 863 26 q 790 -22 813 -22 q 732 15 736 -22 q 689 181 725 94 q 614 327 653 268 q 544 442 575 386 q 513 522 513 497 q 539 653 513 592 q 600 753 565 714 q 679 853 635 793 q 750 972 724 914 q 751 982 751 975 q 740 1013 751 994 q 728 1033 728 1031 z "},"け":{"ha":1389,"x_min":275,"x_max":1142,"o":"m 965 908 l 969 783 q 1035 822 1006 800 q 965 908 971 903 m 356 499 q 375 356 356 414 q 471 535 415 442 q 556 663 547 663 q 572 642 572 663 q 544 550 572 621 q 474 406 515 479 q 435 250 435 338 q 450 149 435 211 q 465 68 465 88 q 459 42 465 49 q 433 35 453 35 q 353 76 381 35 q 307 192 326 117 q 279 418 279 297 q 290 550 279 497 q 333 871 333 739 q 304 941 333 888 q 275 1008 275 994 q 297 1028 275 1028 q 378 952 322 1028 q 433 842 433 876 q 394 669 433 785 q 356 499 356 554 m 746 17 q 661 -22 696 -22 q 642 -3 642 -22 q 644 10 642 4 q 654 22 647 15 q 667 33 661 28 q 682 44 672 38 q 697 56 692 51 q 828 231 772 113 q 885 468 885 350 q 879 675 885 613 q 733 696 814 675 q 653 757 653 717 q 674 776 653 776 q 735 765 685 776 q 810 754 786 754 q 875 760 842 754 q 863 953 867 939 q 839 994 857 969 q 821 1022 821 1018 q 831 1042 821 1032 q 864 1053 842 1053 q 933 1025 908 1053 q 968 967 958 997 q 994 923 975 944 q 1026 892 1013 901 q 1086 868 1064 868 l 1088 868 q 1126 858 1110 868 q 1142 826 1142 847 q 1105 769 1142 794 q 974 704 1068 744 q 981 461 981 593 q 928 218 981 317 q 746 17 876 119 z "},"げ":{"ha":1389,"x_min":275,"x_max":1333,"o":"m 1333 1019 q 1283 960 1333 960 q 1233 988 1243 960 q 1192 1057 1219 1031 q 1160 1079 1181 1068 q 1133 1097 1140 1090 q 1119 1124 1119 1111 q 1153 1140 1119 1140 q 1266 1104 1199 1140 q 1333 1019 1333 1068 m 1203 933 q 1153 876 1203 876 q 1103 903 1111 876 q 1061 972 1089 946 q 1030 994 1050 983 q 1003 1013 1010 1006 q 989 1039 989 1026 q 1022 1057 989 1057 q 1135 1019 1068 1057 q 1203 933 1203 982 m 965 908 l 969 783 q 1035 822 1006 800 q 965 908 971 903 m 356 499 q 375 356 356 414 q 471 535 415 442 q 556 663 547 663 q 572 642 572 663 q 544 550 572 621 q 474 406 515 479 q 435 250 435 338 q 450 149 435 211 q 465 68 465 88 q 459 42 465 49 q 433 35 453 35 q 353 76 381 35 q 307 192 326 117 q 279 418 279 297 q 290 550 279 497 q 333 871 333 739 q 304 941 333 888 q 275 1008 275 994 q 297 1028 275 1028 q 378 952 322 1028 q 433 842 433 876 q 394 669 433 785 q 356 499 356 554 m 746 17 q 661 -22 696 -22 q 642 -3 642 -22 q 644 10 642 4 q 654 22 647 15 q 667 33 661 28 q 682 44 672 38 q 697 56 692 51 q 828 231 772 113 q 885 468 885 350 q 879 675 885 613 q 733 696 814 675 q 653 757 653 717 q 674 776 653 776 q 735 765 685 776 q 810 754 786 754 q 875 760 842 754 q 863 953 867 939 q 839 994 857 969 q 821 1022 821 1018 q 831 1042 821 1032 q 864 1053 842 1053 q 933 1025 908 1053 q 968 967 958 997 q 994 923 975 944 q 1026 892 1013 901 q 1086 868 1064 868 l 1088 868 q 1126 858 1110 868 q 1142 826 1142 847 q 1105 769 1142 794 q 974 704 1068 744 q 981 461 981 593 q 928 218 981 317 q 746 17 876 119 z "},"こ":{"ha":1389,"x_min":339,"x_max":1029,"o":"m 749 46 q 599 59 669 46 q 469 101 529 72 q 374 180 408 129 q 339 299 339 231 q 389 433 339 433 q 405 424 399 433 q 411 404 411 414 q 406 372 411 394 q 401 338 401 361 q 476 221 401 264 q 693 178 551 178 q 788 186 754 178 q 900 199 843 199 q 1029 131 1029 199 q 997 92 1029 111 q 899 60 965 74 q 749 46 832 46 m 606 922 q 701 945 635 922 q 779 968 768 968 q 865 945 828 968 q 903 893 903 922 q 858 847 903 865 q 767 822 814 828 q 753 822 765 822 q 734 819 740 821 q 714 813 728 817 q 685 802 700 810 q 650 782 669 794 q 624 763 640 776 q 594 743 607 750 q 571 736 582 736 q 556 747 556 736 q 622 814 556 763 q 638 826 632 822 q 481 882 561 836 q 442 949 442 904 q 457 968 442 968 q 477 956 461 968 q 526 933 493 944 q 606 922 560 922 z "},"ご":{"ha":1389,"x_min":339,"x_max":1250,"o":"m 1250 729 q 1200 669 1250 669 q 1150 697 1160 669 q 1108 767 1136 740 q 1077 789 1097 778 q 1050 807 1057 800 q 1036 833 1036 821 q 1069 850 1036 850 q 1183 814 1115 850 q 1250 729 1250 778 m 1119 643 q 1069 586 1119 586 q 1019 613 1028 586 q 978 682 1006 656 q 947 704 967 693 q 919 722 926 715 q 906 749 906 736 q 939 767 906 767 q 1052 729 985 767 q 1119 643 1119 692 m 749 46 q 599 59 669 46 q 469 101 529 72 q 374 180 408 129 q 339 299 339 231 q 389 433 339 433 q 405 424 399 433 q 411 404 411 414 q 406 372 411 394 q 401 338 401 361 q 476 221 401 264 q 693 178 551 178 q 788 186 754 178 q 900 199 843 199 q 1029 131 1029 199 q 997 92 1029 111 q 899 60 965 74 q 749 46 832 46 m 606 922 q 701 945 635 922 q 779 968 768 968 q 865 945 828 968 q 903 893 903 922 q 858 847 903 865 q 767 822 814 828 q 753 822 765 822 q 734 819 740 821 q 714 813 728 817 q 685 802 700 810 q 650 782 669 794 q 624 763 640 776 q 594 743 607 750 q 571 736 582 736 q 556 747 556 736 q 622 814 556 763 q 638 826 632 822 q 481 882 561 836 q 442 949 442 904 q 457 968 442 968 q 477 956 461 968 q 526 933 493 944 q 606 922 560 922 z "},"さ":{"ha":1389,"x_min":324,"x_max":1061,"o":"m 553 197 q 662 172 590 178 q 774 151 733 165 q 815 122 801 142 q 829 89 829 101 q 688 46 829 46 q 485 123 569 46 q 400 263 400 200 q 476 412 400 356 q 656 468 551 468 q 776 451 706 468 q 907 435 846 435 q 948 442 936 435 q 960 474 960 450 q 948 534 960 504 q 924 581 936 564 q 883 633 911 599 q 843 685 856 667 q 782 751 822 714 q 682 721 708 725 q 567 710 608 710 q 390 757 457 710 q 324 846 324 804 q 338 865 324 865 q 385 844 358 865 q 428 819 411 824 q 578 799 499 799 q 694 831 619 799 q 655 869 681 843 q 611 911 629 896 q 569 942 593 926 q 550 993 550 953 q 610 1022 550 1022 q 658 1007 633 1022 q 724 976 683 992 q 826 960 764 960 q 874 967 857 960 q 900 974 892 974 q 944 944 922 974 q 978 890 978 906 q 842 778 978 842 q 832 774 835 775 q 938 658 883 726 q 1024 527 986 597 q 1061 426 1061 457 q 1038 324 1061 369 q 968 279 1014 279 q 879 324 931 279 q 765 395 831 365 q 644 425 700 425 q 536 388 585 425 q 488 303 488 351 q 553 197 488 231 m 844 919 q 751 924 806 919 q 716 928 733 925 q 679 935 699 931 q 644 943 660 940 q 743 853 682 906 q 844 919 804 886 z "},"ざ":{"ha":1389,"x_min":324,"x_max":1308,"o":"m 1308 1021 q 1258 961 1308 961 q 1208 989 1218 961 q 1167 1058 1194 1032 q 1135 1081 1156 1069 q 1108 1099 1115 1092 q 1094 1125 1094 1113 q 1128 1142 1094 1142 q 1241 1106 1174 1142 q 1308 1021 1308 1069 m 1178 935 q 1128 878 1178 878 q 1078 904 1086 878 q 1036 974 1064 947 q 1005 996 1025 985 q 978 1014 985 1007 q 964 1040 964 1028 q 997 1058 964 1058 q 1110 1021 1043 1058 q 1178 935 1178 983 m 553 197 q 662 172 590 178 q 774 151 733 165 q 815 122 801 142 q 829 89 829 101 q 688 46 829 46 q 485 123 569 46 q 400 263 400 200 q 476 412 400 356 q 656 468 551 468 q 776 451 706 468 q 907 435 846 435 q 948 442 936 435 q 960 474 960 450 q 948 534 960 504 q 924 581 936 564 q 883 633 911 599 q 843 685 856 667 q 782 751 822 714 q 682 721 708 725 q 567 710 608 710 q 390 757 457 710 q 324 846 324 804 q 338 865 324 865 q 385 844 358 865 q 428 819 411 824 q 578 799 499 799 q 694 831 619 799 q 655 869 681 843 q 611 911 629 896 q 569 942 593 926 q 550 993 550 953 q 610 1022 550 1022 q 658 1007 633 1022 q 724 976 683 992 q 826 960 764 960 q 874 967 857 960 q 900 974 892 974 q 944 944 922 974 q 978 890 978 906 q 842 778 978 842 q 832 774 835 775 q 938 658 883 726 q 1024 527 986 597 q 1061 426 1061 457 q 1038 324 1061 369 q 968 279 1014 279 q 879 324 931 279 q 765 395 831 365 q 644 425 700 425 q 536 388 585 425 q 488 303 488 351 q 553 197 488 231 m 844 919 q 751 924 806 919 q 716 928 733 925 q 679 935 699 931 q 644 943 660 940 q 743 853 682 906 q 844 919 804 886 z "},"し":{"ha":1389,"x_min":333,"x_max":1111,"o":"m 383 1022 q 451 999 411 1022 q 492 960 492 975 q 465 699 492 956 q 439 400 439 443 q 622 90 439 90 q 838 145 719 90 q 1044 314 957 200 q 1053 325 1047 318 q 1060 335 1058 332 q 1066 342 1063 338 q 1072 349 1069 347 q 1077 352 1074 350 q 1084 355 1081 354 q 1092 356 1088 356 q 1111 328 1111 356 q 1073 258 1111 310 q 972 147 1035 207 q 811 40 910 86 q 610 -7 713 -7 q 349 392 349 -7 q 367 597 349 401 q 386 907 386 792 q 360 956 386 929 q 333 989 333 982 q 383 1022 333 1022 z "},"じ":{"ha":1389,"x_min":333,"x_max":1111,"o":"m 1018 797 q 968 738 1018 738 q 918 765 928 738 q 876 835 904 808 q 845 857 865 846 q 818 875 825 868 q 804 901 804 889 q 838 918 804 918 q 951 882 883 918 q 1018 797 1018 846 m 888 711 q 838 654 888 654 q 788 681 796 654 q 746 750 774 724 q 715 772 735 761 q 688 790 694 783 q 674 817 674 804 q 707 835 674 835 q 820 797 753 835 q 888 711 888 760 m 383 1022 q 451 999 411 1022 q 492 960 492 975 q 465 699 492 956 q 439 400 439 443 q 622 90 439 90 q 838 145 719 90 q 1044 314 957 200 q 1053 325 1047 318 q 1060 335 1058 332 q 1066 342 1063 338 q 1072 349 1069 347 q 1077 352 1074 350 q 1084 355 1081 354 q 1092 356 1088 356 q 1111 328 1111 356 q 1073 258 1111 310 q 972 147 1035 207 q 811 40 910 86 q 610 -7 713 -7 q 349 392 349 -7 q 367 597 349 401 q 386 907 386 792 q 360 956 386 929 q 333 989 333 982 q 383 1022 333 1022 z "},"す":{"ha":1368,"x_min":215,"x_max":1161,"o":"m 778 618 q 832 511 801 589 q 863 358 863 433 q 824 151 863 224 q 700 24 786 78 q 533 -31 611 -31 q 500 -17 500 -31 q 513 6 500 -7 q 540 24 526 19 q 712 131 650 54 q 774 300 774 208 q 720 256 753 272 q 657 240 688 240 q 569 330 607 240 q 531 499 531 419 q 572 616 531 575 q 665 657 613 657 q 714 650 694 657 q 711 782 711 689 q 496 727 631 771 q 319 683 361 683 q 256 714 296 683 q 215 774 215 744 q 229 797 215 789 q 256 804 243 804 q 286 799 265 804 q 325 793 307 793 q 715 863 381 793 q 721 929 721 915 q 685 1006 721 967 q 650 1054 650 1044 q 661 1078 650 1067 q 692 1090 672 1090 q 747 1076 726 1090 q 776 1041 767 1061 q 808 992 785 1021 q 867 940 831 963 q 915 921 885 929 q 966 910 944 913 q 1027 903 988 907 q 1075 899 1067 900 q 1142 881 1122 893 q 1161 842 1161 868 q 1142 803 1161 821 q 1094 785 1124 785 q 1005 796 1075 785 q 875 807 935 807 q 819 800 857 807 q 769 792 782 793 q 778 618 769 708 m 782 968 q 778 875 782 925 q 806 880 781 875 q 846 885 832 885 q 782 968 808 946 m 729 483 q 690 567 729 540 q 621 594 651 594 q 596 569 606 594 q 586 504 586 543 q 613 415 586 456 q 664 374 639 374 q 709 410 689 374 q 729 483 729 446 z "},"ず":{"ha":1368,"x_min":215,"x_max":1292,"o":"m 1292 604 q 1242 544 1292 544 q 1192 572 1201 544 q 1150 642 1178 615 q 1119 664 1139 653 q 1092 682 1099 675 q 1078 708 1078 696 q 1111 725 1078 725 q 1224 689 1157 725 q 1292 604 1292 653 m 1161 518 q 1111 461 1161 461 q 1061 488 1069 461 q 1019 557 1047 531 q 988 579 1008 568 q 961 597 968 590 q 947 624 947 611 q 981 642 947 642 q 1094 604 1026 642 q 1161 518 1161 567 m 778 618 q 832 511 801 589 q 863 358 863 433 q 824 151 863 224 q 700 24 786 78 q 533 -31 611 -31 q 500 -17 500 -31 q 513 6 500 -7 q 540 24 526 19 q 712 131 650 54 q 774 300 774 208 q 720 256 753 272 q 657 240 688 240 q 569 330 607 240 q 531 499 531 419 q 572 616 531 575 q 665 657 613 657 q 714 650 694 657 q 711 782 711 689 q 496 727 631 771 q 319 683 361 683 q 256 714 296 683 q 215 774 215 744 q 229 797 215 789 q 256 804 243 804 q 286 799 265 804 q 325 793 307 793 q 715 863 381 793 q 721 929 721 915 q 685 1006 721 967 q 650 1054 650 1044 q 661 1078 650 1067 q 692 1090 672 1090 q 747 1076 726 1090 q 776 1041 767 1061 q 808 992 785 1021 q 867 940 831 963 q 915 921 885 929 q 966 910 944 913 q 1027 903 988 907 q 1075 899 1067 900 q 1142 881 1122 893 q 1161 842 1161 868 q 1142 803 1161 821 q 1094 785 1124 785 q 1005 796 1075 785 q 875 807 935 807 q 819 800 857 807 q 769 792 782 793 q 778 618 769 708 m 782 968 q 778 875 782 925 q 806 880 781 875 q 846 885 832 885 q 782 968 808 946 m 729 483 q 690 567 729 540 q 621 594 651 594 q 596 569 606 594 q 586 504 586 543 q 613 415 586 456 q 664 374 639 374 q 709 410 689 374 q 729 483 729 446 z "},"せ":{"ha":1389,"x_min":135,"x_max":1221,"o":"m 804 743 q 786 951 804 933 q 766 969 779 958 q 747 986 753 979 q 740 1001 740 993 q 782 1040 740 1040 q 867 1017 838 1040 q 906 903 894 994 q 960 843 908 878 q 1035 801 1013 808 q 1108 790 1051 797 q 1192 767 1164 782 q 1221 722 1221 753 q 1142 671 1221 671 q 1056 682 1138 671 q 932 693 975 693 q 892 690 911 693 q 882 440 892 508 q 847 338 872 378 q 774 300 824 300 q 724 327 750 300 q 665 400 697 354 q 613 465 632 446 q 569 519 569 508 q 579 529 569 529 q 672 486 606 529 q 774 443 739 443 q 788 464 782 443 q 796 517 793 485 q 800 581 799 550 q 802 640 801 611 q 803 672 803 669 q 640 640 667 647 q 507 593 569 619 q 519 261 507 357 q 557 151 531 179 q 633 124 583 124 q 814 136 724 124 q 993 151 917 151 q 1054 136 1029 151 q 1079 92 1079 121 q 772 15 1079 15 q 717 17 740 15 q 672 22 693 18 q 641 26 650 25 q 607 35 632 28 q 575 44 582 43 q 512 85 553 51 q 456 147 471 119 q 425 385 425 201 q 429 560 425 476 q 341 533 394 551 q 264 514 288 514 q 182 547 229 514 q 135 626 135 581 q 168 665 135 665 q 239 654 181 665 q 339 643 297 643 q 433 665 399 643 q 414 836 433 781 q 376 874 410 847 q 343 915 343 900 q 390 947 343 947 q 481 918 436 947 q 526 851 526 889 q 519 778 526 833 q 510 688 513 724 q 804 743 656 707 m 900 840 l 900 761 q 963 776 950 769 q 937 797 949 785 q 915 822 925 808 q 900 840 904 836 z "},"ぜ":{"ha":1389,"x_min":135,"x_max":1303,"o":"m 1303 504 q 1253 444 1303 444 q 1203 472 1213 444 q 1161 542 1189 515 q 1130 564 1150 553 q 1103 582 1110 575 q 1089 608 1089 596 q 1122 625 1089 625 q 1235 589 1168 625 q 1303 504 1303 553 m 1172 418 q 1122 361 1172 361 q 1072 388 1081 361 q 1031 457 1058 431 q 999 479 1019 468 q 972 497 979 490 q 958 524 958 511 q 992 542 958 542 q 1105 504 1038 542 q 1172 418 1172 467 m 804 743 q 786 951 804 933 q 766 969 779 958 q 747 986 753 979 q 740 1001 740 993 q 782 1040 740 1040 q 867 1017 838 1040 q 906 903 894 994 q 960 843 908 878 q 1035 801 1013 808 q 1108 790 1051 797 q 1192 767 1164 782 q 1221 722 1221 753 q 1142 671 1221 671 q 1056 682 1138 671 q 932 693 975 693 q 892 690 911 693 q 882 440 892 508 q 847 338 872 378 q 774 300 824 300 q 724 327 750 300 q 665 400 697 354 q 613 465 632 446 q 569 519 569 508 q 579 529 569 529 q 672 486 606 529 q 774 443 739 443 q 788 464 782 443 q 796 517 793 485 q 800 581 799 550 q 802 640 801 611 q 803 672 803 669 q 640 640 667 647 q 507 593 569 619 q 519 261 507 357 q 557 151 531 179 q 633 124 583 124 q 814 136 724 124 q 993 151 917 151 q 1054 136 1029 151 q 1079 92 1079 121 q 772 15 1079 15 q 717 17 740 15 q 672 22 693 18 q 641 26 650 25 q 607 35 632 28 q 575 44 582 43 q 512 85 553 51 q 456 147 471 119 q 425 385 425 201 q 429 560 425 476 q 341 533 394 551 q 264 514 288 514 q 182 547 229 514 q 135 626 135 581 q 168 665 135 665 q 239 654 181 665 q 339 643 297 643 q 433 665 399 643 q 414 836 433 781 q 376 874 410 847 q 343 915 343 900 q 390 947 343 947 q 481 918 436 947 q 526 851 526 889 q 519 778 526 833 q 510 688 513 724 q 804 743 656 707 m 900 840 l 900 761 q 963 776 950 769 q 937 797 949 785 q 915 822 925 808 q 900 840 904 836 z "},"そ":{"ha":1389,"x_min":274,"x_max":1096,"o":"m 479 939 q 607 981 525 939 q 710 1024 689 1024 q 790 992 749 1024 q 804 908 804 981 q 740 817 804 886 q 593 661 708 781 q 382 449 478 542 q 672 590 506 518 q 893 663 838 663 q 961 661 935 663 q 1023 654 988 660 q 1077 634 1058 649 q 1096 597 1096 619 q 1076 551 1096 565 q 1042 538 1057 538 q 988 549 1036 538 q 913 561 940 561 q 725 492 813 561 q 606 260 606 396 q 821 119 606 119 q 921 99 876 119 q 965 51 965 78 q 876 -8 965 -4 l 864 -8 q 760 4 814 -8 q 656 42 707 17 q 571 115 604 68 q 538 221 538 161 q 632 494 538 360 q 519 433 571 471 q 441 365 468 396 q 388 312 414 335 q 343 289 363 289 q 297 327 319 289 q 274 404 274 365 q 313 460 274 415 q 415 567 353 504 q 501 657 478 631 q 630 827 556 717 q 704 958 704 938 q 692 976 704 976 q 658 943 678 976 q 581 859 628 893 q 482 825 533 825 q 426 843 443 825 q 410 878 410 861 q 426 917 410 894 q 479 939 443 939 z "},"ぞ":{"ha":1389,"x_min":274,"x_max":1243,"o":"m 1243 918 q 1193 858 1243 858 q 1143 886 1153 858 q 1101 956 1129 929 q 1070 978 1090 967 q 1043 996 1050 989 q 1029 1022 1029 1010 q 1063 1039 1029 1039 q 1176 1003 1108 1039 q 1243 918 1243 967 m 1113 832 q 1063 775 1113 775 q 1013 801 1021 775 q 971 871 999 844 q 940 893 960 882 q 913 911 919 904 q 899 938 899 925 q 932 956 899 956 q 1045 918 978 956 q 1113 832 1113 881 m 479 939 q 607 981 525 939 q 710 1024 689 1024 q 790 992 749 1024 q 804 908 804 981 q 740 817 804 886 q 593 661 708 781 q 382 449 478 542 q 672 590 506 518 q 893 663 838 663 q 961 661 935 663 q 1023 654 988 660 q 1077 634 1058 649 q 1096 597 1096 619 q 1076 551 1096 565 q 1042 538 1057 538 q 988 549 1036 538 q 913 561 940 561 q 725 492 813 561 q 606 260 606 396 q 821 119 606 119 q 921 99 876 119 q 965 51 965 78 q 876 -8 965 -4 l 864 -8 q 760 4 814 -8 q 656 42 707 17 q 571 115 604 68 q 538 221 538 161 q 632 494 538 360 q 519 433 571 471 q 441 365 468 396 q 388 312 414 335 q 343 289 363 289 q 297 327 319 289 q 274 404 274 365 q 313 460 274 415 q 415 567 353 504 q 501 657 478 631 q 630 827 556 717 q 704 958 704 938 q 692 976 704 976 q 658 943 678 976 q 581 859 628 893 q 482 825 533 825 q 426 843 443 825 q 410 878 410 861 q 426 917 410 894 q 479 939 443 939 z "},"た":{"ha":1389,"x_min":179,"x_max":1182,"o":"m 569 835 q 511 864 525 854 q 504 793 510 839 q 569 835 543 811 m 321 -8 q 281 19 293 -8 q 269 71 269 47 q 298 176 269 90 q 365 401 326 263 q 419 668 403 539 q 279 643 342 643 q 210 658 242 643 q 179 706 179 674 q 210 717 179 717 q 438 772 331 717 q 450 871 450 850 q 438 928 450 906 q 408 956 425 951 q 381 985 381 964 q 446 1015 381 1015 q 492 997 472 1015 q 511 939 511 978 q 524 892 511 906 q 569 875 538 879 q 638 856 615 869 q 661 813 661 842 q 497 699 661 778 q 390 65 460 343 q 382 34 386 46 q 362 7 378 22 q 321 -8 346 -8 m 953 593 q 938 583 953 593 q 913 574 922 574 q 903 582 903 574 q 910 597 903 589 q 960 645 929 619 q 1009 687 990 671 q 1028 710 1028 703 q 994 734 1028 725 q 917 743 960 743 q 847 734 886 743 q 781 715 808 725 q 750 706 754 706 q 728 725 728 706 q 779 786 728 753 q 961 839 860 839 q 1099 811 1040 839 q 1157 719 1157 783 q 1125 672 1157 679 q 1033 638 1081 663 q 953 593 985 613 m 953 43 q 778 107 849 43 q 707 243 707 171 q 728 356 707 300 q 773 444 749 413 q 811 476 797 476 q 828 461 828 476 q 807 384 828 447 q 786 275 786 321 q 835 197 786 222 q 935 172 885 172 q 1033 181 963 172 q 1121 189 1104 189 q 1162 172 1142 189 q 1182 125 1182 154 q 1126 61 1182 79 q 953 43 1069 43 z "},"だ":{"ha":1389,"x_min":179,"x_max":1319,"o":"m 1319 1004 q 1269 944 1319 944 q 1219 972 1229 944 q 1178 1042 1206 1015 q 1147 1064 1167 1053 q 1119 1082 1126 1075 q 1106 1108 1106 1096 q 1139 1125 1106 1125 q 1252 1089 1185 1125 q 1319 1004 1319 1053 m 1189 918 q 1139 861 1189 861 q 1089 888 1097 861 q 1047 957 1075 931 q 1016 979 1036 968 q 989 997 996 990 q 975 1024 975 1011 q 1008 1042 975 1042 q 1122 1004 1054 1042 q 1189 918 1189 967 m 569 835 q 511 864 525 854 q 504 793 510 839 q 569 835 543 811 m 321 -8 q 281 19 293 -8 q 269 71 269 47 q 298 176 269 90 q 365 401 326 263 q 419 668 403 539 q 279 643 342 643 q 210 658 242 643 q 179 706 179 674 q 210 717 179 717 q 438 772 331 717 q 450 871 450 850 q 438 928 450 906 q 408 956 425 951 q 381 985 381 964 q 446 1015 381 1015 q 492 997 472 1015 q 511 939 511 978 q 524 892 511 906 q 569 875 538 879 q 638 856 615 869 q 661 813 661 842 q 497 699 661 778 q 390 65 460 343 q 382 34 386 46 q 362 7 378 22 q 321 -8 346 -8 m 953 593 q 938 583 953 593 q 913 574 922 574 q 903 582 903 574 q 910 597 903 589 q 960 645 929 619 q 1009 687 990 671 q 1028 710 1028 703 q 994 734 1028 725 q 917 743 960 743 q 847 734 886 743 q 781 715 808 725 q 750 706 754 706 q 728 725 728 706 q 779 786 728 753 q 961 839 860 839 q 1099 811 1040 839 q 1157 719 1157 783 q 1125 672 1157 679 q 1033 638 1081 663 q 953 593 985 613 m 953 43 q 778 107 849 43 q 707 243 707 171 q 728 356 707 300 q 773 444 749 413 q 811 476 797 476 q 828 461 828 476 q 807 384 828 447 q 786 275 786 321 q 835 197 786 222 q 935 172 885 172 q 1033 181 963 172 q 1121 189 1104 189 q 1162 172 1142 189 q 1182 125 1182 154 q 1126 61 1182 79 q 953 43 1069 43 z "},"ち":{"ha":1389,"x_min":306,"x_max":1083,"o":"m 618 926 l 606 882 l 657 894 q 618 926 632 906 m 749 918 q 771 901 758 918 q 783 871 783 883 q 722 820 783 854 q 596 769 661 786 q 558 514 558 590 q 583 394 558 439 q 628 419 585 394 q 733 466 672 443 q 842 489 794 489 q 956 463 906 489 q 1033 401 1007 438 q 1071 333 1058 365 q 1083 281 1083 301 q 1013 110 1083 186 q 846 -5 943 33 q 653 -43 749 -43 q 624 -28 624 -43 q 657 -7 624 -17 q 800 50 735 15 q 915 141 865 85 q 964 263 964 197 q 922 385 964 342 q 815 428 881 428 q 781 422 803 428 q 726 400 758 415 q 667 348 694 385 q 629 260 639 311 q 602 222 625 242 q 567 203 579 203 q 510 266 539 203 q 482 413 482 329 q 518 754 482 507 q 467 750 492 750 q 318 808 389 750 q 306 836 306 818 q 312 849 306 846 q 339 853 318 853 q 382 849 353 853 q 421 844 411 844 q 533 864 472 844 q 538 892 535 876 q 542 915 540 907 q 543 926 543 924 q 535 978 543 960 q 518 1001 528 997 q 501 1012 508 1004 q 493 1033 493 1019 q 505 1062 493 1056 q 550 1068 517 1068 q 608 1040 586 1068 q 629 981 629 1011 q 656 933 629 947 q 749 918 682 918 z "},"ぢ":{"ha":1389,"x_min":306,"x_max":1235,"o":"m 1235 864 q 1185 804 1235 804 q 1135 832 1144 804 q 1093 901 1121 875 q 1062 924 1082 913 q 1035 942 1042 935 q 1021 968 1021 956 q 1054 985 1021 985 q 1167 949 1100 985 q 1235 864 1235 913 m 1104 778 q 1054 721 1104 721 q 1004 747 1013 721 q 963 817 990 790 q 931 839 951 828 q 904 857 911 850 q 890 883 890 871 q 924 901 890 901 q 1037 864 969 901 q 1104 778 1104 826 m 618 926 l 606 882 l 657 894 q 618 926 632 906 m 749 918 q 771 901 758 918 q 783 871 783 883 q 722 820 783 854 q 596 769 661 786 q 558 514 558 590 q 583 394 558 439 q 628 419 585 394 q 733 466 672 443 q 842 489 794 489 q 956 463 906 489 q 1033 401 1007 438 q 1071 333 1058 365 q 1083 281 1083 301 q 1013 110 1083 186 q 846 -5 943 33 q 653 -43 749 -43 q 624 -28 624 -43 q 657 -7 624 -17 q 800 50 735 15 q 915 141 865 85 q 964 263 964 197 q 922 385 964 342 q 815 428 881 428 q 781 422 803 428 q 726 400 758 415 q 667 348 694 385 q 629 260 639 311 q 602 222 625 242 q 567 203 579 203 q 510 266 539 203 q 482 413 482 329 q 518 754 482 507 q 467 750 492 750 q 318 808 389 750 q 306 836 306 818 q 312 849 306 846 q 339 853 318 853 q 382 849 353 853 q 421 844 411 844 q 533 864 472 844 q 538 892 535 876 q 542 915 540 907 q 543 926 543 924 q 535 978 543 960 q 518 1001 528 997 q 501 1012 508 1004 q 493 1033 493 1019 q 505 1062 493 1056 q 550 1068 517 1068 q 608 1040 586 1068 q 629 981 629 1011 q 656 933 629 947 q 749 918 682 918 z "},"っ":{"ha":1389,"x_min":250,"x_max":1138,"o":"m 819 747 q 1038 660 939 747 q 1136 442 1136 573 q 1090 309 1136 372 q 977 203 1044 246 q 834 127 909 160 q 696 80 758 95 q 601 64 635 64 q 520 84 520 64 q 556 107 520 100 q 628 127 585 114 q 748 172 671 139 q 887 242 826 204 q 994 340 948 279 q 1041 466 1041 400 q 1016 574 1041 526 q 955 645 992 621 q 882 681 918 669 q 816 692 846 692 q 444 446 737 692 q 358 424 417 424 q 279 448 306 424 q 251 495 251 473 q 270 519 251 511 q 311 526 288 526 q 410 561 348 526 q 531 637 472 596 q 669 713 589 678 q 819 747 749 747 z "},"つ":{"ha":1389,"x_min":179,"x_max":1208,"o":"m 839 901 q 1094 800 979 901 q 1208 546 1208 699 q 1155 392 1208 465 q 1023 268 1101 318 q 856 181 944 218 q 697 125 768 143 q 586 107 625 107 q 492 131 492 107 q 533 157 492 149 q 617 180 567 165 q 757 232 667 194 q 918 313 847 269 q 1043 427 989 357 q 1097 574 1097 497 q 1069 699 1097 644 q 997 782 1040 754 q 913 824 954 810 q 836 838 871 838 q 403 551 744 838 q 303 525 372 525 q 211 553 243 525 q 179 608 179 582 q 201 635 179 626 q 249 644 222 644 q 364 685 292 644 q 504 773 436 725 q 665 861 572 821 q 839 901 758 901 z "},"づ":{"ha":1389,"x_min":179,"x_max":1319,"o":"m 1319 999 q 1269 939 1319 939 q 1219 967 1229 939 q 1178 1036 1206 1010 q 1147 1058 1167 1047 q 1119 1076 1126 1069 q 1106 1103 1106 1090 q 1139 1119 1106 1119 q 1252 1083 1185 1119 q 1319 999 1319 1047 m 1189 913 q 1139 856 1189 856 q 1089 882 1097 856 q 1047 951 1075 925 q 1016 974 1036 963 q 989 992 996 985 q 975 1018 975 1006 q 1008 1036 975 1036 q 1122 999 1054 1036 q 1189 913 1189 961 m 839 901 q 1094 800 979 901 q 1208 546 1208 699 q 1155 392 1208 465 q 1023 268 1101 318 q 856 181 944 218 q 697 125 768 143 q 586 107 625 107 q 492 131 492 107 q 533 157 492 149 q 617 180 567 165 q 757 232 667 194 q 918 313 847 269 q 1043 427 989 357 q 1097 574 1097 497 q 1069 699 1097 644 q 997 782 1040 754 q 913 824 954 810 q 836 838 871 838 q 403 551 744 838 q 303 525 372 525 q 211 553 243 525 q 179 608 179 582 q 201 635 179 626 q 249 644 222 644 q 364 685 292 644 q 504 773 436 725 q 665 861 572 821 q 839 901 758 901 z "},"て":{"ha":1389,"x_min":210,"x_max":1139,"o":"m 907 22 q 669 92 761 22 q 576 313 576 163 q 611 604 576 458 q 694 831 646 750 q 454 739 472 750 q 322 701 392 701 q 256 742 301 701 q 210 807 210 783 q 235 836 210 836 q 251 832 238 836 q 288 823 265 828 q 336 818 311 818 q 593 883 358 818 q 1043 978 936 978 q 1139 926 1139 978 q 1078 871 1139 871 q 789 849 917 871 q 696 696 715 768 q 664 299 664 575 q 705 193 664 238 q 806 149 746 149 q 851 151 822 149 q 893 153 879 153 q 962 132 925 153 q 999 86 999 111 q 974 39 999 56 q 907 22 949 22 z "},"で":{"ha":1389,"x_min":210,"x_max":1192,"o":"m 1192 624 q 1142 564 1192 564 q 1092 592 1101 564 q 1050 661 1078 635 q 1019 683 1039 672 q 992 701 999 694 q 978 728 978 715 q 1011 744 978 744 q 1124 708 1057 744 q 1192 624 1192 672 m 1061 538 q 1011 481 1061 481 q 961 507 969 481 q 919 576 947 550 q 888 599 908 588 q 861 617 868 610 q 847 643 847 631 q 881 661 847 661 q 994 624 926 661 q 1061 538 1061 586 m 907 22 q 669 92 761 22 q 576 313 576 163 q 611 604 576 458 q 694 831 646 750 q 454 739 472 750 q 322 701 392 701 q 256 742 301 701 q 210 807 210 783 q 235 836 210 836 q 251 832 238 836 q 288 823 265 828 q 336 818 311 818 q 593 883 358 818 q 1043 978 936 978 q 1139 926 1139 978 q 1078 871 1139 871 q 789 849 917 871 q 696 696 715 768 q 664 299 664 575 q 705 193 664 238 q 806 149 746 149 q 851 151 822 149 q 893 153 879 153 q 962 132 925 153 q 999 86 999 111 q 974 39 999 56 q 907 22 949 22 z "},"と":{"ha":1389,"x_min":332,"x_max":1029,"o":"m 903 75 q 706 53 817 53 q 533 93 603 53 q 403 313 403 167 q 433 434 403 367 q 508 551 464 501 q 542 568 522 568 q 561 554 561 568 q 550 532 561 543 q 492 433 515 497 q 469 313 469 374 q 520 228 469 260 q 661 197 571 197 q 831 207 793 197 q 911 222 901 222 q 992 201 961 222 q 1022 154 1022 179 q 983 110 1022 136 q 903 75 943 85 m 399 678 q 351 733 369 699 q 332 792 332 768 q 340 822 332 808 q 357 835 347 835 q 380 822 369 835 q 407 785 390 810 q 443 744 424 761 q 560 685 450 738 q 587 672 574 678 q 616 660 600 667 q 643 649 632 654 l 643 667 q 657 758 643 758 q 697 674 671 758 q 729 621 707 642 q 750 604 735 617 q 772 587 765 592 q 789 572 778 582 q 805 553 800 561 q 814 536 810 546 q 818 517 818 526 q 801 479 818 497 q 761 461 783 461 q 708 483 733 461 q 650 539 682 506 q 588 589 618 572 q 499 626 558 604 q 399 678 439 649 m 849 756 q 739 700 835 751 q 724 696 731 696 q 706 707 706 696 q 724 729 706 714 q 774 765 736 739 q 837 813 813 790 q 861 851 861 835 q 859 864 861 858 q 851 874 857 869 q 842 881 846 878 q 828 888 838 885 q 814 892 818 890 q 798 895 810 893 q 783 899 786 897 q 760 901 778 900 q 735 906 742 901 q 728 924 728 911 q 756 945 728 938 q 815 953 783 953 q 959 914 889 953 q 1029 843 1029 875 q 1013 798 1029 814 q 968 782 996 782 q 849 756 928 782 z "},"ど":{"ha":1389,"x_min":332,"x_max":1319,"o":"m 903 75 q 706 53 817 53 q 533 93 603 53 q 403 313 403 167 q 433 434 403 367 q 508 551 464 501 q 542 568 522 568 q 561 554 561 568 q 550 532 561 543 q 492 433 515 497 q 469 313 469 374 q 520 228 469 260 q 661 197 571 197 q 831 207 793 197 q 911 222 901 222 q 992 201 961 222 q 1022 154 1022 179 q 983 110 1022 136 q 903 75 943 85 m 399 678 q 351 733 369 699 q 332 792 332 768 q 340 822 332 808 q 357 835 347 835 q 380 822 369 835 q 407 785 390 810 q 443 744 424 761 q 560 685 450 738 q 587 672 574 678 q 616 660 600 667 q 643 649 632 654 l 643 667 q 657 758 643 758 q 697 674 671 758 q 729 621 707 642 q 750 604 735 617 q 772 587 765 592 q 789 572 778 582 q 805 553 800 561 q 814 536 810 546 q 818 517 818 526 q 801 479 818 497 q 761 461 783 461 q 708 483 733 461 q 650 539 682 506 q 588 589 618 572 q 499 626 558 604 q 399 678 439 649 m 849 756 q 739 700 835 751 q 724 696 731 696 q 706 707 706 696 q 724 729 706 714 q 774 765 736 739 q 837 813 813 790 q 861 851 861 835 q 859 864 861 858 q 851 874 857 869 q 842 881 846 878 q 828 888 838 885 q 814 892 818 890 q 798 895 810 893 q 783 899 786 897 q 760 901 778 900 q 735 906 742 901 q 728 924 728 911 q 756 945 728 938 q 815 953 783 953 q 959 914 889 953 q 1029 843 1029 875 q 1013 798 1029 814 q 968 782 996 782 q 849 756 928 782 m 1319 999 q 1269 939 1319 939 q 1219 967 1229 939 q 1178 1036 1206 1010 q 1147 1058 1167 1047 q 1119 1076 1126 1069 q 1106 1103 1106 1090 q 1139 1119 1106 1119 q 1252 1083 1185 1119 q 1319 999 1319 1047 m 1189 913 q 1139 856 1189 856 q 1089 882 1097 856 q 1047 951 1075 925 q 1016 974 1036 963 q 989 992 996 985 q 975 1018 975 1006 q 1008 1036 975 1036 q 1122 999 1054 1036 q 1189 913 1189 961 z "},"な":{"ha":1389,"x_min":263,"x_max":1138,"o":"m 303 447 q 407 601 358 511 q 497 811 492 769 q 483 810 494 811 q 469 810 472 810 q 339 871 383 810 q 321 915 321 896 q 330 939 321 928 q 353 950 339 950 q 391 926 360 950 q 457 903 422 903 q 501 906 490 903 q 538 928 513 910 q 519 983 538 949 q 500 1028 500 1017 q 524 1036 500 1036 q 592 1017 557 1036 q 626 978 626 999 q 625 972 626 975 q 688 988 664 988 q 731 946 731 988 q 718 904 731 925 q 688 881 706 883 q 662 870 679 879 q 619 848 644 861 q 579 828 594 835 q 559 780 575 817 q 535 722 543 743 q 511 661 525 699 q 487 598 497 624 q 471 560 476 572 q 453 513 467 550 q 422 438 439 475 q 386 371 406 400 q 374 351 382 365 q 361 331 365 338 q 349 315 357 325 q 334 300 340 304 q 318 292 328 296 q 297 288 308 288 q 270 315 278 288 q 263 367 263 342 q 303 447 263 401 m 714 -8 q 653 -3 679 -8 q 617 8 628 3 q 572 31 606 13 q 528 69 549 43 q 507 124 507 96 q 525 188 507 158 q 560 229 543 217 q 608 260 576 242 q 672 279 624 269 q 750 289 721 289 q 792 288 775 289 q 781 346 789 301 q 775 422 775 374 q 789 561 775 489 q 828 631 801 631 q 843 593 843 631 q 840 535 843 581 q 838 465 838 489 q 847 361 838 435 q 861 271 857 288 q 1026 182 975 226 q 1046 124 1046 164 q 1031 84 1046 100 q 999 68 1017 68 q 944 89 981 68 q 913 113 939 92 q 868 147 888 135 q 859 107 867 129 q 835 57 851 85 q 788 10 819 29 q 714 -8 756 -8 m 581 143 q 625 90 581 118 q 692 76 644 76 q 760 115 732 76 q 786 188 779 146 q 692 203 761 203 q 618 186 656 203 q 581 143 581 169 m 896 829 q 832 879 832 867 q 869 897 832 897 q 1051 814 946 897 q 1076 795 1057 810 q 1101 774 1094 781 q 1118 756 1107 768 q 1133 731 1129 743 q 1138 701 1138 718 q 1128 644 1138 660 q 1096 628 1119 628 q 1072 631 1082 628 q 1058 636 1063 633 q 1045 646 1053 639 q 1031 657 1038 653 q 943 690 986 690 l 933 690 q 910 700 910 690 q 946 728 910 708 q 982 758 982 747 q 896 829 982 778 z "},"に":{"ha":1389,"x_min":251,"x_max":1136,"o":"m 911 101 q 806 129 860 101 q 719 193 753 157 q 690 238 707 207 q 672 288 672 269 q 683 301 672 301 q 703 291 692 301 q 732 265 715 281 q 757 242 749 249 q 817 217 776 226 q 888 207 858 207 q 964 222 917 207 q 1046 236 1011 236 q 1136 186 1136 236 q 1097 124 1136 146 q 911 101 1057 101 m 821 871 q 911 888 860 871 q 994 906 963 906 q 1042 890 1019 906 q 1065 847 1065 874 q 1006 791 1065 808 q 888 774 946 774 q 751 802 829 774 q 672 861 672 831 q 714 883 672 883 q 768 877 725 883 q 821 871 811 871 m 251 432 q 281 666 251 492 q 310 856 310 840 q 286 906 310 885 q 265 951 265 924 q 296 963 265 963 q 373 924 338 963 q 408 839 408 885 q 370 670 408 786 q 332 458 332 554 q 351 353 332 365 q 369 385 363 369 q 383 421 376 400 q 396 454 390 442 q 419 483 408 483 q 431 463 431 483 q 427 429 431 450 q 419 390 424 408 q 414 369 414 372 q 401 269 401 329 q 412 156 401 208 q 422 83 422 104 q 374 15 422 15 q 293 86 332 15 q 263 226 275 119 q 251 432 251 332 z "},"ぬ":{"ha":1389,"x_min":213,"x_max":1201,"o":"m 936 244 q 850 283 893 283 q 791 268 821 283 q 761 228 761 253 q 842 193 761 193 q 936 244 888 193 m 342 414 q 299 278 299 336 q 306 226 299 247 q 326 206 314 206 q 380 238 346 206 q 442 319 414 271 q 342 414 396 360 m 538 711 q 396 518 444 613 q 485 438 431 478 q 538 711 538 585 m 839 925 q 1069 806 989 925 q 1150 476 1150 686 q 1124 275 1150 354 q 1183 211 1165 236 q 1201 157 1201 186 q 1186 103 1201 124 q 1144 83 1171 83 q 1087 101 1113 83 q 1031 158 1061 119 q 947 111 983 125 q 853 97 911 97 q 727 134 774 97 q 681 226 681 171 q 734 320 681 279 q 850 361 788 361 q 928 357 906 361 q 994 336 950 353 q 1025 511 1025 383 q 969 756 1025 660 q 819 853 914 853 q 787 852 803 853 q 759 851 771 851 q 735 847 747 850 q 715 842 722 843 q 696 835 708 840 q 680 828 683 829 q 664 819 676 826 q 649 811 651 813 q 633 800 647 810 q 617 789 619 790 q 574 397 617 557 q 603 344 603 368 q 578 304 603 326 q 535 278 554 282 q 490 209 510 236 q 442 150 471 182 q 382 102 414 118 q 315 86 350 86 q 243 127 274 86 q 213 225 213 168 q 226 326 213 283 q 263 418 239 369 q 300 504 288 467 q 269 581 290 533 q 237 661 249 628 q 225 722 225 694 q 247 769 225 769 q 269 753 263 769 q 294 690 275 738 q 353 589 314 642 q 517 789 411 683 q 449 840 478 840 q 422 861 422 840 q 490 899 422 899 q 528 892 513 899 q 563 874 544 886 q 596 857 582 863 q 718 911 669 897 q 839 925 767 925 z "},"ね":{"ha":1389,"x_min":197,"x_max":1193,"o":"m 492 663 q 489 667 492 665 q 483 669 486 668 l 482 669 l 482 619 q 492 663 492 636 m 446 397 l 410 308 q 449 204 436 204 q 458 229 458 204 q 446 397 458 328 m 914 178 q 814 235 864 235 q 746 221 771 235 q 721 189 721 207 q 753 151 721 167 q 828 135 785 135 q 914 178 882 135 m 422 664 q 254 594 254 644 q 286 508 254 569 q 349 410 318 446 q 421 551 400 465 l 422 664 m 435 1069 q 491 1028 456 1069 q 526 953 526 988 q 501 806 526 908 q 563 774 536 801 q 589 701 589 747 q 885 883 789 883 q 1039 818 983 883 q 1084 703 1060 793 q 1108 496 1108 613 q 1085 235 1108 351 q 1142 197 1124 210 q 1176 162 1160 183 q 1193 118 1193 140 q 1181 75 1193 86 q 1139 64 1168 64 q 1025 106 1085 64 q 944 47 986 67 q 836 26 903 26 q 699 81 765 26 q 633 186 633 135 q 693 281 633 236 q 819 326 753 326 q 975 292 893 326 q 1004 513 1004 363 q 972 723 1004 633 q 883 813 939 813 q 676 703 794 813 q 508 465 558 594 q 530 272 508 415 q 551 118 551 129 q 533 9 551 53 q 478 -35 514 -35 q 449 -21 461 -35 q 426 22 436 -7 q 410 81 417 51 q 392 158 403 111 q 369 240 381 206 q 351 210 363 229 q 333 181 339 192 q 316 154 326 169 q 298 130 306 139 q 282 113 290 121 q 265 100 274 104 q 249 96 257 96 q 208 119 219 96 q 197 208 197 142 q 207 236 197 222 q 249 286 217 250 q 313 360 282 322 q 285 413 307 371 q 254 472 263 456 q 233 520 246 489 q 215 575 219 551 q 210 621 210 599 q 215 645 210 633 q 232 669 219 657 q 256 690 244 681 q 291 711 268 699 q 330 732 314 724 q 376 755 346 740 q 426 779 407 769 q 431 928 431 831 q 415 982 431 944 q 399 1022 399 1019 q 411 1058 399 1047 q 435 1069 424 1069 z "},"の":{"ha":1389,"x_min":197,"x_max":1194,"o":"m 622 35 q 557 56 557 35 q 577 74 557 67 q 621 82 597 82 q 677 90 640 82 q 768 117 714 99 q 876 171 822 136 q 976 251 929 206 q 1053 369 1024 297 q 1082 525 1082 440 q 1054 690 1082 614 q 982 807 1026 765 q 717 918 868 913 q 729 719 729 825 q 675 478 729 611 q 536 260 621 346 q 340 163 442 163 q 282 189 304 163 q 239 263 260 215 q 197 482 197 354 q 219 608 197 531 q 294 764 240 686 q 376 857 338 826 q 481 919 414 888 q 728 965 575 965 q 887 937 796 965 q 1026 865 978 908 q 1194 525 1194 715 q 1150 324 1194 414 q 1040 182 1106 235 q 893 94 975 129 q 744 47 811 60 q 622 35 678 35 m 667 832 q 661 917 667 879 q 511 875 567 904 q 333 703 400 817 q 291 583 304 651 q 278 482 278 515 q 297 371 278 436 q 336 306 317 306 q 426 344 372 306 q 535 449 481 383 q 628 618 589 515 q 667 832 667 721 z "},"は":{"ha":1389,"x_min":225,"x_max":1196,"o":"m 225 350 q 258 597 225 406 q 290 804 290 788 q 274 857 290 819 q 258 904 258 894 q 267 919 258 919 q 347 875 296 919 q 378 831 364 858 q 390 751 390 806 q 372 685 390 733 q 350 628 353 638 q 340 590 349 624 q 322 522 331 556 q 305 440 313 488 q 297 357 297 393 q 311 285 297 317 l 429 571 q 444 597 440 593 q 454 600 447 600 q 468 589 468 600 q 462 556 468 576 q 444 502 456 535 q 431 460 433 469 q 411 402 425 443 q 392 342 397 361 q 380 293 386 322 q 374 240 374 264 q 375 211 374 221 q 390 72 390 99 q 368 13 390 13 q 329 18 346 13 q 303 29 313 24 q 283 51 293 35 q 272 73 274 67 q 262 103 269 79 q 253 131 254 126 q 233 236 242 165 q 225 350 225 307 m 1196 106 q 1182 58 1196 74 q 1150 43 1168 43 q 1100 67 1129 43 q 1054 125 1071 92 q 971 217 1032 171 q 946 156 964 192 q 914 106 928 119 q 800 54 863 54 q 641 101 710 54 q 572 211 572 147 q 615 309 572 257 q 749 361 658 361 q 883 356 828 361 q 860 511 860 482 q 865 665 860 571 q 803 656 831 656 q 706 707 763 656 q 649 781 649 758 q 665 790 649 790 q 710 775 683 790 q 819 747 757 747 q 872 763 850 747 q 875 843 875 790 q 858 957 875 936 q 838 973 858 958 q 818 1001 818 988 q 864 1042 818 1042 q 928 1013 888 1042 q 969 961 969 985 q 967 952 969 958 q 964 942 964 946 q 974 894 964 917 q 999 872 983 872 q 1012 876 1004 872 q 1026 879 1019 879 q 1057 858 1033 879 q 1090 824 1081 836 q 1104 786 1104 808 q 1068 747 1104 771 q 997 710 1042 729 l 933 683 q 940 515 933 574 q 967 339 946 456 q 1127 234 1058 300 q 1196 106 1196 168 m 975 817 q 970 843 975 829 q 955 878 965 857 q 942 903 944 899 q 939 869 939 889 q 942 792 939 842 q 975 817 967 803 m 721 296 q 653 272 689 296 q 617 214 617 247 q 656 159 617 178 q 746 140 696 140 q 850 175 807 140 q 889 269 889 207 q 721 296 829 296 z "},"ば":{"ha":1389,"x_min":225,"x_max":1354,"o":"m 1354 1006 q 1304 946 1354 946 q 1254 974 1264 946 q 1213 1043 1240 1017 q 1181 1065 1201 1054 q 1154 1083 1161 1076 q 1140 1110 1140 1097 q 1174 1126 1140 1126 q 1287 1090 1219 1126 q 1354 1006 1354 1054 m 1224 919 q 1174 863 1224 863 q 1124 889 1132 863 q 1082 958 1110 932 q 1051 981 1071 969 q 1024 999 1031 992 q 1010 1025 1010 1013 q 1043 1043 1010 1043 q 1156 1006 1089 1043 q 1224 919 1224 968 m 225 350 q 258 597 225 406 q 290 804 290 788 q 274 857 290 819 q 258 904 258 894 q 267 919 258 919 q 347 875 296 919 q 378 831 364 858 q 390 751 390 806 q 372 685 390 733 q 350 628 353 638 q 340 590 349 624 q 322 522 331 556 q 305 440 313 488 q 297 357 297 393 q 311 285 297 317 l 429 571 q 444 597 440 593 q 454 600 447 600 q 468 589 468 600 q 462 556 468 576 q 444 502 456 535 q 431 460 433 469 q 411 402 425 443 q 392 342 397 361 q 380 293 386 322 q 374 240 374 264 q 375 211 374 221 q 390 72 390 99 q 368 13 390 13 q 329 18 346 13 q 303 29 313 24 q 283 51 293 35 q 272 73 274 67 q 262 103 269 79 q 253 131 254 126 q 233 236 242 165 q 225 350 225 307 m 1196 106 q 1182 58 1196 74 q 1150 43 1168 43 q 1100 67 1129 43 q 1054 125 1071 92 q 971 217 1032 171 q 946 156 964 192 q 914 106 928 119 q 800 54 863 54 q 641 101 710 54 q 572 211 572 147 q 615 309 572 257 q 749 361 658 361 q 883 356 828 361 q 860 511 860 482 q 865 665 860 571 q 803 656 831 656 q 706 707 763 656 q 649 781 649 758 q 665 790 649 790 q 710 775 683 790 q 819 747 757 747 q 872 763 850 747 q 875 843 875 790 q 858 957 875 936 q 838 973 858 958 q 818 1001 818 988 q 864 1042 818 1042 q 928 1013 888 1042 q 969 961 969 985 q 967 952 969 958 q 964 942 964 946 q 974 894 964 917 q 999 872 983 872 q 1012 876 1004 872 q 1026 879 1019 879 q 1057 858 1033 879 q 1090 824 1081 836 q 1104 786 1104 808 q 1068 747 1104 771 q 997 710 1042 729 l 933 683 q 940 515 933 574 q 967 339 946 456 q 1127 234 1058 300 q 1196 106 1196 168 m 975 817 q 970 843 975 829 q 955 878 965 857 q 942 903 944 899 q 939 869 939 889 q 942 792 939 842 q 975 817 967 803 m 721 296 q 653 272 689 296 q 617 214 617 247 q 656 159 617 178 q 746 140 696 140 q 850 175 807 140 q 889 269 889 207 q 721 296 829 296 z "},"ぱ":{"ha":1389,"x_min":225,"x_max":1293,"o":"m 1119 1034 q 1109 1024 1119 1034 q 1099 985 1099 1014 q 1119 935 1099 956 q 1168 915 1139 915 q 1217 935 1197 915 q 1238 985 1238 956 q 1217 1034 1238 1014 q 1168 1054 1197 1054 q 1119 1034 1139 1054 m 1079 896 q 1061 914 1079 896 q 1043 985 1043 932 q 1079 1074 1043 1038 q 1168 1110 1115 1110 q 1257 1074 1221 1110 q 1293 985 1293 1038 q 1257 896 1293 932 q 1168 860 1221 860 q 1079 896 1115 860 m 225 350 q 258 597 225 406 q 290 804 290 788 q 274 857 290 819 q 258 904 258 894 q 267 919 258 919 q 347 875 296 919 q 378 831 364 858 q 390 751 390 806 q 372 685 390 733 q 350 628 353 638 q 340 590 349 624 q 322 522 331 556 q 305 440 313 488 q 297 357 297 393 q 311 285 297 317 l 429 571 q 444 597 440 593 q 454 600 447 600 q 468 589 468 600 q 462 556 468 576 q 444 502 456 535 q 431 460 433 469 q 411 402 425 443 q 392 342 397 361 q 380 293 386 322 q 374 240 374 264 q 375 211 374 221 q 390 72 390 99 q 368 13 390 13 q 329 18 346 13 q 303 29 313 24 q 283 51 293 35 q 272 73 274 67 q 262 103 269 79 q 253 131 254 126 q 233 236 242 165 q 225 350 225 307 m 1196 106 q 1182 58 1196 74 q 1150 43 1168 43 q 1100 67 1129 43 q 1054 125 1071 92 q 971 217 1032 171 q 946 156 964 192 q 914 106 928 119 q 800 54 863 54 q 641 101 710 54 q 572 211 572 147 q 615 309 572 257 q 749 361 658 361 q 883 356 828 361 q 860 511 860 482 q 865 665 860 571 q 803 656 831 656 q 706 707 763 656 q 649 781 649 758 q 665 790 649 790 q 710 775 683 790 q 819 747 757 747 q 872 763 850 747 q 875 843 875 790 q 858 957 875 936 q 838 973 858 958 q 818 1001 818 988 q 864 1042 818 1042 q 928 1013 888 1042 q 969 961 969 985 q 967 952 969 958 q 964 942 964 946 q 974 894 964 917 q 999 872 983 872 q 1012 876 1004 872 q 1026 879 1019 879 q 1057 858 1033 879 q 1090 824 1081 836 q 1104 786 1104 808 q 1068 747 1104 771 q 997 710 1042 729 l 933 683 q 940 515 933 574 q 967 339 946 456 q 1127 234 1058 300 q 1196 106 1196 168 m 975 817 q 970 843 975 829 q 955 878 965 857 q 942 903 944 899 q 939 869 939 889 q 942 792 939 842 q 975 817 967 803 m 721 296 q 653 272 689 296 q 617 214 617 247 q 656 159 617 178 q 746 140 696 140 q 850 175 807 140 q 889 269 889 207 q 721 296 829 296 z "},"ひ":{"ha":1389,"x_min":206,"x_max":1179,"o":"m 571 815 q 544 807 568 814 q 502 788 519 800 q 472 753 485 775 q 435 686 467 743 q 386 594 403 629 q 345 499 369 558 q 310 381 321 440 q 299 260 299 321 q 356 134 299 179 q 467 89 414 89 q 594 108 539 89 q 698 175 650 128 q 777 299 746 222 q 826 495 808 376 q 843 774 843 614 q 794 957 794 882 q 813 1003 794 986 q 844 1024 831 1021 q 867 1028 858 1028 q 906 1006 890 1028 q 925 963 922 985 q 957 801 935 875 q 1002 685 979 728 q 1059 603 1025 642 q 1110 552 1093 565 q 1153 522 1128 539 q 1179 461 1179 506 q 1136 411 1179 413 q 1082 424 1094 411 q 903 658 1000 496 q 895 474 901 553 q 873 313 889 396 q 828 172 857 229 q 754 68 799 115 q 642 -2 710 21 q 486 -25 575 -25 q 418 -19 451 -25 q 344 6 385 -12 q 275 55 304 25 q 226 138 246 85 q 206 261 206 192 q 429 801 206 486 q 283 881 283 843 q 325 922 283 922 q 363 916 336 922 q 413 910 389 910 q 478 929 440 910 q 529 949 517 949 q 593 935 564 949 q 622 886 622 921 q 571 815 622 840 z "},"び":{"ha":1389,"x_min":206,"x_max":1319,"o":"m 1319 879 q 1269 819 1319 819 q 1219 847 1229 819 q 1178 917 1206 890 q 1147 939 1167 928 q 1119 957 1126 950 q 1106 983 1106 971 q 1139 1000 1106 1000 q 1252 964 1185 1000 q 1319 879 1319 928 m 1189 793 q 1139 736 1189 736 q 1089 763 1097 736 q 1047 832 1075 806 q 1016 854 1036 843 q 989 872 996 865 q 975 899 975 886 q 1008 917 975 917 q 1122 879 1054 917 q 1189 793 1189 842 m 571 815 q 544 807 568 814 q 502 788 519 800 q 472 753 485 775 q 435 686 467 743 q 386 594 403 629 q 345 499 369 558 q 310 381 321 440 q 299 260 299 321 q 356 134 299 179 q 467 89 414 89 q 594 108 539 89 q 698 175 650 128 q 777 299 746 222 q 826 495 808 376 q 843 774 843 614 q 794 957 794 882 q 813 1003 794 986 q 844 1024 831 1021 q 867 1028 858 1028 q 906 1006 890 1028 q 925 963 922 985 q 957 801 935 875 q 1002 685 979 728 q 1059 603 1025 642 q 1110 552 1093 565 q 1153 522 1128 539 q 1179 461 1179 506 q 1136 411 1179 413 q 1082 424 1094 411 q 903 658 1000 496 q 895 474 901 553 q 873 313 889 396 q 828 172 857 229 q 754 68 799 115 q 642 -2 710 21 q 486 -25 575 -25 q 418 -19 451 -25 q 344 6 385 -12 q 275 55 304 25 q 226 138 246 85 q 206 261 206 192 q 429 801 206 486 q 283 881 283 843 q 325 922 283 922 q 363 916 336 922 q 413 910 389 910 q 478 929 440 910 q 529 949 517 949 q 593 935 564 949 q 622 886 622 921 q 571 815 622 840 z "},"ぴ":{"ha":1389,"x_min":206,"x_max":1293,"o":"m 1119 963 q 1109 953 1119 963 q 1099 914 1099 943 q 1119 865 1099 885 q 1168 844 1139 844 q 1217 865 1197 844 q 1238 914 1238 885 q 1217 963 1238 943 q 1168 983 1197 983 q 1119 963 1139 983 m 1079 825 q 1061 843 1079 825 q 1043 914 1043 861 q 1079 1003 1043 967 q 1168 1039 1115 1039 q 1257 1003 1221 1039 q 1293 914 1293 967 q 1257 825 1293 861 q 1168 789 1221 789 q 1079 825 1115 789 m 571 815 q 544 807 568 814 q 502 788 519 800 q 472 753 485 775 q 435 686 467 743 q 386 594 403 629 q 345 499 369 558 q 310 381 321 440 q 299 260 299 321 q 356 134 299 179 q 467 89 414 89 q 594 108 539 89 q 698 175 650 128 q 777 299 746 222 q 826 495 808 376 q 843 774 843 614 q 794 957 794 882 q 813 1003 794 986 q 844 1024 831 1021 q 867 1028 858 1028 q 906 1006 890 1028 q 925 963 922 985 q 957 801 935 875 q 1002 685 979 728 q 1059 603 1025 642 q 1110 552 1093 565 q 1153 522 1128 539 q 1179 461 1179 506 q 1136 411 1179 413 q 1082 424 1094 411 q 903 658 1000 496 q 895 474 901 553 q 873 313 889 396 q 828 172 857 229 q 754 68 799 115 q 642 -2 710 21 q 486 -25 575 -25 q 418 -19 451 -25 q 344 6 385 -12 q 275 55 304 25 q 226 138 246 85 q 206 261 206 192 q 429 801 206 486 q 283 881 283 843 q 325 922 283 922 q 363 916 336 922 q 413 910 389 910 q 478 929 440 910 q 529 949 517 949 q 593 935 564 949 q 622 886 622 921 q 571 815 622 840 z "},"ふ":{"ha":1389,"x_min":199,"x_max":1189,"o":"m 283 96 q 224 115 249 96 q 199 165 199 133 q 227 217 199 197 q 289 236 256 236 q 500 321 368 236 q 667 442 539 346 q 635 488 660 457 q 603 532 611 518 q 583 574 586 561 q 576 596 582 581 q 568 624 571 611 q 565 654 565 636 q 576 691 565 671 q 597 724 586 711 l 608 736 q 658 781 640 753 q 676 839 676 808 q 651 896 676 872 q 578 925 626 919 q 566 929 575 925 q 546 943 557 933 q 535 965 535 953 q 593 994 535 994 q 694 974 638 994 q 782 931 751 954 q 824 883 807 911 q 836 829 836 864 q 811 769 836 796 q 763 743 786 743 q 749 746 757 743 q 738 749 740 749 q 663 719 699 749 q 635 643 635 697 q 656 586 635 617 q 712 522 678 556 q 756 475 746 489 q 833 482 794 482 q 950 467 893 482 q 1067 414 1022 447 q 1164 321 1126 369 q 1189 238 1189 283 q 1174 185 1189 199 q 1132 171 1160 171 q 1087 186 1107 171 q 1060 224 1067 201 q 1026 290 1053 247 q 978 354 1000 332 q 831 418 911 418 q 781 414 806 418 q 814 293 814 347 q 774 167 814 213 q 668 121 733 121 q 594 139 646 121 q 465 161 533 161 q 382 128 443 161 q 283 96 321 96 m 686 390 q 569 312 651 378 q 457 226 488 246 q 560 203 501 203 q 647 225 608 203 q 702 270 686 247 q 718 306 718 293 q 715 331 718 319 q 709 349 713 342 q 698 368 706 356 q 686 390 690 381 z "},"ぶ":{"ha":1389,"x_min":199,"x_max":1239,"o":"m 1239 714 q 1189 654 1239 654 q 1139 682 1149 654 q 1097 751 1125 725 q 1066 774 1086 763 q 1039 792 1046 785 q 1025 818 1025 806 q 1058 835 1025 835 q 1172 799 1104 835 q 1239 714 1239 763 m 1108 628 q 1058 571 1108 571 q 1008 597 1017 571 q 967 667 994 640 q 935 689 956 678 q 908 707 915 700 q 894 733 894 721 q 928 751 894 751 q 1041 714 974 751 q 1108 628 1108 676 m 283 96 q 224 115 249 96 q 199 165 199 133 q 227 217 199 197 q 289 236 256 236 q 500 321 368 236 q 667 442 539 346 q 635 488 660 457 q 603 532 611 518 q 583 574 586 561 q 576 596 582 581 q 568 624 571 611 q 565 654 565 636 q 576 691 565 671 q 597 724 586 711 l 608 736 q 658 781 640 753 q 676 839 676 808 q 651 896 676 872 q 578 925 626 919 q 566 929 575 925 q 546 943 557 933 q 535 965 535 953 q 593 994 535 994 q 694 974 638 994 q 782 931 751 954 q 824 883 807 911 q 836 829 836 864 q 811 769 836 796 q 763 743 786 743 q 749 746 757 743 q 738 749 740 749 q 663 719 699 749 q 635 643 635 697 q 656 586 635 617 q 712 522 678 556 q 756 475 746 489 q 833 482 794 482 q 950 467 893 482 q 1067 414 1022 447 q 1164 321 1126 369 q 1189 238 1189 283 q 1174 185 1189 199 q 1132 171 1160 171 q 1087 186 1107 171 q 1060 224 1067 201 q 1026 290 1053 247 q 978 354 1000 332 q 831 418 911 418 q 781 414 806 418 q 814 293 814 347 q 774 167 814 213 q 668 121 733 121 q 594 139 646 121 q 465 161 533 161 q 382 128 443 161 q 283 96 321 96 m 686 390 q 569 312 651 378 q 457 226 488 246 q 560 203 501 203 q 647 225 608 203 q 702 270 686 247 q 718 306 718 293 q 715 331 718 319 q 709 349 713 342 q 698 368 706 356 q 686 390 690 381 z "},"ぷ":{"ha":1389,"x_min":199,"x_max":1189,"o":"m 992 776 q 982 766 992 776 q 972 726 972 756 q 992 677 972 697 q 1042 657 1013 657 q 1091 677 1071 657 q 1111 726 1111 697 q 1091 776 1111 756 q 1042 796 1071 796 q 992 776 1013 796 m 953 638 q 935 656 953 638 q 917 726 917 674 q 953 815 917 779 q 1042 851 989 851 q 1131 815 1094 851 q 1167 726 1167 779 q 1131 638 1167 674 q 1042 601 1094 601 q 953 638 989 601 m 283 96 q 224 115 249 96 q 199 165 199 133 q 227 217 199 197 q 289 236 256 236 q 500 321 368 236 q 667 442 539 346 q 635 488 660 457 q 603 532 611 518 q 583 574 586 561 q 576 596 582 581 q 568 624 571 611 q 565 654 565 636 q 576 691 565 671 q 597 724 586 711 l 608 736 q 658 781 640 753 q 676 839 676 808 q 651 896 676 872 q 578 925 626 919 q 566 929 575 925 q 546 943 557 933 q 535 965 535 953 q 593 994 535 994 q 694 974 638 994 q 782 931 751 954 q 824 883 807 911 q 836 829 836 864 q 811 769 836 796 q 763 743 786 743 q 749 746 757 743 q 738 749 740 749 q 663 719 699 749 q 635 643 635 697 q 656 586 635 617 q 712 522 678 556 q 756 475 746 489 q 833 482 794 482 q 950 467 893 482 q 1067 414 1022 447 q 1164 321 1126 369 q 1189 238 1189 283 q 1174 185 1189 199 q 1132 171 1160 171 q 1087 186 1107 171 q 1060 224 1067 201 q 1026 290 1053 247 q 978 354 1000 332 q 831 418 911 418 q 781 414 806 418 q 814 293 814 347 q 774 167 814 213 q 668 121 733 121 q 594 139 646 121 q 465 161 533 161 q 382 128 443 161 q 283 96 321 96 m 686 390 q 569 312 651 378 q 457 226 488 246 q 560 203 501 203 q 647 225 608 203 q 702 270 686 247 q 718 306 718 293 q 715 331 718 319 q 709 349 713 342 q 698 368 706 356 q 686 390 690 381 z "},"へ":{"ha":1389,"x_min":147,"x_max":1242,"o":"m 147 539 q 156 565 147 553 q 178 578 165 578 q 228 565 199 578 q 258 553 257 553 q 310 578 272 553 q 383 631 349 603 q 458 691 418 658 q 501 726 497 724 q 585 761 544 761 q 674 730 628 761 q 768 649 719 699 q 874 545 817 599 q 1018 440 931 492 q 1206 363 1106 389 q 1216 359 1210 361 q 1232 344 1222 357 q 1242 315 1242 332 q 1169 246 1242 246 q 1032 293 1108 246 q 888 408 956 340 q 758 544 819 476 q 650 660 697 613 q 585 707 603 707 q 530 661 574 707 q 429 555 486 615 q 339 469 372 494 q 258 438 292 438 q 185 463 222 438 q 147 539 147 488 z "},"べ":{"ha":1389,"x_min":147,"x_max":1242,"o":"m 1239 756 q 1189 696 1239 696 q 1139 724 1149 696 q 1097 793 1125 767 q 1066 815 1086 804 q 1039 833 1046 826 q 1025 860 1025 847 q 1058 876 1025 876 q 1172 840 1104 876 q 1239 756 1239 804 m 1108 669 q 1058 613 1108 613 q 1008 639 1017 613 q 967 708 994 682 q 935 731 956 719 q 908 749 915 742 q 894 775 894 763 q 928 793 894 793 q 1041 756 974 793 q 1108 669 1108 718 m 147 539 q 156 565 147 553 q 178 578 165 578 q 228 565 199 578 q 258 553 257 553 q 310 578 272 553 q 383 631 349 603 q 458 691 418 658 q 501 726 497 724 q 585 761 544 761 q 674 730 628 761 q 768 649 719 699 q 874 545 817 599 q 1018 440 931 492 q 1206 363 1106 389 q 1216 359 1210 361 q 1232 344 1222 357 q 1242 315 1242 332 q 1169 246 1242 246 q 1032 293 1108 246 q 888 408 956 340 q 758 544 819 476 q 650 660 697 613 q 585 707 603 707 q 530 661 574 707 q 429 555 486 615 q 339 469 372 494 q 258 438 292 438 q 185 463 222 438 q 147 539 147 488 z "},"ぺ":{"ha":1389,"x_min":147,"x_max":1242,"o":"m 973 881 q 963 871 973 881 q 953 832 953 861 q 973 783 953 803 q 1022 763 993 763 q 1072 783 1051 763 q 1092 832 1092 803 q 1072 881 1092 861 q 1022 901 1051 901 q 973 881 993 901 m 933 743 q 915 761 933 743 q 897 832 897 779 q 933 921 897 885 q 1022 957 969 957 q 1111 921 1075 957 q 1147 832 1147 885 q 1111 743 1147 779 q 1022 707 1075 707 q 933 743 969 707 m 147 539 q 156 565 147 553 q 178 578 165 578 q 228 565 199 578 q 258 553 257 553 q 310 578 272 553 q 383 631 349 603 q 458 691 418 658 q 501 726 497 724 q 585 761 544 761 q 674 730 628 761 q 768 649 719 699 q 874 545 817 599 q 1018 440 931 492 q 1206 363 1106 389 q 1216 359 1210 361 q 1232 344 1222 357 q 1242 315 1242 332 q 1169 246 1242 246 q 1032 293 1108 246 q 888 408 956 340 q 758 544 819 476 q 650 660 697 613 q 585 707 603 707 q 530 661 574 707 q 429 555 486 615 q 339 469 372 494 q 258 438 292 438 q 185 463 222 438 q 147 539 147 488 z "},"ほ":{"ha":1389,"x_min":246,"x_max":1240,"o":"m 1006 671 l 1006 654 q 1028 664 1028 660 q 1006 671 1028 664 m 1031 135 q 963 55 1008 75 q 840 35 917 35 q 695 71 743 35 q 647 157 647 107 q 730 251 647 219 q 947 283 813 282 q 954 336 954 329 q 951 369 954 342 q 931 526 947 436 q 804 507 860 507 q 674 533 728 507 q 619 590 619 560 q 642 610 619 610 q 690 599 650 610 q 764 589 731 589 q 929 631 821 589 q 917 747 926 721 q 890 790 908 769 q 872 817 872 810 q 888 839 872 828 q 914 850 903 850 q 964 833 935 850 q 999 797 993 815 q 1007 719 1004 776 q 1040 715 1014 718 q 1086 708 1067 711 q 1123 689 1106 704 q 1140 650 1140 674 q 1118 612 1140 631 q 1072 581 1096 593 q 1004 553 1047 569 q 1021 419 1007 475 q 1046 263 1044 328 q 1106 234 1068 256 q 1157 203 1144 213 q 1240 74 1240 142 q 1226 41 1240 54 q 1183 28 1211 28 q 1138 45 1158 28 q 1088 90 1117 63 q 1031 135 1060 118 m 799 200 q 738 189 765 200 q 710 156 710 178 q 779 117 710 117 q 914 181 890 117 q 799 200 858 200 m 268 932 q 307 951 268 951 q 383 897 346 951 q 421 796 421 843 q 379 663 421 764 q 338 492 338 563 q 349 404 338 443 q 438 568 417 568 q 449 560 449 568 q 422 436 449 549 q 394 219 394 324 q 403 142 394 196 q 411 63 411 88 q 399 10 411 35 q 367 -14 388 -14 q 281 128 317 -14 q 246 386 246 271 q 265 585 246 501 q 304 720 285 668 q 324 813 324 772 q 296 881 324 836 q 268 932 268 926 m 681 956 q 701 978 681 978 q 758 972 719 978 q 819 967 797 967 q 927 996 865 967 q 990 1025 989 1025 q 1033 1010 1010 1025 q 1057 971 1057 994 q 1000 910 1057 936 q 885 883 943 883 q 681 956 681 883 z "},"ぼ":{"ha":1389,"x_min":246,"x_max":1372,"o":"m 1372 863 q 1322 803 1372 803 q 1272 831 1282 803 q 1231 900 1258 874 q 1199 922 1219 911 q 1172 940 1179 933 q 1158 967 1158 954 q 1192 983 1158 983 q 1305 947 1238 983 q 1372 863 1372 911 m 1242 776 q 1192 719 1242 719 q 1142 746 1150 719 q 1100 815 1128 789 q 1069 838 1089 826 q 1042 856 1049 849 q 1028 882 1028 869 q 1061 900 1028 900 q 1174 863 1107 900 q 1242 776 1242 825 m 1006 671 l 1006 654 q 1028 664 1028 660 q 1006 671 1028 664 m 1031 135 q 963 55 1008 75 q 840 35 917 35 q 695 71 743 35 q 647 157 647 107 q 730 251 647 219 q 947 283 813 282 q 954 336 954 329 q 951 369 954 342 q 931 526 947 436 q 804 507 860 507 q 674 533 728 507 q 619 590 619 560 q 642 610 619 610 q 690 599 650 610 q 764 589 731 589 q 929 631 821 589 q 917 747 926 721 q 890 790 908 769 q 872 817 872 810 q 888 839 872 828 q 914 850 903 850 q 964 833 935 850 q 999 797 993 815 q 1007 719 1004 776 q 1040 715 1014 718 q 1086 708 1067 711 q 1123 689 1106 704 q 1140 650 1140 674 q 1118 612 1140 631 q 1072 581 1096 593 q 1004 553 1047 569 q 1021 419 1007 475 q 1046 263 1044 328 q 1106 234 1068 256 q 1157 203 1144 213 q 1240 74 1240 142 q 1226 41 1240 54 q 1183 28 1211 28 q 1138 45 1158 28 q 1088 90 1117 63 q 1031 135 1060 118 m 799 200 q 738 189 765 200 q 710 156 710 178 q 779 117 710 117 q 914 181 890 117 q 799 200 858 200 m 268 932 q 307 951 268 951 q 383 897 346 951 q 421 796 421 843 q 379 663 421 764 q 338 492 338 563 q 349 404 338 443 q 438 568 417 568 q 449 560 449 568 q 422 436 449 549 q 394 219 394 324 q 403 142 394 196 q 411 63 411 88 q 399 10 411 35 q 367 -14 388 -14 q 281 128 317 -14 q 246 386 246 271 q 265 585 246 501 q 304 720 285 668 q 324 813 324 772 q 296 881 324 836 q 268 932 268 926 m 681 956 q 701 978 681 978 q 758 972 719 978 q 819 967 797 967 q 927 996 865 967 q 990 1025 989 1025 q 1033 1010 1010 1025 q 1057 971 1057 994 q 1000 910 1057 936 q 885 883 943 883 q 681 956 681 883 z "},"ぽ":{"ha":1389,"x_min":246,"x_max":1335,"o":"m 1160 897 q 1150 886 1160 897 q 1140 847 1140 876 q 1160 798 1140 818 q 1210 778 1181 778 q 1259 798 1239 778 q 1279 847 1279 818 q 1259 897 1279 876 q 1210 917 1239 917 q 1160 897 1181 917 m 1121 758 q 1103 776 1121 758 q 1085 847 1085 794 q 1121 936 1085 900 q 1210 972 1157 972 q 1299 936 1263 972 q 1335 847 1335 900 q 1299 758 1335 794 q 1210 722 1263 722 q 1121 758 1157 722 m 1006 671 l 1006 654 q 1028 664 1028 660 q 1006 671 1028 664 m 1031 135 q 963 55 1008 75 q 840 35 917 35 q 695 71 743 35 q 647 157 647 107 q 730 251 647 219 q 947 283 813 282 q 954 336 954 329 q 951 369 954 342 q 931 526 947 436 q 804 507 860 507 q 674 533 728 507 q 619 590 619 560 q 642 610 619 610 q 690 599 650 610 q 764 589 731 589 q 929 631 821 589 q 917 747 926 721 q 890 790 908 769 q 872 817 872 810 q 888 839 872 828 q 914 850 903 850 q 964 833 935 850 q 999 797 993 815 q 1007 719 1004 776 q 1040 715 1014 718 q 1086 708 1067 711 q 1123 689 1106 704 q 1140 650 1140 674 q 1118 612 1140 631 q 1072 581 1096 593 q 1004 553 1047 569 q 1021 419 1007 475 q 1046 263 1044 328 q 1106 234 1068 256 q 1157 203 1144 213 q 1240 74 1240 142 q 1226 41 1240 54 q 1183 28 1211 28 q 1138 45 1158 28 q 1088 90 1117 63 q 1031 135 1060 118 m 799 200 q 738 189 765 200 q 710 156 710 178 q 779 117 710 117 q 914 181 890 117 q 799 200 858 200 m 268 932 q 307 951 268 951 q 383 897 346 951 q 421 796 421 843 q 379 663 421 764 q 338 492 338 563 q 349 404 338 443 q 438 568 417 568 q 449 560 449 568 q 422 436 449 549 q 394 219 394 324 q 403 142 394 196 q 411 63 411 88 q 399 10 411 35 q 367 -14 388 -14 q 281 128 317 -14 q 246 386 246 271 q 265 585 246 501 q 304 720 285 668 q 324 813 324 772 q 296 881 324 836 q 268 932 268 926 m 681 956 q 701 978 681 978 q 758 972 719 978 q 819 967 797 967 q 927 996 865 967 q 990 1025 989 1025 q 1033 1010 1010 1025 q 1057 971 1057 994 q 1000 910 1057 936 q 885 883 943 883 q 681 956 681 883 z "},"ま":{"ha":1389,"x_min":379,"x_max":1010,"o":"m 706 158 q 694 164 703 160 q 681 170 686 168 q 665 175 675 172 q 641 179 654 178 q 611 181 628 181 q 552 173 579 181 q 508 154 525 165 q 479 130 492 143 q 462 108 467 117 q 457 93 457 99 q 466 70 457 83 q 501 44 475 57 q 564 31 528 31 q 648 60 603 31 q 706 158 693 90 m 669 1089 q 716 1063 683 1089 q 749 1021 749 1038 q 742 965 749 1014 q 735 868 736 917 q 778 851 747 856 q 831 844 808 847 q 853 828 853 840 q 744 731 853 788 l 750 556 q 828 607 828 574 q 803 651 828 625 q 779 688 779 676 q 789 704 779 704 q 808 692 790 704 q 964 632 851 658 q 981 589 981 628 q 908 519 981 563 q 756 446 835 475 q 766 332 756 403 q 776 239 776 261 q 1010 71 1010 126 q 994 16 1010 46 q 957 -14 979 -14 q 917 8 942 -14 q 853 69 893 29 q 781 135 814 110 q 726 3 781 54 q 575 -47 671 -47 q 452 -4 524 -47 q 381 92 381 39 q 456 200 381 151 q 608 249 532 249 q 713 246 675 249 l 713 258 q 699 429 713 290 q 560 413 624 413 q 440 449 501 413 q 379 533 379 486 q 390 542 379 542 q 444 519 397 542 q 532 497 490 497 q 563 499 549 497 q 588 501 578 500 q 613 508 597 503 q 635 516 629 514 q 662 526 640 518 q 690 538 683 535 l 681 714 q 650 711 653 711 q 554 742 589 711 q 519 794 519 772 q 539 806 519 806 q 573 803 549 806 q 611 801 597 801 q 675 815 649 801 q 657 1006 671 978 q 635 1030 651 1017 q 619 1049 619 1043 q 636 1079 619 1069 q 669 1089 653 1089 z "},"み":{"ha":1389,"x_min":157,"x_max":1240,"o":"m 422 431 q 296 362 351 408 q 240 275 240 315 q 258 240 240 240 q 333 287 286 240 q 422 431 379 333 m 693 1003 q 756 979 722 1003 q 790 933 790 956 q 776 881 790 911 q 738 817 761 851 q 666 703 715 783 q 567 531 617 622 q 728 517 661 531 q 903 469 794 504 q 890 588 903 540 q 876 636 876 635 q 910 665 876 665 q 949 655 928 665 q 975 628 971 644 q 1012 524 979 610 q 1061 399 1044 438 q 1240 240 1240 286 q 1144 197 1240 197 q 1088 214 1113 197 q 1028 266 1063 231 q 965 322 994 301 q 797 85 938 193 q 553 -22 657 -22 q 529 -6 529 -22 q 563 15 529 3 q 888 376 803 107 q 581 457 775 457 q 529 450 553 457 q 413 228 461 299 q 322 135 364 157 q 210 114 281 114 q 157 253 157 114 q 454 510 157 413 q 664 890 576 707 q 481 801 565 801 q 410 822 440 801 q 381 874 381 843 q 389 890 381 886 q 428 894 397 894 q 506 922 465 894 q 595 976 547 949 q 693 1003 643 1003 z "},"む":{"ha":1389,"x_min":221,"x_max":1169,"o":"m 988 793 q 1104 729 1039 793 q 1169 585 1169 665 q 1147 521 1169 543 q 1097 499 1124 499 q 1065 513 1089 499 q 1026 528 1042 528 q 897 521 938 528 q 896 465 896 506 q 928 342 896 403 q 961 242 961 281 q 955 189 961 215 q 927 128 949 163 q 870 67 906 93 q 771 22 835 40 q 624 4 707 4 q 386 157 386 4 q 389 215 386 171 q 392 281 392 260 q 319 381 356 306 q 283 521 283 456 q 301 601 283 567 q 344 652 319 636 q 387 675 368 668 q 414 682 406 682 q 438 675 425 682 q 446 717 446 692 q 443 772 446 756 q 363 758 410 758 q 265 794 308 758 q 221 867 221 829 q 249 900 221 900 q 285 881 261 900 q 332 861 308 861 q 439 897 385 861 q 409 962 431 935 q 383 1010 388 989 q 390 1026 383 1019 q 404 1032 396 1032 q 490 921 449 1032 l 496 925 q 510 932 501 928 q 528 941 518 936 q 553 949 539 946 q 582 953 568 953 q 622 925 606 953 q 638 875 638 897 q 627 853 638 864 q 592 830 617 842 q 553 812 567 818 q 503 792 539 806 q 506 711 506 753 q 521 640 506 664 q 536 586 536 615 q 517 477 536 536 q 499 400 499 418 q 504 360 499 381 q 510 321 510 339 q 492 288 510 306 q 460 269 474 269 q 451 197 451 219 q 507 125 451 125 q 582 126 551 125 q 661 131 613 126 q 743 144 710 135 q 810 169 776 154 q 860 210 843 183 q 878 269 878 236 q 866 378 878 303 q 854 489 854 454 q 865 617 854 551 q 908 738 876 682 q 988 793 940 793 m 404 588 q 332 494 332 588 q 360 439 332 461 q 404 417 388 417 q 433 466 422 417 q 444 550 444 515 q 404 588 444 588 m 979 744 q 900 564 917 744 q 953 578 915 572 q 1019 591 992 583 q 1046 613 1046 599 q 1024 699 1046 654 q 979 744 1003 744 z "},"め":{"ha":1389,"x_min":215,"x_max":1175,"o":"m 394 581 q 325 482 353 539 q 297 381 297 425 q 328 296 297 353 q 383 239 360 239 q 458 265 425 239 q 553 378 492 292 q 394 581 458 471 m 704 739 q 574 717 621 735 q 463 657 526 700 q 606 461 499 539 q 704 739 674 558 m 718 1033 q 772 1004 738 1033 q 807 956 807 975 q 804 917 807 939 q 797 866 801 896 q 789 817 792 836 q 960 765 869 817 q 1113 631 1051 713 q 1175 469 1175 549 q 1151 328 1175 394 q 1090 215 1128 263 q 1004 130 1053 168 q 907 67 956 92 q 811 27 858 43 q 731 4 764 11 q 678 -3 697 -3 q 644 19 644 -3 q 675 36 644 32 q 728 55 689 38 q 824 108 767 72 q 933 191 882 144 q 1022 307 985 238 q 1058 450 1058 376 q 965 657 1058 576 q 781 738 871 738 q 722 521 761 628 q 728 454 728 493 q 714 397 728 421 q 686 362 700 372 q 644 336 672 351 q 371 115 533 115 q 265 213 314 115 q 215 388 215 311 q 375 669 215 497 q 340 791 364 742 q 299 863 317 840 q 282 893 282 885 q 300 925 282 925 q 374 864 329 925 q 443 728 418 803 q 555 782 497 763 q 715 813 613 801 q 722 932 722 878 q 696 964 722 943 q 669 1010 669 985 q 718 1033 669 1033 z "},"も":{"ha":1389,"x_min":397,"x_max":988,"o":"m 558 1086 q 641 1046 596 1086 q 686 967 686 1006 q 633 807 686 965 q 710 775 678 796 q 742 732 742 754 q 728 694 742 713 q 684 657 715 676 q 635 628 653 638 q 574 596 617 618 q 551 463 557 519 q 676 440 613 447 q 719 422 704 438 q 733 386 733 406 q 644 325 733 325 q 550 343 607 325 q 592 151 556 196 q 733 106 629 106 q 822 152 783 106 q 861 261 861 199 q 832 392 861 328 q 767 494 803 456 q 701 565 731 533 q 672 604 672 596 q 673 612 672 610 q 676 615 674 614 q 686 617 679 617 q 785 567 715 617 q 922 432 856 518 q 988 267 988 346 q 921 85 988 161 q 739 10 854 10 q 653 16 688 10 q 585 43 619 22 q 531 102 550 64 q 498 208 511 140 q 483 372 485 275 q 397 492 397 421 q 521 625 397 526 q 553 746 539 688 q 476 773 508 754 q 430 813 444 792 q 409 851 415 835 q 403 879 403 867 q 428 908 403 908 q 464 881 444 908 q 501 844 479 857 q 571 821 522 832 q 585 954 585 894 q 549 1015 585 978 q 513 1060 513 1051 q 558 1086 513 1086 m 611 739 q 594 683 600 703 q 646 726 646 722 q 629 739 646 739 l 611 739 m 489 483 q 503 556 492 504 q 464 506 464 528 q 489 483 464 494 z "},"ゃ":{"ha":1389,"x_min":256,"x_max":1142,"o":"m 697 671 q 608 734 677 706 q 509 762 539 762 q 460 745 484 762 q 435 707 435 728 q 457 637 435 683 q 503 563 478 591 q 594 614 536 579 q 697 671 651 649 m 674 862 q 737 826 700 862 q 773 762 773 789 q 746 692 773 735 q 878 734 845 734 q 946 725 906 734 q 1032 695 986 715 q 1109 637 1078 676 q 1141 549 1141 598 q 1124 455 1141 495 q 1083 392 1107 414 q 1029 356 1059 370 q 979 339 999 342 q 943 335 958 335 q 762 398 851 335 q 673 516 673 461 q 690 535 673 535 q 724 509 696 535 q 798 457 753 483 q 890 431 844 431 q 1050 552 1050 431 q 1003 638 1050 604 q 874 671 956 671 q 737 627 813 671 q 548 497 662 584 q 696 191 641 327 q 752 6 752 56 q 743 -40 752 -30 q 714 -50 735 -50 q 651 5 688 -50 q 613 130 613 61 q 491 451 613 261 q 467 434 484 446 q 442 416 450 421 q 421 401 435 411 q 398 387 407 391 q 378 378 390 383 q 356 371 366 372 q 335 369 346 369 q 279 399 301 369 q 256 461 256 428 q 291 486 256 486 q 310 484 298 486 q 329 482 323 482 q 446 531 367 482 q 367 707 367 658 q 398 772 367 741 q 485 804 428 804 q 556 801 503 804 q 636 799 608 799 q 660 812 660 799 q 662 854 660 845 q 674 862 665 862 z "},"や":{"ha":1389,"x_min":185,"x_max":1214,"o":"m 697 813 q 594 885 674 853 q 479 918 514 918 q 422 899 450 918 q 393 854 393 879 q 418 773 393 826 q 472 688 443 719 q 577 747 510 706 q 697 813 644 788 m 671 1035 q 744 992 701 1035 q 786 918 786 950 q 754 838 786 888 q 908 886 869 886 q 987 875 940 886 q 1087 841 1033 864 q 1177 773 1140 818 q 1214 671 1214 728 q 1194 561 1214 608 q 1146 488 1174 514 q 1083 447 1118 463 q 1025 426 1049 431 q 983 422 1001 422 q 773 495 876 422 q 669 632 669 568 q 689 654 669 654 q 729 624 696 654 q 815 564 763 594 q 922 533 868 533 q 1108 674 1108 533 q 1053 774 1108 735 q 903 813 999 813 q 744 762 832 813 q 524 610 657 711 q 697 255 632 413 q 761 39 761 97 q 751 -15 761 -3 q 717 -26 742 -26 q 644 38 688 -26 q 600 183 600 103 q 458 557 600 336 q 430 537 450 551 q 401 516 410 522 q 376 499 393 510 q 350 483 360 488 q 326 472 340 478 q 301 463 313 465 q 276 461 289 461 q 211 496 238 461 q 185 568 185 531 q 225 597 185 597 q 248 595 233 597 q 269 593 263 593 q 406 650 314 593 q 314 854 314 797 q 349 931 314 894 q 451 967 385 967 q 533 964 472 967 q 626 961 594 961 q 654 976 654 961 q 657 1025 654 1015 q 671 1035 660 1035 z "},"ゅ":{"ha":1389,"x_min":278,"x_max":1108,"o":"m 823 798 q 892 534 892 617 q 832 262 892 393 q 958 332 894 262 q 1023 510 1023 402 q 1003 639 1023 575 q 936 750 983 702 q 823 798 888 798 m 752 782 q 725 770 737 776 q 702 758 714 764 q 684 746 691 751 q 665 732 677 741 q 650 721 654 724 q 635 707 647 718 q 620 695 623 697 q 599 531 599 646 q 639 368 599 426 q 757 276 679 310 q 789 385 778 333 q 800 526 800 437 q 752 782 800 694 m 574 -58 q 565 -48 565 -58 q 573 -33 565 -40 l 589 -18 q 611 4 605 -3 q 634 29 618 12 q 660 61 650 46 q 684 96 671 76 q 707 138 697 116 q 724 185 717 161 q 593 316 642 228 q 544 519 544 403 q 548 596 544 572 q 441 328 441 446 q 456 286 441 313 q 471 227 471 260 q 458 183 471 198 q 430 168 445 168 q 330 270 380 168 q 279 440 279 371 q 299 634 279 526 q 319 745 319 741 q 313 769 319 753 q 306 796 306 784 q 334 808 306 808 q 380 774 354 808 q 405 713 405 739 q 381 616 405 698 q 356 482 356 534 q 370 407 356 436 q 417 496 401 467 q 473 581 434 525 q 558 686 513 638 q 611 802 593 781 q 662 839 624 819 q 715 860 699 860 q 750 853 724 860 q 792 836 776 845 q 823 844 815 844 q 887 838 854 844 q 961 809 920 831 q 1034 752 1003 787 q 1086 652 1065 716 q 1108 505 1108 589 q 1020 263 1108 358 q 828 168 932 168 q 785 170 811 168 q 695 39 743 94 q 617 -37 647 -17 q 574 -58 587 -58 z "},"ゆ":{"ha":1389,"x_min":211,"x_max":1175,"o":"m 844 960 q 924 653 924 750 q 854 338 924 489 q 1001 419 926 338 q 1076 625 1076 500 q 1053 775 1076 701 q 975 904 1031 849 q 844 960 919 960 m 761 942 q 731 928 744 935 q 703 913 717 921 q 682 900 690 906 q 660 884 674 894 q 643 870 647 874 q 625 855 639 867 q 608 840 611 843 q 583 650 583 783 q 630 460 583 528 q 767 353 676 393 q 804 480 792 419 q 817 644 817 540 q 761 942 817 839 m 554 -35 q 544 -24 544 -35 q 553 -6 544 -14 l 572 11 q 598 38 590 29 q 624 66 606 46 q 655 103 643 86 q 682 144 667 121 q 709 193 697 167 q 729 247 721 219 q 576 399 633 297 q 519 636 519 501 q 524 725 519 697 q 400 414 400 551 q 417 365 400 396 q 435 296 435 335 q 419 245 435 263 q 388 228 404 228 q 270 346 329 228 q 211 544 211 464 q 235 769 211 644 q 258 899 258 894 q 251 926 258 908 q 243 958 243 944 q 275 972 243 972 q 328 932 299 972 q 358 861 358 892 q 330 749 358 844 q 301 593 301 653 q 317 506 301 539 q 372 609 353 575 q 438 708 392 643 q 536 831 483 774 q 597 965 576 940 q 656 1008 613 985 q 718 1032 700 1032 q 759 1024 729 1032 q 808 1004 789 1015 q 844 1014 835 1014 q 919 1006 881 1014 q 1005 973 957 999 q 1089 906 1053 947 q 1150 791 1125 865 q 1175 619 1175 717 q 1073 338 1175 449 q 850 228 971 228 q 800 231 831 228 q 695 77 751 142 q 604 -11 639 13 q 554 -35 569 -35 z "},"ょ":{"ha":1389,"x_min":386,"x_max":1003,"o":"m 704 143 q 599 175 650 175 q 527 164 558 175 q 483 139 496 153 q 470 116 470 126 q 508 81 470 92 q 582 70 545 70 q 660 88 625 70 q 704 143 696 106 m 804 203 q 877 173 813 199 q 971 125 940 148 q 1001 75 1001 102 q 982 39 1001 55 q 937 24 963 24 q 890 35 909 24 q 850 67 871 46 q 811 99 828 88 q 636 -28 760 -28 q 571 -21 610 -28 q 489 -2 532 -15 q 416 36 446 10 q 386 92 386 61 q 448 193 386 150 q 613 236 509 236 q 717 223 671 236 q 705 311 714 247 q 693 400 696 375 q 686 467 690 425 q 682 542 682 509 q 684 662 682 578 q 686 767 686 746 q 651 829 686 800 q 616 874 616 857 q 632 892 616 892 q 706 863 657 892 q 754 801 754 833 q 749 738 754 778 q 745 654 745 698 q 816 648 768 648 q 844 652 821 648 q 877 657 866 657 q 911 642 890 657 q 932 620 932 627 q 899 565 932 586 q 840 544 865 544 q 747 572 817 544 q 779 327 755 431 q 804 203 802 223 z "},"よ":{"ha":1389,"x_min":336,"x_max":1051,"o":"m 706 199 q 583 236 643 236 q 500 223 536 236 q 449 194 464 210 q 433 167 433 179 q 477 126 433 139 q 564 114 521 114 q 655 135 614 114 q 706 199 696 156 m 822 268 q 906 234 832 264 q 1016 178 981 204 q 1051 119 1051 151 q 1029 78 1051 96 q 976 60 1007 60 q 922 73 944 60 q 875 110 900 86 q 831 147 850 135 q 626 0 771 0 q 551 8 596 0 q 456 30 506 15 q 371 74 406 44 q 336 139 336 103 q 408 257 336 207 q 600 307 479 307 q 721 292 667 307 q 706 394 717 319 q 692 497 696 468 q 685 575 689 526 q 681 663 681 624 q 683 802 681 704 q 685 924 685 900 q 644 996 685 963 q 603 1049 603 1029 q 622 1069 603 1069 q 708 1035 651 1069 q 764 964 764 1001 q 758 891 764 938 q 753 793 753 844 q 836 786 781 786 q 868 791 842 786 q 907 796 894 796 q 947 778 922 796 q 971 753 971 761 q 932 690 971 714 q 864 665 893 665 q 756 697 838 665 q 792 413 765 533 q 822 268 819 292 z "},"ら":{"ha":1389,"x_min":382,"x_max":1033,"o":"m 382 386 q 392 488 382 415 q 406 590 403 560 q 410 677 408 631 q 413 751 413 724 q 418 789 414 778 q 448 836 428 817 q 482 860 468 856 q 681 936 589 886 q 643 990 681 961 q 581 1018 606 1018 q 539 1043 539 1018 q 625 1065 539 1065 q 744 1011 689 1065 q 799 888 799 957 q 784 847 799 864 q 756 826 769 831 q 738 821 743 821 q 722 829 733 821 q 706 839 711 838 q 608 851 676 851 q 493 831 525 851 q 489 808 489 822 q 496 779 489 797 q 503 750 503 761 q 483 609 503 731 q 463 433 463 488 q 478 383 463 407 q 507 358 494 358 q 567 391 517 358 q 681 456 617 424 q 788 489 744 489 q 953 429 872 489 q 1033 276 1033 369 q 936 64 1033 135 q 767 -8 878 21 q 579 -37 656 -37 q 458 -1 458 -37 q 540 26 458 26 q 682 49 597 26 q 831 113 767 71 q 893 176 875 140 q 911 278 911 213 q 897 357 911 324 q 862 405 883 390 q 822 426 840 419 q 783 432 803 432 q 719 399 757 432 q 648 326 681 365 q 581 253 615 286 q 528 219 547 219 q 471 224 506 219 q 431 233 436 229 q 399 287 415 243 q 382 386 382 331 z "},"り":{"ha":1422,"x_min":465,"x_max":935,"o":"m 501 1068 q 598 1036 550 1068 q 646 936 646 1004 q 637 884 646 917 q 611 802 628 851 q 586 724 594 753 q 638 756 606 742 q 690 771 671 771 q 744 765 717 771 q 807 737 771 758 q 870 681 843 715 q 916 582 897 646 q 935 435 935 518 q 899 251 935 335 q 810 116 863 167 q 695 30 757 65 q 588 -19 633 -6 q 513 -35 542 -33 q 490 -11 490 -35 q 542 29 490 11 q 828 438 828 139 q 813 570 828 515 q 776 651 799 625 q 732 687 753 676 q 690 697 711 697 q 609 639 639 697 q 579 522 579 581 q 603 406 579 485 q 628 321 628 328 q 608 292 628 303 q 553 281 588 281 q 490 340 515 281 q 465 517 465 400 q 488 677 465 576 q 533 858 511 778 q 556 946 556 938 q 516 993 556 961 q 476 1050 476 1025 q 501 1068 476 1068 z "},"る":{"ha":1389,"x_min":319,"x_max":1074,"o":"m 688 197 q 631 178 654 197 q 608 125 608 160 q 663 99 608 99 q 731 104 701 99 q 726 144 726 113 q 688 197 726 197 m 499 889 q 590 944 514 889 q 671 1001 667 1000 q 753 1017 699 1017 q 822 978 782 1017 q 861 911 861 939 q 818 847 861 896 q 703 713 775 797 q 583 553 632 628 q 794 600 700 600 q 878 583 833 600 q 969 533 924 567 q 1044 434 1014 499 q 1074 285 1074 369 q 1045 155 1074 211 q 967 67 1017 99 q 863 22 918 36 q 744 7 807 7 q 522 108 522 7 q 566 213 522 164 q 689 263 610 263 q 792 230 747 263 q 836 157 836 197 q 829 115 836 128 q 971 286 971 140 q 927 467 971 401 q 792 532 883 532 q 570 459 660 532 q 456 279 481 386 q 367 183 433 183 q 336 208 353 183 q 319 267 319 232 q 408 417 319 289 q 604 705 497 546 q 742 946 711 864 q 647 875 692 921 q 567 799 601 829 q 497 768 533 768 q 434 793 471 768 q 397 847 397 818 q 403 885 397 875 q 431 896 408 896 q 465 892 443 896 q 499 889 486 889 z "},"れ":{"ha":1389,"x_min":179,"x_max":1279,"o":"m 358 301 l 339 250 l 364 203 l 358 301 m 379 675 q 267 647 292 657 q 242 617 242 638 q 279 428 242 499 q 310 491 292 454 q 337 546 329 528 q 356 597 344 564 q 379 675 368 631 m 325 1025 q 436 966 379 1025 q 493 863 493 907 q 486 827 493 857 q 479 744 479 797 q 521 708 506 731 q 709 844 643 813 q 872 875 775 875 q 960 831 919 875 q 1000 736 1000 788 q 974 507 1000 675 q 949 318 949 339 q 967 245 949 276 q 1011 214 986 214 q 1137 254 1065 214 q 1232 369 1208 294 q 1268 408 1243 408 q 1279 386 1279 408 q 1196 214 1279 308 q 1013 119 1113 119 q 899 170 954 119 q 843 310 843 221 q 871 484 843 357 q 899 706 899 611 q 876 772 899 739 q 832 804 854 804 q 642 715 746 804 q 457 503 539 626 q 438 367 438 451 q 460 210 438 344 q 483 53 483 75 q 458 2 483 21 q 404 -17 433 -17 q 380 -8 390 -17 q 360 22 369 1 q 346 61 351 42 q 330 115 340 81 q 311 172 319 149 q 229 93 258 93 q 192 116 206 93 q 179 169 179 139 q 242 347 179 203 q 205 449 214 422 q 188 519 196 475 q 179 617 179 564 q 249 713 179 689 q 388 747 306 732 q 394 886 394 803 q 370 942 394 917 q 308 979 346 968 q 297 993 303 981 q 292 1013 292 1006 q 325 1025 292 1025 z "},"ろ":{"ha":1389,"x_min":261,"x_max":1131,"o":"m 725 993 q 831 924 831 993 q 792 864 831 913 q 683 718 753 815 q 557 514 614 621 q 843 608 719 608 q 1055 532 979 608 q 1131 329 1131 456 q 1015 109 1131 217 q 776 1 899 1 q 750 10 763 1 q 738 28 738 19 q 771 46 738 42 q 938 151 856 54 q 1019 335 1019 249 q 965 488 1019 422 q 842 554 910 554 q 664 508 743 554 q 536 394 585 461 q 449 261 488 328 q 377 148 411 194 q 311 101 343 101 q 261 221 261 101 q 278 267 261 239 q 328 317 294 296 q 506 535 378 347 q 703 883 633 724 q 635 833 668 864 q 580 785 603 801 q 528 768 557 768 q 472 792 503 768 q 440 847 440 815 q 451 871 440 865 q 494 876 463 876 q 613 935 515 876 q 725 993 711 993 z "},"ゎ":{"ha":1389,"x_min":300,"x_max":1088,"o":"m 568 522 q 559 517 568 522 l 558 470 q 577 509 577 493 q 568 522 577 522 m 500 273 l 475 224 q 510 132 495 160 q 500 273 500 178 m 497 476 q 469 455 483 464 q 445 440 454 445 q 417 427 435 436 q 389 413 399 418 q 428 302 401 352 l 490 393 q 497 476 490 426 m 462 900 q 531 835 479 900 q 582 749 582 769 q 573 683 582 715 q 563 620 564 651 q 612 605 593 620 q 638 575 631 591 q 649 534 644 559 q 705 564 674 543 q 770 597 736 585 q 857 609 803 609 q 1026 526 966 609 q 1087 325 1087 443 q 1041 188 1087 253 q 929 82 995 123 q 791 18 862 41 q 666 -6 721 -6 q 656 1 656 -6 q 671 20 656 16 q 897 148 804 64 q 991 323 991 231 q 976 424 991 372 q 929 514 961 475 q 854 554 896 554 q 755 541 788 554 q 650 475 723 528 q 607 422 643 451 q 562 381 571 393 q 556 304 556 350 q 575 185 556 255 q 594 98 594 116 q 580 29 594 62 q 549 -4 567 -4 q 506 20 524 -4 q 482 79 488 44 q 454 181 472 142 q 432 138 446 168 q 406 90 417 107 q 384 73 395 73 q 343 92 364 73 q 323 133 323 111 q 332 184 323 166 q 365 228 341 203 q 403 272 390 254 q 336 383 372 374 q 309 410 318 389 q 300 448 300 431 q 381 499 300 475 q 416 516 397 504 q 460 550 434 529 q 503 584 487 572 q 509 707 509 659 q 473 801 509 739 q 436 868 436 863 q 462 900 436 900 z "},"わ":{"ha":1389,"x_min":236,"x_max":1151,"o":"m 547 639 q 538 633 547 639 l 536 579 q 558 624 558 606 q 547 639 558 639 m 468 350 l 439 293 q 481 186 463 218 q 468 350 468 239 m 465 586 q 432 561 449 572 q 404 544 415 550 q 372 528 393 539 q 339 513 351 518 q 385 383 353 442 l 457 489 q 465 586 457 528 m 424 1079 q 504 1003 444 1079 q 564 903 564 926 q 553 826 564 864 q 542 753 543 789 q 599 736 576 753 q 628 701 621 719 q 642 653 636 682 q 707 688 671 664 q 782 726 743 713 q 883 740 821 740 q 1081 644 1010 740 q 1151 410 1151 547 q 1098 251 1151 326 q 967 128 1044 175 q 807 53 889 81 q 661 25 725 25 q 650 33 650 25 q 667 56 650 51 q 931 204 822 107 q 1039 408 1039 301 q 1022 525 1039 465 q 967 631 1004 585 q 881 676 929 676 q 765 661 803 676 q 643 585 728 646 q 593 523 635 557 q 540 475 551 489 q 533 386 533 439 q 556 248 533 329 q 578 146 578 167 q 562 66 578 104 q 525 28 546 28 q 475 56 496 28 q 447 124 454 83 q 415 243 436 197 q 389 192 406 228 q 359 137 372 157 q 333 117 346 117 q 286 139 310 117 q 263 188 263 161 q 273 247 263 225 q 312 298 283 268 q 356 349 340 328 q 278 478 319 467 q 247 509 257 485 q 236 553 236 533 q 331 613 236 585 q 370 633 349 618 q 422 672 392 647 q 472 711 453 697 q 479 854 479 799 q 437 964 479 892 q 394 1042 394 1036 q 424 1079 394 1079 z "},"ゐ":{"ha":1389,"x_min":247,"x_max":1140,"o":"m 736 199 q 703 185 715 199 q 692 151 692 172 q 722 136 692 136 q 794 150 767 136 q 772 185 789 172 q 736 199 754 199 m 301 376 q 316 279 301 332 q 353 226 331 226 q 433 335 381 226 q 538 586 486 443 q 301 376 301 422 m 668 1007 q 739 970 700 1007 q 778 908 778 933 q 763 874 778 893 q 719 818 747 854 q 669 739 692 782 q 774 779 732 768 q 878 790 817 790 q 940 782 907 790 q 1008 750 972 774 q 1074 691 1044 726 q 1122 596 1103 656 q 1140 461 1140 536 q 1115 276 1140 356 q 1054 164 1090 197 q 935 88 1010 122 q 792 54 861 54 q 578 136 578 54 q 635 235 578 188 q 763 282 692 282 q 810 270 788 282 q 840 250 832 258 q 869 215 849 242 q 890 185 889 188 q 1000 269 954 207 q 1046 438 1046 332 q 854 721 1046 721 q 624 638 742 721 q 540 406 574 529 q 493 215 506 282 q 447 101 481 147 q 351 54 413 54 q 317 69 329 54 q 297 124 304 83 q 278 226 292 158 q 256 340 264 293 q 247 407 247 386 q 255 436 247 421 q 281 469 263 451 q 319 503 300 488 q 372 544 338 519 q 433 588 407 569 q 507 638 460 606 q 585 692 554 669 q 650 879 650 851 q 644 921 650 910 q 542 852 613 915 q 436 789 472 789 q 379 813 400 789 q 355 856 358 838 q 351 890 351 875 q 367 914 351 914 q 394 903 378 914 q 428 893 411 893 q 546 950 444 893 q 668 1007 647 1007 z "},"ゑ":{"ha":1389,"x_min":188,"x_max":1163,"o":"m 635 471 q 615 490 635 490 q 599 485 608 490 q 589 471 589 481 q 607 456 589 456 q 626 460 617 456 q 635 471 635 465 m 396 993 q 451 985 406 993 q 515 978 496 978 q 626 1008 538 978 q 736 1039 715 1039 q 822 1022 779 1039 q 864 982 864 1004 q 844 926 864 949 q 797 889 825 904 q 724 837 768 874 q 643 749 681 800 q 846 783 732 783 q 958 742 897 783 q 1018 629 1018 701 q 986 517 1018 568 q 910 437 954 465 q 828 392 867 408 q 768 376 789 376 q 650 381 683 376 q 460 199 579 336 q 533 167 486 199 q 610 135 581 135 q 641 156 617 135 q 694 202 665 176 q 772 249 724 228 q 871 269 821 269 q 1017 229 944 269 q 1126 147 1089 189 q 1163 89 1163 106 q 1133 17 1163 63 q 1089 -29 1104 -29 q 1040 -22 1078 -29 q 982 -14 1003 -14 q 896 -33 960 -14 q 828 -51 832 -51 q 801 -31 801 -51 q 828 -6 801 -18 q 888 15 856 6 q 948 47 921 25 q 975 99 975 68 q 942 180 975 138 q 871 222 910 222 q 785 185 824 222 q 725 101 746 147 q 676 18 704 56 q 618 -19 647 -19 q 560 5 583 -19 q 529 59 538 29 q 505 113 521 89 q 467 138 489 138 q 386 90 431 138 q 301 -4 342 43 q 232 -51 261 -51 q 203 -31 218 -51 q 188 17 188 -10 q 210 95 188 49 q 258 142 233 142 q 374 217 285 142 q 572 403 464 293 q 521 463 521 426 q 549 517 521 490 q 615 544 576 544 q 683 523 651 544 q 714 463 714 501 q 855 505 801 463 q 908 610 908 547 q 875 688 908 660 q 790 717 842 717 q 608 653 688 717 q 506 529 529 589 q 468 472 492 496 q 424 447 444 447 q 377 471 396 447 q 358 526 358 494 q 401 586 358 540 q 497 685 443 632 q 610 808 551 738 q 697 932 669 878 q 631 899 669 919 q 569 871 592 879 q 525 863 547 863 q 433 885 468 863 q 388 930 397 908 q 379 968 379 951 q 396 993 379 993 z "},"を":{"ha":1389,"x_min":239,"x_max":1153,"o":"m 299 931 q 303 953 299 944 q 313 965 308 963 q 321 968 317 968 q 338 960 325 968 q 374 945 350 953 q 432 938 399 938 q 511 953 490 938 q 518 986 518 981 q 492 1028 518 1011 q 458 1060 458 1050 q 469 1080 458 1071 q 489 1089 481 1089 q 543 1068 510 1089 q 585 1029 576 1047 q 626 1033 614 1033 q 686 999 686 1033 q 661 952 686 975 q 578 894 636 929 q 535 785 549 831 q 500 626 522 739 q 597 608 563 626 q 667 543 632 589 q 1010 792 839 792 q 1105 767 1057 792 q 1153 703 1153 742 q 1135 610 1153 646 q 1075 547 1118 574 q 906 463 1017 510 q 717 371 794 415 q 702 244 717 296 q 669 174 688 193 q 632 154 651 154 q 597 185 608 154 q 585 261 585 217 q 596 326 585 265 q 498 268 535 303 q 461 197 461 233 q 519 98 461 135 q 631 61 576 61 q 768 93 700 61 q 853 125 836 125 q 899 108 881 125 q 917 60 917 90 q 896 17 917 38 q 813 -19 875 -3 q 656 -36 751 -36 q 519 -17 581 -36 q 415 51 458 1 q 372 175 372 100 q 610 421 372 290 q 588 524 610 482 q 539 565 567 565 q 471 531 513 565 q 394 450 429 496 q 334 389 367 413 q 276 365 301 365 q 253 378 267 365 q 239 413 239 390 q 241 441 239 428 q 244 463 243 454 q 253 482 246 472 q 262 496 260 492 q 275 508 264 500 q 289 519 286 517 q 306 531 292 522 q 325 543 321 540 q 408 640 369 572 q 464 763 446 708 q 493 867 482 817 q 397 843 426 843 q 331 869 364 843 q 299 931 299 896 m 824 643 q 719 453 785 599 q 915 561 797 476 q 1032 696 1032 646 q 1017 727 1032 711 q 985 743 1003 743 q 824 643 910 743 z "},"ん":{"ha":1389,"x_min":196,"x_max":1193,"o":"m 707 886 q 648 817 700 878 q 572 726 596 756 q 508 640 549 697 q 439 533 468 583 q 658 617 546 617 q 794 572 746 617 q 843 454 843 526 q 827 325 843 406 q 811 221 811 244 q 890 150 811 150 q 969 172 929 150 q 1038 227 1010 194 q 1084 283 1067 260 q 1111 325 1101 307 q 1133 385 1122 347 q 1153 442 1144 422 q 1175 463 1161 463 q 1193 421 1193 463 q 1151 257 1193 346 q 1039 102 1110 168 q 896 36 968 36 q 758 83 806 36 q 711 169 711 129 q 727 288 711 211 q 743 404 743 365 q 710 508 743 464 q 642 551 676 551 q 536 522 597 551 q 446 457 475 492 q 314 56 314 300 q 311 46 314 51 q 299 34 308 40 q 275 28 289 28 q 217 62 238 28 q 196 150 196 96 q 265 344 196 192 q 419 642 335 497 q 508 781 457 707 q 585 893 560 854 q 610 953 610 932 q 593 996 610 971 q 576 1025 576 1021 q 581 1052 576 1044 q 600 1060 585 1060 q 686 1025 643 1060 q 713 975 699 1014 q 728 915 728 936 q 725 906 728 910 q 716 895 722 901 q 707 886 710 889 z "},"ゔ":{"ha":1389,"x_min":454,"x_max":1189,"o":"m 1189 821 q 1139 761 1189 761 q 1089 789 1099 761 q 1047 858 1075 832 q 1016 881 1036 869 q 989 899 996 892 q 975 925 975 913 q 1008 942 975 942 q 1122 906 1054 942 q 1189 821 1189 869 m 1058 735 q 1008 678 1058 678 q 958 704 967 678 q 917 774 944 747 q 885 796 906 785 q 858 814 865 807 q 844 840 844 828 q 878 858 844 858 q 991 821 924 858 q 1058 735 1058 783 m 836 526 q 807 638 836 607 q 718 669 778 669 q 672 653 690 669 q 627 622 653 638 q 554 606 601 606 q 481 631 508 606 q 454 693 454 657 q 497 711 454 711 q 528 708 506 711 q 564 706 551 706 q 641 728 576 706 q 728 750 706 750 q 881 677 824 750 q 939 528 939 604 q 899 281 939 378 q 781 117 858 185 q 633 22 721 64 q 499 -21 544 -21 q 474 -1 474 -21 q 547 47 474 18 q 638 103 592 65 q 731 200 685 142 q 807 344 778 258 q 836 526 836 431 m 747 918 q 688 906 717 917 q 643 886 660 896 q 622 876 626 876 q 607 892 607 876 q 624 924 607 904 q 640 953 640 943 q 586 982 640 958 q 532 1017 532 1006 q 718 1047 532 1047 q 790 1028 754 1047 q 825 990 825 1010 q 801 942 825 964 q 747 918 776 921 z "},"ゕ":{"ha":1389,"x_min":254,"x_max":1163,"o":"m 1138 384 q 1097 369 1126 377 q 1037 348 1068 362 q 1003 329 1026 344 q 959 302 979 314 q 935 291 939 291 q 926 297 930 291 q 921 309 921 302 q 937 338 921 323 q 976 369 954 354 q 1016 412 1001 385 q 1030 461 1030 439 q 1026 486 1030 474 q 1018 505 1022 498 q 1004 524 1015 512 q 988 540 993 536 q 967 557 983 543 q 948 573 951 571 q 926 588 943 577 q 901 607 908 599 q 894 624 894 615 q 919 640 894 640 q 1080 566 998 640 q 1161 426 1161 493 q 1138 384 1161 396 m 684 147 q 631 94 671 119 q 558 69 592 69 q 515 100 534 69 q 474 176 502 123 q 427 260 446 229 q 401 191 420 239 q 379 131 383 144 q 339 68 374 112 q 284 24 304 24 q 263 34 272 24 q 255 64 255 45 q 260 95 255 79 q 275 129 264 111 q 291 160 285 148 q 312 191 298 172 q 329 216 327 211 q 396 352 366 273 q 440 497 432 446 q 384 477 416 477 q 287 513 350 477 q 264 559 264 525 q 278 583 264 583 q 306 575 282 583 q 348 568 330 568 q 414 581 376 568 q 469 615 453 595 q 487 757 487 667 q 479 788 487 778 q 465 805 475 795 q 452 823 456 815 q 448 843 448 830 q 463 857 448 851 q 489 862 478 862 q 505 861 497 862 q 516 858 512 860 q 525 853 521 856 q 530 848 528 850 q 534 843 532 845 q 538 839 537 841 q 565 790 565 814 q 553 724 565 756 q 534 649 542 694 q 613 664 580 664 q 642 657 626 664 q 678 637 657 649 q 706 621 698 624 q 761 532 761 593 q 684 147 761 305 m 441 313 q 505 227 463 267 q 565 186 546 186 q 578 188 573 186 q 589 194 583 190 q 598 202 594 198 q 607 214 602 205 q 613 228 611 223 q 620 244 616 233 q 627 261 625 255 q 633 281 629 267 q 639 301 637 295 q 659 400 650 332 q 667 516 667 469 q 649 579 667 555 q 605 603 631 603 q 550 579 579 603 q 506 530 521 555 q 441 313 470 371 z "},"ゖ":{"ha":1389,"x_min":333,"x_max":1079,"o":"m 927 753 l 931 646 q 987 679 962 660 q 927 753 932 749 m 403 401 q 420 278 403 328 q 502 432 454 352 q 575 542 568 542 q 589 524 589 542 q 565 445 589 506 q 505 321 540 384 q 471 187 471 262 q 484 101 471 154 q 497 31 497 47 q 492 8 497 14 q 470 2 487 2 q 401 37 424 2 q 361 137 378 73 q 337 332 337 228 q 347 445 337 400 q 384 721 384 608 q 359 781 384 735 q 334 839 334 827 q 353 856 334 856 q 422 791 374 856 q 470 696 470 726 q 436 548 470 647 q 403 401 403 449 m 739 -13 q 666 -47 696 -47 q 649 -30 649 -47 q 651 -19 649 -24 q 660 -9 654 -15 q 671 0 666 -4 q 684 10 675 4 q 697 20 692 16 q 810 171 761 69 q 858 375 858 273 q 853 553 858 499 q 728 571 797 553 q 659 623 659 589 q 677 640 659 640 q 730 630 686 640 q 794 621 773 621 q 850 626 821 621 q 839 792 843 780 q 819 827 834 806 q 803 851 803 848 q 812 869 803 860 q 840 878 821 878 q 900 854 878 878 q 930 804 921 830 q 952 766 936 784 q 980 739 968 747 q 1031 719 1012 719 l 1032 719 q 1065 710 1052 719 q 1079 683 1079 701 q 1047 634 1079 655 q 935 578 1016 612 q 940 369 940 482 q 896 160 940 245 q 739 -13 851 75 z "},"゙":{"ha":0,"x_min":-428,"x_max":-83,"o":"m -83 944 q -133 885 -83 885 q -183 913 -174 885 q -225 982 -197 956 q -256 1004 -236 993 q -283 1022 -276 1015 q -297 1049 -297 1036 q -264 1065 -297 1065 q -151 1029 -218 1065 q -83 944 -83 993 m -214 858 q -264 801 -214 801 q -314 828 -306 801 q -356 897 -328 871 q -387 919 -367 908 q -414 938 -407 931 q -428 964 -428 951 q -394 982 -428 982 q -281 944 -349 982 q -214 858 -214 907 z "},"゚":{"ha":0,"x_min":-378,"x_max":-128,"o":"m -302 985 q -312 975 -302 985 q -322 936 -322 965 q -302 887 -322 907 q -253 867 -282 867 q -203 887 -224 867 q -183 936 -183 907 q -203 985 -183 965 q -253 1006 -224 1006 q -302 985 -282 1006 m -342 847 q -360 865 -342 847 q -378 936 -378 883 q -342 1025 -378 989 q -253 1061 -306 1061 q -164 1025 -200 1061 q -128 936 -128 989 q -164 847 -128 883 q -253 811 -200 811 q -342 847 -306 811 z "},"゛":{"ha":1389,"x_min":114,"x_max":458,"o":"m 458 944 q 408 885 458 885 q 358 913 368 885 q 317 982 344 956 q 285 1004 306 993 q 258 1022 265 1015 q 244 1049 244 1036 q 278 1065 244 1065 q 391 1029 324 1065 q 458 944 458 993 m 328 858 q 278 801 328 801 q 228 828 236 801 q 186 897 214 871 q 155 919 175 908 q 128 938 135 931 q 114 964 114 951 q 147 982 114 982 q 260 944 193 982 q 328 858 328 907 z "},"゜":{"ha":1389,"x_min":144,"x_max":394,"o":"m 220 985 q 210 975 220 985 q 200 936 200 965 q 220 887 200 907 q 269 867 240 867 q 319 887 299 867 q 339 936 339 907 q 319 985 339 965 q 269 1006 299 1006 q 220 985 240 1006 m 181 847 q 163 865 181 847 q 144 936 144 883 q 181 1025 144 989 q 269 1061 217 1061 q 358 1025 322 1061 q 394 936 394 989 q 358 847 394 883 q 269 811 322 811 q 181 847 217 811 z "},"ゝ":{"ha":1389,"x_min":525,"x_max":865,"o":"m 553 851 q 572 817 561 851 q 606 717 583 782 q 660 600 629 651 q 742 484 688 551 q 831 368 796 417 q 865 294 865 319 q 839 199 865 249 q 782 150 813 150 q 708 200 735 150 q 682 301 682 250 q 660 388 682 335 q 607 497 638 440 q 571 565 576 553 q 540 664 556 603 q 525 753 525 725 q 553 851 525 851 z "},"ゞ":{"ha":1389,"x_min":525,"x_max":1146,"o":"m 553 851 q 572 817 561 851 q 606 717 583 782 q 660 600 629 651 q 742 484 688 551 q 831 368 796 417 q 865 294 865 319 q 839 199 865 249 q 782 150 813 150 q 708 200 735 150 q 682 301 682 250 q 660 388 682 335 q 607 497 638 440 q 571 565 576 553 q 540 664 556 603 q 525 753 525 725 q 553 851 525 851 m 1146 621 q 1096 561 1146 561 q 1046 589 1056 561 q 1004 658 1032 632 q 973 681 993 669 q 946 699 953 692 q 932 725 932 713 q 965 742 932 742 q 1078 706 1011 742 q 1146 621 1146 669 m 1015 535 q 965 478 1015 478 q 915 504 924 478 q 874 574 901 547 q 842 596 863 585 q 815 614 822 607 q 801 640 801 628 q 835 658 801 658 q 948 621 881 658 q 1015 535 1015 583 z "},"ァ":{"ha":1389,"x_min":344,"x_max":1046,"o":"m 360 710 q 393 697 360 710 q 456 684 427 684 q 626 707 545 684 q 920 741 753 741 q 1000 714 954 741 q 1046 657 1046 686 q 1036 627 1046 636 q 1009 612 1026 617 q 946 589 992 606 q 849 542 900 571 q 791 516 832 532 q 725 487 749 499 q 653 264 686 323 q 542 126 608 184 q 448 69 475 69 q 435 81 435 69 q 471 143 435 116 q 531 208 499 165 q 583 290 564 252 q 653 543 653 426 q 642 577 653 563 q 620 594 632 590 q 597 604 607 598 q 587 618 587 610 q 591 635 587 628 q 513 615 521 618 q 439 600 473 600 q 382 631 420 600 q 344 675 344 661 q 360 710 344 710 m 735 529 q 789 557 768 543 q 848 611 822 580 q 874 655 874 642 q 831 677 874 677 q 630 645 771 677 q 706 618 672 639 q 741 573 741 597 q 735 529 741 561 z "},"ア":{"ha":1389,"x_min":288,"x_max":1103,"o":"m 306 858 q 344 843 306 858 q 417 828 383 828 q 615 854 521 828 q 957 894 763 894 q 1049 863 996 894 q 1103 796 1103 831 q 1092 761 1103 772 q 1060 744 1081 750 q 987 717 1040 738 q 874 663 933 696 q 806 632 854 651 q 731 599 758 613 q 646 339 685 408 q 517 179 594 246 q 408 113 439 113 q 393 126 393 113 q 435 199 393 167 q 505 274 467 224 q 565 369 543 325 q 646 664 646 528 q 634 703 646 688 q 608 723 622 718 q 581 735 593 728 q 569 751 569 742 q 574 771 569 763 q 483 747 493 751 q 397 731 438 731 q 331 766 375 731 q 288 817 288 801 q 306 858 288 858 m 742 647 q 804 681 781 664 q 873 743 843 707 q 903 794 903 779 q 853 819 903 819 q 619 782 783 819 q 708 751 668 775 q 749 699 749 726 q 742 647 749 685 z "},"ィ":{"ha":1389,"x_min":326,"x_max":883,"o":"m 736 518 q 749 512 739 517 q 763 506 759 507 q 776 500 767 504 q 788 493 784 495 q 799 486 792 491 q 809 477 806 481 q 815 469 811 474 q 820 459 819 464 q 821 448 821 454 q 818 429 821 445 q 812 385 815 413 q 809 331 809 358 q 813 205 809 297 q 816 81 816 113 q 800 38 816 61 q 766 15 784 15 q 720 42 736 15 q 704 93 704 69 q 711 193 704 122 q 718 292 717 265 q 721 425 721 344 q 700 475 721 460 q 343 225 405 225 q 327 239 327 225 q 360 278 327 252 q 463 360 393 304 q 593 480 532 417 q 688 600 635 523 q 742 709 742 678 q 724 724 742 712 q 706 751 706 737 q 724 771 706 761 q 763 782 741 782 q 843 751 802 782 q 883 695 883 720 q 862 663 883 686 q 803 597 841 640 q 736 518 764 554 z "},"イ":{"ha":1389,"x_min":267,"x_max":914,"o":"m 743 635 q 758 628 746 633 q 774 620 769 622 q 789 613 779 618 q 803 606 799 608 q 816 597 808 603 q 827 588 824 592 q 835 578 831 583 q 840 566 839 572 q 842 553 842 560 q 838 531 842 550 q 831 481 835 513 q 828 417 828 449 q 832 271 828 378 q 836 126 836 164 q 817 76 836 103 q 778 50 799 50 q 724 81 743 50 q 706 140 706 113 q 713 257 706 174 q 722 372 721 340 q 725 526 725 432 q 701 585 725 567 q 286 294 358 294 q 267 310 267 294 q 306 356 267 325 q 425 451 344 386 q 576 590 506 517 q 688 731 625 640 q 750 857 750 821 q 729 874 750 860 q 708 906 708 889 q 728 929 708 917 q 774 942 749 942 q 867 906 819 942 q 914 840 914 869 q 890 803 914 831 q 820 726 865 776 q 743 635 775 676 z "},"ゥ":{"ha":1389,"x_min":364,"x_max":1024,"o":"m 645 790 q 733 770 694 790 q 771 724 771 749 q 765 702 771 712 q 753 689 759 692 l 747 684 l 747 610 q 880 641 831 618 q 924 657 917 657 q 985 608 946 657 q 1023 543 1023 560 q 1013 512 1023 522 q 993 501 1004 501 q 949 451 970 501 q 730 163 869 274 q 551 55 649 96 q 411 14 452 14 q 379 31 379 14 q 417 58 379 43 q 585 150 508 96 q 711 256 661 203 q 795 365 760 310 q 844 466 829 420 q 859 544 859 511 q 800 560 828 560 q 681 550 766 560 q 544 540 595 540 q 567 444 549 498 q 571 434 568 439 q 577 423 575 428 q 579 408 579 417 q 561 360 579 384 q 519 335 544 335 q 491 361 509 335 q 472 407 472 387 q 474 423 472 413 q 476 436 476 432 q 439 546 476 495 q 365 583 365 553 q 389 610 365 595 q 430 626 413 626 q 489 610 441 626 q 557 595 537 595 q 612 596 588 595 q 644 600 636 598 l 653 603 q 657 660 657 616 q 644 712 657 684 q 617 740 631 740 q 606 750 606 740 q 618 778 606 765 q 645 790 630 790 z "},"ウ":{"ha":1389,"x_min":311,"x_max":1076,"o":"m 638 951 q 739 927 694 951 q 783 874 783 903 q 776 849 783 860 q 763 833 769 838 l 756 828 l 756 742 q 910 778 853 751 q 961 796 953 796 q 1032 740 988 796 q 1076 664 1076 683 q 1065 627 1076 639 q 1042 615 1054 615 q 990 557 1015 615 q 736 222 897 351 q 527 97 642 144 q 365 49 413 49 q 328 68 328 49 q 372 100 328 82 q 567 206 478 144 q 713 331 656 268 q 811 457 771 393 q 869 574 851 521 q 886 665 886 626 q 817 683 850 683 q 678 672 778 683 q 519 660 579 660 q 546 549 525 611 q 551 537 547 543 q 558 524 556 531 q 560 507 560 517 q 540 451 560 479 q 490 422 519 422 q 458 452 479 422 q 436 506 436 482 q 438 524 436 513 q 440 539 440 535 q 397 667 440 608 q 311 710 311 675 q 339 742 311 724 q 388 760 367 760 q 456 742 400 760 q 535 724 511 724 q 599 726 571 724 q 636 731 626 728 l 646 733 q 651 800 651 749 q 636 860 651 828 q 604 893 621 893 q 592 904 592 893 q 606 937 592 922 q 638 951 619 951 z "},"ェ":{"ha":1389,"x_min":285,"x_max":1103,"o":"m 412 547 q 416 551 412 547 q 429 555 421 555 q 469 552 438 555 q 521 548 500 548 q 650 564 558 548 q 763 590 741 580 q 850 609 808 609 q 918 593 881 609 q 956 548 956 578 q 919 516 956 516 q 895 517 911 516 q 868 519 878 519 q 757 507 843 519 q 773 462 773 486 q 764 446 773 456 q 736 332 749 431 q 890 342 839 342 q 949 351 925 342 q 994 360 973 360 q 1060 332 1018 360 q 1102 283 1102 303 q 1077 255 1102 271 q 1034 239 1052 239 q 945 251 1015 239 q 804 264 876 264 q 666 251 771 264 q 505 221 562 237 q 478 211 491 217 q 454 201 464 204 q 429 198 444 198 q 336 220 386 198 q 286 262 286 242 q 296 285 286 276 q 316 295 306 295 q 354 292 324 295 q 405 289 384 289 q 662 322 413 289 q 666 424 666 415 q 620 486 666 454 q 613 485 618 486 q 605 483 607 485 q 558 473 577 479 q 530 464 538 467 q 518 461 521 461 q 441 487 479 461 q 403 531 403 513 q 412 547 403 540 z "},"エ":{"ha":1389,"x_min":219,"x_max":1168,"o":"m 366 669 q 371 673 366 669 q 386 678 376 678 q 432 674 396 678 q 493 669 468 669 q 642 688 536 669 q 774 718 749 707 q 875 740 826 740 q 955 722 911 740 q 999 669 999 704 q 956 632 999 632 q 927 634 946 632 q 896 636 908 636 q 767 622 867 636 q 786 569 786 597 q 775 551 786 563 q 743 418 758 533 q 922 431 863 431 q 990 441 963 431 q 1043 451 1018 451 q 1119 418 1071 451 q 1168 361 1168 385 q 1139 328 1168 347 q 1089 310 1110 310 q 986 324 1067 310 q 822 339 906 339 q 662 324 783 339 q 474 289 540 308 q 442 277 458 285 q 415 266 426 269 q 386 263 403 263 q 278 288 336 263 q 219 338 219 314 q 231 364 219 353 q 254 375 243 375 q 299 372 264 375 q 358 368 333 368 q 657 407 367 368 q 661 525 661 515 q 608 597 661 560 q 599 597 606 597 q 590 594 593 596 q 535 582 558 589 q 503 572 513 575 q 489 568 493 568 q 400 599 444 568 q 356 650 356 629 q 366 669 356 660 z "},"ォ":{"ha":1389,"x_min":293,"x_max":1046,"o":"m 311 102 q 294 122 294 102 q 311 145 294 138 q 673 506 530 247 q 563 491 619 501 q 523 478 551 488 q 475 468 495 468 q 408 491 445 468 q 372 540 372 513 q 398 566 372 566 q 422 563 401 566 q 457 560 444 560 q 722 581 494 560 q 694 682 716 664 q 668 698 686 688 q 639 717 649 708 q 629 740 629 726 q 646 759 629 751 q 678 767 663 767 q 774 738 730 767 q 817 692 817 710 q 815 682 817 689 q 809 666 813 676 q 802 649 804 657 q 800 628 800 643 q 802 593 800 617 q 880 607 825 596 q 962 618 936 618 q 1010 608 993 618 q 1034 585 1023 599 q 1046 559 1046 571 q 1034 537 1046 548 q 1005 525 1022 525 q 921 536 962 536 q 804 525 909 536 q 825 194 813 296 q 831 147 826 181 q 835 104 835 113 q 810 64 835 90 q 757 37 785 37 q 727 55 735 37 q 712 99 718 73 q 692 139 705 126 q 671 158 684 149 q 650 173 659 167 q 642 184 642 179 q 687 196 642 196 q 729 193 710 196 q 734 296 734 231 q 729 423 734 353 q 577 252 650 322 q 452 153 505 182 q 367 113 399 124 q 311 102 335 102 z "},"オ":{"ha":1389,"x_min":229,"x_max":1103,"o":"m 249 151 q 229 174 229 151 q 249 201 229 193 q 669 621 503 319 q 542 603 607 615 q 495 588 528 600 q 439 576 463 576 q 362 603 404 576 q 319 660 319 629 q 350 690 319 690 q 378 687 353 690 q 418 683 403 683 q 726 708 461 683 q 694 825 719 804 q 663 844 685 832 q 630 866 642 856 q 618 893 618 876 q 638 915 618 906 q 675 924 658 924 q 787 891 736 924 q 838 838 838 858 q 835 826 838 833 q 827 807 832 818 q 819 788 822 796 q 817 763 817 781 q 819 722 817 750 q 910 738 846 725 q 1006 751 975 751 q 1061 739 1042 751 q 1090 713 1076 729 q 1103 682 1103 696 q 1089 656 1103 669 q 1056 643 1075 643 q 958 656 1006 656 q 822 643 944 656 q 846 258 832 376 q 853 203 847 243 q 858 153 858 164 q 829 106 858 138 q 767 75 800 75 q 732 96 742 75 q 715 148 722 117 q 692 194 707 179 q 667 216 682 206 q 643 233 653 226 q 633 246 633 240 q 686 260 633 260 q 735 257 713 260 q 740 376 740 301 q 735 524 740 443 q 558 326 643 407 q 413 210 474 244 q 314 164 351 176 q 249 151 276 151 z "},"カ":{"ha":1389,"x_min":268,"x_max":1094,"o":"m 379 689 q 403 682 383 689 q 454 675 422 675 q 654 683 514 675 q 660 789 660 728 q 630 840 660 815 q 600 871 600 864 q 612 892 600 886 q 657 899 624 899 q 760 877 707 899 q 813 811 813 856 q 799 781 813 793 q 785 767 785 769 q 776 692 782 726 q 919 719 899 704 q 986 746 954 746 q 1051 715 1008 746 q 1094 651 1094 683 q 1064 615 1094 631 q 1028 546 1042 604 q 1002 415 1014 488 q 975 311 990 342 q 896 214 944 253 q 819 175 847 175 q 764 260 781 175 q 747 281 760 274 q 724 295 735 285 q 713 311 713 306 q 733 331 713 331 q 764 326 742 331 q 796 322 786 322 q 860 354 832 322 q 901 434 888 386 q 920 525 914 482 q 926 603 926 568 q 917 638 926 628 q 889 647 908 647 q 767 636 860 647 q 572 253 718 399 q 417 140 506 186 q 285 94 329 94 q 268 115 268 94 q 285 141 268 124 q 319 167 303 158 q 516 332 424 214 q 643 621 608 450 q 501 596 517 604 q 463 583 476 583 q 395 611 435 583 q 356 660 356 639 q 379 689 356 689 z "},"ガ":{"ha":1389,"x_min":268,"x_max":1299,"o":"m 1299 900 q 1249 840 1299 840 q 1199 868 1208 840 q 1157 938 1185 911 q 1126 960 1146 949 q 1099 978 1106 971 q 1085 1004 1085 992 q 1118 1021 1085 1021 q 1231 985 1164 1021 q 1299 900 1299 949 m 1168 814 q 1118 757 1168 757 q 1068 783 1076 757 q 1026 853 1054 826 q 995 875 1015 864 q 968 893 975 886 q 954 919 954 907 q 988 938 954 938 q 1101 900 1033 938 q 1168 814 1168 863 m 379 689 q 403 682 383 689 q 454 675 422 675 q 654 683 514 675 q 660 789 660 728 q 630 840 660 815 q 600 871 600 864 q 612 892 600 886 q 657 899 624 899 q 760 877 707 899 q 813 811 813 856 q 799 781 813 793 q 785 767 785 769 q 776 692 782 726 q 919 719 899 704 q 986 746 954 746 q 1051 715 1008 746 q 1094 651 1094 683 q 1064 615 1094 631 q 1028 546 1042 604 q 1002 415 1014 488 q 975 311 990 342 q 896 214 944 253 q 819 175 847 175 q 764 260 781 175 q 747 281 760 274 q 724 295 735 285 q 713 311 713 306 q 733 331 713 331 q 764 326 742 331 q 796 322 786 322 q 860 354 832 322 q 901 434 888 386 q 920 525 914 482 q 926 603 926 568 q 917 638 926 628 q 889 647 908 647 q 767 636 860 647 q 572 253 718 399 q 417 140 506 186 q 285 94 329 94 q 268 115 268 94 q 285 141 268 124 q 319 167 303 158 q 516 332 424 214 q 643 621 608 450 q 501 596 517 604 q 463 583 476 583 q 395 611 435 583 q 356 660 356 639 q 379 689 356 689 z "},"キ":{"ha":1389,"x_min":357,"x_max":1086,"o":"m 533 910 q 633 899 593 910 q 672 872 672 889 q 667 850 672 860 q 661 835 661 840 l 685 753 q 778 783 760 776 q 804 796 789 788 q 830 810 819 804 q 844 815 840 815 q 901 786 863 815 q 939 740 939 757 q 906 710 939 710 q 875 712 899 710 q 842 714 851 714 q 704 682 808 714 q 716 642 708 667 q 729 599 724 618 q 739 567 735 581 q 742 553 740 563 q 746 539 744 543 q 939 593 925 586 q 997 619 989 619 q 1053 588 1021 619 q 1086 533 1086 557 q 1061 508 1086 508 q 1027 512 1047 508 q 994 515 1007 515 q 768 468 965 515 q 825 317 794 390 q 872 209 856 244 q 889 167 889 174 q 844 97 889 97 q 782 134 822 97 q 742 183 742 171 q 743 194 742 188 q 744 208 744 201 q 682 443 744 235 q 519 385 546 401 q 503 374 515 382 q 484 363 492 367 q 466 354 476 358 q 447 350 456 350 q 379 385 414 350 q 357 443 357 407 q 383 472 357 472 q 412 463 393 472 q 442 454 431 454 q 661 513 472 454 q 655 530 658 519 q 650 544 651 540 q 614 657 618 644 q 525 628 569 644 q 506 619 521 626 q 478 606 492 611 q 453 600 464 600 q 411 610 435 600 q 378 631 388 619 q 361 683 361 649 q 381 704 361 704 q 402 697 382 704 q 450 690 422 690 q 592 724 486 690 q 553 818 563 811 q 489 850 510 850 q 475 860 481 850 q 469 881 469 871 q 492 899 469 889 q 533 910 515 910 z "},"ギ":{"ha":1389,"x_min":357,"x_max":1244,"o":"m 1244 882 q 1194 822 1244 822 q 1144 850 1154 822 q 1103 919 1131 893 q 1072 942 1092 931 q 1044 960 1051 953 q 1031 986 1031 974 q 1064 1003 1031 1003 q 1177 967 1110 1003 q 1244 882 1244 931 m 1114 796 q 1064 739 1114 739 q 1014 765 1022 739 q 972 835 1000 808 q 941 857 961 846 q 914 875 921 868 q 900 901 900 889 q 933 919 900 919 q 1047 882 979 919 q 1114 796 1114 844 m 533 910 q 633 899 593 910 q 672 872 672 889 q 667 850 672 860 q 661 835 661 840 l 685 753 q 778 783 760 776 q 804 796 789 788 q 830 810 819 804 q 844 815 840 815 q 901 786 863 815 q 939 740 939 757 q 906 710 939 710 q 875 712 899 710 q 842 714 851 714 q 704 682 808 714 q 716 642 708 667 q 729 599 724 618 q 739 567 735 581 q 742 553 740 563 q 746 539 744 543 q 939 593 925 586 q 997 619 989 619 q 1053 588 1021 619 q 1086 533 1086 557 q 1061 508 1086 508 q 1027 512 1047 508 q 994 515 1007 515 q 768 468 965 515 q 825 317 794 390 q 872 209 856 244 q 889 167 889 174 q 844 97 889 97 q 782 134 822 97 q 742 183 742 171 q 743 194 742 188 q 744 208 744 201 q 682 443 744 235 q 519 385 546 401 q 503 374 515 382 q 484 363 492 367 q 466 354 476 358 q 447 350 456 350 q 379 385 414 350 q 357 443 357 407 q 383 472 357 472 q 412 463 393 472 q 442 454 431 454 q 661 513 472 454 q 655 530 658 519 q 650 544 651 540 q 614 657 618 644 q 525 628 569 644 q 506 619 521 626 q 478 606 492 611 q 453 600 464 600 q 411 610 435 600 q 378 631 388 619 q 361 683 361 649 q 381 704 361 704 q 402 697 382 704 q 450 690 422 690 q 592 724 486 690 q 553 818 563 811 q 489 850 510 850 q 475 860 481 850 q 469 881 469 871 q 492 899 469 889 q 533 910 515 910 z "},"ク":{"ha":1389,"x_min":253,"x_max":1106,"o":"m 839 776 q 917 785 900 776 q 929 796 919 788 q 946 810 939 804 q 961 820 953 815 q 976 825 969 825 q 1054 781 1003 825 q 1106 710 1106 736 q 1060 674 1106 697 q 1001 626 1015 650 q 783 375 925 500 q 501 176 640 250 q 278 101 361 101 q 253 115 253 101 q 271 142 253 133 q 645 386 475 244 q 875 649 815 528 q 885 672 881 661 q 894 697 890 683 q 901 718 899 710 l 807 718 l 736 713 q 665 637 706 676 q 582 561 624 597 l 540 524 q 449 455 500 486 q 375 424 399 424 q 354 436 354 424 q 433 531 354 450 q 590 699 511 611 q 668 819 668 786 q 639 854 668 835 q 610 878 610 874 q 686 917 610 917 q 761 890 728 917 q 794 846 794 863 q 782 781 794 801 q 839 776 819 776 z "},"グ":{"ha":1389,"x_min":253,"x_max":1332,"o":"m 1332 942 q 1282 882 1332 882 q 1232 910 1242 882 q 1190 979 1218 953 q 1159 1001 1179 990 q 1132 1019 1139 1013 q 1118 1046 1118 1033 q 1151 1063 1118 1063 q 1265 1026 1197 1063 q 1332 942 1332 990 m 1201 856 q 1151 799 1201 799 q 1101 825 1110 799 q 1060 894 1088 868 q 1028 917 1049 906 q 1001 935 1008 928 q 988 961 988 949 q 1021 979 988 979 q 1134 942 1067 979 q 1201 856 1201 904 m 839 776 q 917 785 900 776 q 929 796 919 788 q 946 810 939 804 q 961 820 953 815 q 976 825 969 825 q 1054 781 1003 825 q 1106 710 1106 736 q 1060 674 1106 697 q 1001 626 1015 650 q 783 375 925 500 q 501 176 640 250 q 278 101 361 101 q 253 115 253 101 q 271 142 253 133 q 645 386 475 244 q 875 649 815 528 q 885 672 881 661 q 894 697 890 683 q 901 718 899 710 l 807 718 l 736 713 q 665 637 706 676 q 582 561 624 597 l 540 524 q 449 455 500 486 q 375 424 399 424 q 354 436 354 424 q 433 531 354 450 q 590 699 511 611 q 668 819 668 786 q 639 854 668 835 q 610 878 610 874 q 686 917 610 917 q 761 890 728 917 q 794 846 794 863 q 782 781 794 801 q 839 776 819 776 z "},"ケ":{"ha":1389,"x_min":310,"x_max":1079,"o":"m 672 839 q 663 801 672 825 q 644 759 653 776 q 633 742 635 742 l 628 736 q 619 723 624 731 q 614 710 614 715 q 632 693 614 700 q 671 686 650 686 q 888 732 847 707 q 903 751 894 736 q 922 767 911 767 q 1004 751 954 767 q 1058 725 1054 735 q 1079 685 1079 708 q 1071 660 1079 672 q 1055 643 1063 649 q 1044 638 1047 638 q 1028 640 1042 638 q 990 644 1014 642 q 936 646 965 646 q 899 645 918 646 q 867 643 881 644 q 843 640 854 642 q 825 639 832 639 l 819 638 q 810 632 810 638 q 835 604 810 631 q 861 550 860 578 q 847 506 861 546 q 807 408 833 467 q 756 310 781 349 q 706 250 738 282 q 650 199 674 218 q 624 179 626 179 q 612 171 622 179 q 590 153 601 163 q 576 143 579 144 q 516 109 550 124 q 461 90 482 94 l 439 86 l 436 86 q 411 100 411 86 q 437 135 411 113 q 493 181 463 158 q 528 208 524 203 q 540 220 531 211 q 556 236 549 229 q 564 244 564 243 q 582 264 564 246 q 600 283 600 282 q 672 374 660 344 l 693 407 q 706 430 697 407 q 722 488 714 453 q 729 551 729 524 q 724 589 729 579 l 715 608 q 710 617 713 614 q 707 619 708 619 l 706 621 q 681 634 706 628 q 631 640 657 640 q 569 621 585 640 q 515 572 560 611 q 465 532 469 532 q 458 526 464 532 l 451 521 q 432 508 450 521 q 413 494 414 494 l 379 472 q 318 450 346 450 q 310 460 310 450 q 317 482 310 468 q 333 503 317 483 q 372 547 350 524 q 406 578 394 571 q 501 704 471 636 q 508 715 503 708 q 514 725 514 721 q 538 782 538 781 q 547 835 547 807 q 542 865 547 851 q 531 884 536 878 q 525 892 525 890 q 536 912 525 901 q 567 922 547 922 q 578 921 574 922 q 607 906 596 913 q 621 897 618 899 q 625 894 624 894 q 642 884 633 894 q 651 871 651 874 l 661 861 q 672 839 672 850 z "},"ゲ":{"ha":1389,"x_min":261,"x_max":1289,"o":"m 467 647 q 489 674 467 649 q 534 740 511 700 q 557 817 557 781 q 538 840 557 821 q 518 860 518 858 q 517 864 518 861 l 515 867 l 514 868 l 514 869 q 553 892 514 892 q 588 888 568 892 q 619 881 607 883 l 632 876 q 643 869 636 876 l 656 858 q 665 840 665 849 q 671 832 667 840 q 676 824 675 824 q 683 797 683 808 q 681 781 683 790 q 674 766 678 772 q 671 758 671 760 l 657 746 q 629 715 643 733 q 615 685 615 697 q 642 667 628 667 q 810 674 714 671 q 839 678 829 674 q 858 682 849 682 q 906 703 874 682 l 938 724 l 943 726 q 958 732 949 729 q 975 735 967 735 q 1021 726 993 735 q 1053 718 1049 718 q 1056 715 1056 718 q 1088 703 1085 703 q 1103 694 1092 703 q 1114 685 1114 686 q 1122 658 1122 676 q 1119 642 1122 649 q 1113 633 1117 635 q 1108 631 1110 631 l 1094 622 q 1058 615 1082 615 q 1006 619 1042 615 q 944 624 969 624 q 863 617 915 624 q 853 610 853 613 l 853 607 l 867 586 l 869 585 q 876 581 874 583 l 888 571 q 911 525 911 556 q 904 510 911 518 q 897 497 897 501 l 849 438 l 829 400 l 751 293 q 747 287 751 292 q 738 277 743 282 q 731 269 732 272 q 722 254 726 263 q 719 249 721 249 l 689 215 q 687 213 689 214 q 678 209 685 213 q 664 197 672 206 l 654 186 q 631 167 654 183 q 606 150 608 150 q 532 115 540 122 q 523 109 528 111 q 516 107 518 107 q 514 106 514 107 q 499 97 514 104 q 479 89 483 89 q 471 83 476 89 l 465 79 q 458 74 464 79 q 447 67 453 69 q 343 38 386 38 q 319 50 319 38 q 324 62 319 56 q 331 72 328 68 q 336 75 335 75 q 344 80 338 75 q 351 86 351 85 q 406 119 351 89 q 463 150 461 150 q 492 167 468 150 q 538 204 517 183 q 578 240 554 221 q 614 272 601 260 q 626 289 626 283 l 638 310 l 671 344 l 728 442 q 738 460 728 443 q 759 501 749 478 q 769 539 769 524 q 767 544 769 542 q 765 551 765 547 q 747 579 765 563 q 718 596 729 596 q 703 599 717 596 q 665 604 689 601 q 618 607 642 607 q 593 606 604 607 q 574 605 582 606 q 560 601 567 604 q 551 598 554 599 q 544 592 547 597 q 539 585 540 586 q 534 575 538 583 q 529 565 531 567 q 519 552 528 561 q 508 543 511 543 q 490 530 504 543 q 456 496 476 517 q 421 463 436 475 l 315 393 q 303 388 314 393 q 293 381 293 382 q 286 379 293 379 q 261 399 261 379 q 296 442 261 414 q 332 474 331 471 l 353 503 q 373 519 357 503 q 389 543 389 536 q 394 550 390 543 l 400 557 q 408 563 403 557 q 414 569 414 568 q 422 584 414 572 q 439 606 431 596 l 446 615 q 453 628 447 622 l 457 633 q 461 642 457 636 l 467 647 m 1185 811 q 1161 767 1185 782 q 1115 751 1138 751 q 1081 776 1100 751 q 1048 828 1063 801 q 1032 854 1033 854 q 975 915 975 889 q 1007 932 975 932 q 1036 926 1018 932 q 1060 921 1054 921 q 1075 915 1061 921 l 1089 907 q 1099 906 1092 906 q 1118 899 1100 906 q 1139 892 1136 892 q 1152 880 1142 892 q 1174 848 1163 868 q 1185 811 1185 828 m 1289 885 q 1273 851 1289 861 q 1244 840 1257 840 q 1183 896 1207 840 q 1152 940 1172 924 q 1119 964 1132 957 q 1106 978 1106 971 q 1160 997 1106 997 q 1183 996 1172 997 q 1200 993 1193 994 q 1212 990 1207 992 q 1219 986 1217 988 l 1222 985 q 1241 976 1226 985 q 1272 944 1256 968 q 1289 885 1289 919 z "},"コ":{"ha":1389,"x_min":361,"x_max":1028,"o":"m 1028 607 q 1015 570 1028 585 q 989 553 1003 556 l 976 549 q 947 526 969 549 q 908 408 908 424 l 908 389 q 931 374 908 379 q 968 347 953 368 q 976 331 976 338 q 975 326 976 329 q 974 319 974 324 q 969 311 974 317 q 956 298 965 306 q 933 288 946 290 l 917 285 l 911 283 q 884 292 904 283 q 846 300 864 300 q 819 296 836 300 q 766 289 800 292 q 706 285 732 286 q 675 281 679 283 l 631 272 q 540 258 586 265 q 489 251 494 251 q 458 258 472 251 q 433 265 444 265 q 403 281 426 265 q 379 308 379 297 q 381 320 379 314 q 394 336 382 326 q 426 346 406 346 q 458 342 439 346 q 481 339 478 339 l 483 339 l 556 343 q 677 355 563 344 q 808 372 792 365 q 816 374 811 374 q 823 376 821 374 q 828 384 825 378 q 835 406 832 390 q 840 446 838 421 l 854 543 q 856 563 854 547 q 857 583 857 578 q 853 594 857 592 q 833 597 849 597 q 792 594 817 597 q 747 589 767 592 l 729 586 q 708 583 717 586 q 692 581 700 581 q 617 575 672 579 q 522 567 561 571 q 458 556 482 563 q 442 551 450 551 q 396 568 438 551 q 374 594 386 572 q 361 636 361 617 q 366 654 361 647 q 375 663 371 661 q 382 665 379 665 q 394 660 388 665 q 407 656 401 656 q 569 651 450 651 q 803 669 779 651 q 855 690 817 682 q 894 699 893 697 l 897 699 q 936 687 908 699 q 986 664 964 675 l 1007 653 l 1025 639 l 1025 636 q 1026 624 1025 633 q 1028 607 1028 614 z "},"ゴ":{"ha":1389,"x_min":338,"x_max":1306,"o":"m 965 468 q 935 408 958 468 q 913 339 913 349 q 933 320 913 328 q 973 299 953 313 q 993 261 993 286 q 982 228 993 243 q 964 213 971 213 l 953 213 q 931 210 944 213 q 899 207 917 207 q 858 210 885 207 q 817 214 832 214 l 675 203 q 646 195 660 197 q 614 192 632 193 q 583 189 596 190 q 560 184 576 188 q 536 181 544 181 q 517 176 528 181 q 499 171 506 171 q 467 185 483 171 q 446 201 451 199 q 397 244 429 210 l 396 254 q 394 272 394 263 q 411 300 394 300 l 414 300 q 433 294 418 300 q 476 284 447 289 q 543 279 504 279 q 701 296 600 279 l 772 307 q 790 312 778 307 q 803 318 803 317 q 851 436 851 403 q 857 484 851 443 q 863 539 863 525 q 858 556 863 544 q 854 575 854 567 q 848 581 854 576 q 839 586 842 586 q 826 588 835 586 q 807 590 817 590 q 779 588 796 590 q 745 580 763 585 q 724 575 728 575 l 683 571 q 669 567 683 567 q 613 559 646 567 q 563 551 579 551 q 528 547 547 551 q 499 536 510 542 l 488 532 l 478 524 q 461 515 469 515 q 446 518 454 515 q 432 524 438 521 l 426 526 q 408 535 425 528 q 376 549 390 542 q 350 574 363 557 q 338 614 338 592 q 358 651 338 651 q 363 651 361 651 q 367 649 365 650 q 377 645 368 647 q 400 642 386 643 q 415 637 410 640 q 446 632 419 633 l 493 628 q 643 647 576 633 q 746 663 710 660 q 800 667 774 664 q 840 672 826 669 q 853 675 853 674 q 863 678 853 676 q 888 684 874 681 q 908 692 903 688 q 919 696 914 696 q 927 695 921 696 q 939 694 933 694 q 969 675 943 694 q 1024 622 996 656 q 1051 560 1051 589 q 1049 554 1051 554 q 1036 538 1049 547 q 1007 519 1024 529 q 985 503 990 508 q 976 490 981 499 q 968 475 971 481 l 965 468 m 979 789 q 987 806 979 797 q 1013 815 994 815 q 1035 813 1022 815 q 1057 807 1049 810 q 1067 804 1065 804 q 1128 783 1089 804 q 1143 772 1135 779 q 1156 760 1151 765 q 1161 753 1161 754 q 1190 688 1190 715 q 1186 661 1190 661 l 1181 654 q 1167 641 1176 647 q 1147 635 1158 635 q 1127 640 1135 635 q 1110 655 1119 644 q 1090 672 1101 665 q 1074 693 1086 675 q 1060 714 1063 711 q 1047 722 1057 717 q 1032 735 1038 728 q 1011 755 1025 743 q 988 776 997 767 q 979 789 979 785 m 1299 815 q 1302 797 1299 811 q 1306 774 1306 783 q 1305 762 1306 768 q 1303 750 1304 756 l 1303 746 q 1287 729 1303 740 q 1256 718 1271 718 q 1197 749 1232 718 q 1189 765 1192 753 q 1182 782 1186 776 q 1169 792 1178 788 q 1153 807 1160 797 q 1128 825 1139 825 q 1121 829 1125 825 q 1114 833 1117 833 q 1108 835 1111 833 q 1100 839 1106 836 q 1088 844 1094 842 q 1072 852 1078 849 q 1063 858 1065 856 q 1058 860 1060 860 q 1056 861 1057 861 q 1050 865 1053 861 q 1047 872 1047 869 q 1056 883 1047 875 q 1068 892 1065 892 q 1140 885 1096 892 q 1199 879 1185 879 q 1245 860 1228 869 q 1265 847 1263 851 q 1270 840 1268 842 q 1276 838 1272 838 q 1289 828 1279 838 q 1299 815 1299 818 z "},"サ":{"ha":1389,"x_min":221,"x_max":1169,"o":"m 256 692 q 319 683 283 692 q 372 675 354 675 q 535 685 417 675 q 472 810 522 803 q 457 838 457 814 q 506 865 457 865 q 581 836 531 865 q 631 790 631 807 q 628 693 631 763 q 694 698 636 693 q 782 706 751 703 q 783 779 783 729 q 769 851 783 822 q 740 890 756 881 q 710 912 724 900 q 696 938 696 924 q 701 951 696 947 q 725 956 707 956 q 831 914 754 956 q 908 846 908 872 q 903 807 908 824 q 897 783 897 790 q 896 718 897 739 q 1000 731 964 725 q 1023 740 1013 732 q 1044 747 1033 747 q 1132 722 1094 747 q 1169 669 1169 697 q 1110 625 1169 625 q 1035 631 1094 625 q 949 638 975 638 q 889 636 913 638 q 851 463 878 543 q 794 331 824 383 q 714 225 765 279 q 628 142 663 171 q 532 67 593 113 q 485 50 510 50 q 465 68 465 50 q 477 89 465 78 q 506 113 489 100 q 528 131 524 126 q 703 347 646 243 q 778 632 761 450 q 629 622 669 625 q 633 549 631 600 q 635 489 635 497 q 620 447 635 471 q 592 424 606 424 q 540 533 540 424 q 539 615 540 590 q 361 585 385 601 q 336 574 346 574 q 269 603 318 574 q 221 657 221 633 q 227 684 221 676 q 256 692 233 692 z "},"ザ":{"ha":1389,"x_min":221,"x_max":1279,"o":"m 1279 956 q 1229 896 1279 896 q 1179 924 1189 896 q 1138 993 1165 967 q 1106 1015 1126 1004 q 1079 1033 1086 1026 q 1065 1060 1065 1047 q 1099 1076 1065 1076 q 1212 1040 1144 1076 q 1279 956 1279 1004 m 1149 869 q 1099 813 1149 813 q 1049 839 1057 813 q 1007 908 1035 882 q 976 931 996 919 q 949 949 956 942 q 935 975 935 963 q 968 993 935 993 q 1081 956 1014 993 q 1149 869 1149 918 m 256 692 q 319 683 283 692 q 372 675 354 675 q 535 685 417 675 q 472 810 522 803 q 457 838 457 814 q 506 865 457 865 q 581 836 531 865 q 631 790 631 807 q 628 693 631 763 q 694 698 636 693 q 782 706 751 703 q 783 779 783 729 q 769 851 783 822 q 740 890 756 881 q 710 912 724 900 q 696 938 696 924 q 701 951 696 947 q 725 956 707 956 q 831 914 754 956 q 908 846 908 872 q 903 807 908 824 q 897 783 897 790 q 896 718 897 739 q 1000 731 964 725 q 1023 740 1013 732 q 1044 747 1033 747 q 1132 722 1094 747 q 1169 669 1169 697 q 1110 625 1169 625 q 1035 631 1094 625 q 949 638 975 638 q 889 636 913 638 q 851 463 878 543 q 794 331 824 383 q 714 225 765 279 q 628 142 663 171 q 532 67 593 113 q 485 50 510 50 q 465 68 465 50 q 477 89 465 78 q 506 113 489 100 q 528 131 524 126 q 703 347 646 243 q 778 632 761 450 q 629 622 669 625 q 633 549 631 600 q 635 489 635 497 q 620 447 635 471 q 592 424 606 424 q 540 533 540 424 q 539 615 540 590 q 361 585 385 601 q 336 574 346 574 q 269 603 318 574 q 221 657 221 633 q 227 684 221 676 q 256 692 233 692 z "},"シ":{"ha":1389,"x_min":275,"x_max":1114,"o":"m 358 311 q 395 294 364 311 q 454 276 426 276 q 703 424 510 276 q 1050 760 897 571 q 1058 774 1054 765 q 1065 787 1063 782 q 1075 795 1068 792 q 1094 799 1082 799 q 1114 778 1114 799 q 1050 643 1114 724 q 713 306 910 467 q 432 144 517 144 q 363 174 403 144 q 324 244 324 203 q 358 311 324 311 m 342 589 q 442 567 392 589 q 492 503 492 544 q 428 435 492 435 q 378 471 410 435 q 315 518 346 507 q 275 558 275 531 q 294 580 275 571 q 342 589 314 589 m 436 844 q 560 817 494 844 q 625 736 625 790 q 612 678 625 694 q 565 661 599 661 q 533 677 546 661 q 492 723 519 693 q 422 776 465 753 q 400 790 407 785 q 387 805 393 796 q 381 826 381 814 q 436 844 381 844 z "},"ジ":{"ha":1389,"x_min":275,"x_max":1114,"o":"m 1099 924 q 1049 864 1099 864 q 999 892 1008 864 q 957 961 985 935 q 926 983 946 972 q 899 1001 906 994 q 885 1028 885 1015 q 918 1044 885 1044 q 1031 1008 964 1044 q 1099 924 1099 972 m 968 838 q 918 781 968 781 q 868 807 876 781 q 826 876 854 850 q 795 899 815 888 q 768 917 775 910 q 754 943 754 931 q 788 961 754 961 q 901 924 833 961 q 968 838 968 886 m 358 311 q 395 294 364 311 q 454 276 426 276 q 703 424 510 276 q 1050 760 897 571 q 1058 774 1054 765 q 1065 787 1063 782 q 1075 795 1068 792 q 1094 799 1082 799 q 1114 778 1114 799 q 1050 643 1114 724 q 713 306 910 467 q 432 144 517 144 q 363 174 403 144 q 324 244 324 203 q 358 311 324 311 m 342 589 q 442 567 392 589 q 492 503 492 544 q 428 435 492 435 q 378 471 410 435 q 315 518 346 507 q 275 558 275 531 q 294 580 275 571 q 342 589 314 589 m 436 844 q 560 817 494 844 q 625 736 625 790 q 612 678 625 694 q 565 661 599 661 q 533 677 546 661 q 492 723 519 693 q 422 776 465 753 q 400 790 407 785 q 387 805 393 796 q 381 826 381 814 q 436 844 381 844 z "},"ス":{"ha":1389,"x_min":232,"x_max":1101,"o":"m 488 761 q 501 754 494 761 q 569 738 518 738 q 711 753 611 738 q 826 778 811 768 q 879 792 850 792 q 962 766 910 792 q 1014 713 1014 740 q 997 676 1014 694 q 961 647 979 657 l 944 639 q 843 501 897 564 q 994 442 926 458 q 1072 398 1043 431 q 1101 321 1101 365 q 1025 256 1101 256 q 973 277 1003 256 q 936 332 943 299 q 897 383 932 347 q 804 460 863 419 q 674 354 756 411 q 456 247 581 290 q 268 204 331 204 q 232 228 232 204 q 250 247 232 239 q 325 276 268 256 q 552 383 451 321 q 706 503 653 446 q 787 603 760 560 q 814 667 814 646 q 761 699 814 699 q 658 675 742 699 q 556 651 575 651 q 488 680 514 651 q 463 731 463 708 q 470 753 463 744 q 488 761 478 761 z "},"ズ":{"ha":1389,"x_min":232,"x_max":1338,"o":"m 1338 879 q 1288 819 1338 819 q 1238 847 1247 819 q 1196 917 1224 890 q 1165 939 1185 928 q 1138 957 1144 950 q 1124 983 1124 971 q 1157 1000 1124 1000 q 1270 964 1203 1000 q 1338 879 1338 928 m 1207 793 q 1157 736 1207 736 q 1107 763 1115 736 q 1065 832 1093 806 q 1034 854 1054 843 q 1007 872 1014 865 q 993 899 993 886 q 1026 917 993 917 q 1140 879 1072 917 q 1207 793 1207 842 m 488 761 q 501 754 494 761 q 569 738 518 738 q 711 753 611 738 q 826 778 811 768 q 879 792 850 792 q 962 766 910 792 q 1014 713 1014 740 q 997 676 1014 694 q 961 647 979 657 l 944 639 q 843 501 897 564 q 994 442 926 458 q 1072 398 1043 431 q 1101 321 1101 365 q 1025 256 1101 256 q 973 277 1003 256 q 936 332 943 299 q 897 383 932 347 q 804 460 863 419 q 674 354 756 411 q 456 247 581 290 q 268 204 331 204 q 232 228 232 204 q 250 247 232 239 q 325 276 268 256 q 552 383 451 321 q 706 503 653 446 q 787 603 760 560 q 814 667 814 646 q 761 699 814 699 q 658 675 742 699 q 556 651 575 651 q 488 680 514 651 q 463 731 463 708 q 470 753 463 744 q 488 761 478 761 z "},"セ":{"ha":1389,"x_min":258,"x_max":1108,"o":"m 557 886 q 658 846 599 886 q 717 782 717 806 q 710 757 717 769 q 691 728 704 744 q 674 704 678 711 q 656 613 663 686 q 781 644 738 631 q 803 651 792 647 q 822 658 815 656 q 838 662 829 660 q 851 666 846 664 q 861 669 856 668 q 870 673 867 671 q 876 676 874 675 q 881 680 879 678 q 885 683 883 682 q 889 688 888 685 q 894 694 890 689 q 899 703 897 700 q 905 710 901 706 q 911 716 908 714 q 919 719 914 718 q 928 721 924 721 q 1035 703 1004 721 q 1101 622 1101 663 q 1088 591 1101 600 q 1042 576 1074 582 q 891 465 1029 575 q 739 354 753 354 q 719 369 719 354 q 751 419 719 385 q 815 499 781 453 q 869 574 850 544 l 889 603 q 651 550 758 574 q 647 401 647 472 q 665 290 647 326 q 728 253 682 253 q 876 283 765 253 q 1003 313 988 313 q 1073 295 1038 313 q 1108 246 1108 278 q 1054 174 1108 188 q 916 164 1039 169 q 738 158 793 158 q 572 246 586 158 q 563 531 568 274 q 517 521 525 522 q 401 493 433 508 q 368 478 374 478 q 295 515 332 478 q 258 568 258 551 q 272 585 258 578 q 296 592 286 592 l 342 581 q 410 571 386 571 q 560 592 450 571 q 542 742 553 706 q 503 789 531 779 q 483 797 489 794 q 470 803 476 799 q 462 815 464 808 q 460 831 460 821 q 493 865 460 843 q 557 886 526 886 z "},"ゼ":{"ha":1389,"x_min":258,"x_max":1267,"o":"m 1267 881 q 1217 821 1267 821 q 1167 849 1176 821 q 1125 918 1153 892 q 1094 940 1114 929 q 1067 958 1074 951 q 1053 985 1053 972 q 1086 1001 1053 1001 q 1199 965 1132 1001 q 1267 881 1267 929 m 1136 794 q 1086 738 1136 738 q 1036 764 1044 738 q 994 833 1022 807 q 963 856 983 844 q 936 874 943 867 q 922 900 922 888 q 956 918 922 918 q 1069 881 1001 918 q 1136 794 1136 843 m 557 886 q 658 846 599 886 q 717 782 717 806 q 710 757 717 769 q 691 728 704 744 q 674 704 678 711 q 656 613 663 686 q 781 644 738 631 q 803 651 792 647 q 822 658 815 656 q 838 662 829 660 q 851 666 846 664 q 861 669 856 668 q 870 673 867 671 q 876 676 874 675 q 881 680 879 678 q 885 683 883 682 q 889 688 888 685 q 894 694 890 689 q 899 703 897 700 q 905 710 901 706 q 911 716 908 714 q 919 719 914 718 q 928 721 924 721 q 1035 703 1004 721 q 1101 622 1101 663 q 1088 591 1101 600 q 1042 576 1074 582 q 891 465 1029 575 q 739 354 753 354 q 719 369 719 354 q 751 419 719 385 q 815 499 781 453 q 869 574 850 544 l 889 603 q 651 550 758 574 q 647 401 647 472 q 665 290 647 326 q 728 253 682 253 q 876 283 765 253 q 1003 313 988 313 q 1073 295 1038 313 q 1108 246 1108 278 q 1054 174 1108 188 q 916 164 1039 169 q 738 158 793 158 q 572 246 586 158 q 563 531 568 274 q 517 521 525 522 q 401 493 433 508 q 368 478 374 478 q 295 515 332 478 q 258 568 258 551 q 272 585 258 578 q 296 592 286 592 l 342 581 q 410 571 386 571 q 560 592 450 571 q 542 742 553 706 q 503 789 531 779 q 483 797 489 794 q 470 803 476 799 q 462 815 464 808 q 460 831 460 821 q 493 865 460 843 q 557 886 526 886 z "},"ソ":{"ha":1389,"x_min":331,"x_max":1057,"o":"m 864 864 q 999 828 942 864 q 1057 756 1057 793 q 1028 692 1057 726 q 994 640 1001 660 q 890 446 957 536 q 751 299 822 356 q 607 202 681 243 q 481 144 533 161 q 400 126 428 126 q 377 133 385 126 q 369 144 369 139 q 411 192 369 174 q 622 325 526 243 q 772 488 718 407 q 855 638 826 569 q 883 749 883 707 q 864 797 883 782 q 848 822 856 804 q 840 846 840 839 q 847 858 840 853 q 864 864 854 864 m 378 783 q 565 732 474 783 q 603 694 588 719 q 619 640 619 668 q 613 606 619 622 q 600 583 607 590 q 589 575 593 575 q 479 633 528 575 q 353 744 399 731 q 331 765 331 751 q 378 783 331 783 z "},"ゾ":{"ha":1389,"x_min":331,"x_max":1310,"o":"m 1310 997 q 1260 938 1310 938 q 1210 965 1219 938 q 1168 1035 1196 1008 q 1137 1057 1157 1046 q 1110 1075 1117 1068 q 1096 1101 1096 1089 q 1129 1118 1096 1118 q 1242 1082 1175 1118 q 1310 997 1310 1046 m 1179 911 q 1129 854 1179 854 q 1079 881 1088 854 q 1038 950 1065 924 q 1006 972 1026 961 q 979 990 986 983 q 965 1017 965 1004 q 999 1035 965 1035 q 1112 997 1044 1035 q 1179 911 1179 960 m 864 864 q 999 828 942 864 q 1057 756 1057 793 q 1028 692 1057 726 q 994 640 1001 660 q 890 446 957 536 q 751 299 822 356 q 607 202 681 243 q 481 144 533 161 q 400 126 428 126 q 377 133 385 126 q 369 144 369 139 q 411 192 369 174 q 622 325 526 243 q 772 488 718 407 q 855 638 826 569 q 883 749 883 707 q 864 797 883 782 q 848 822 856 804 q 840 846 840 839 q 847 858 840 853 q 864 864 854 864 m 378 783 q 565 732 474 783 q 603 694 588 719 q 619 640 619 668 q 613 606 619 622 q 600 583 607 590 q 589 575 593 575 q 479 633 528 575 q 353 744 399 731 q 331 765 331 751 q 378 783 331 783 z "},"タ":{"ha":1389,"x_min":229,"x_max":1111,"o":"m 667 597 q 682 611 667 611 q 746 593 706 611 q 804 569 797 574 q 842 616 832 603 q 867 656 851 629 q 903 726 882 683 q 732 749 879 749 q 568 595 685 693 q 415 476 451 497 q 350 449 363 449 q 338 453 344 449 q 332 464 332 458 q 372 517 332 492 q 551 676 451 567 q 650 842 650 786 q 636 885 650 860 q 622 919 622 911 q 679 953 622 953 q 739 921 706 953 q 772 867 772 889 q 764 814 772 828 q 808 806 771 813 q 860 800 844 800 q 922 808 897 800 q 956 824 947 815 q 973 841 964 833 q 993 849 982 849 q 1071 801 1031 849 q 1111 732 1111 754 q 1097 712 1111 721 q 1058 692 1083 703 q 1021 674 1033 681 q 888 515 951 593 q 969 393 969 447 q 900 304 969 304 q 819 385 860 304 q 811 403 817 390 q 804 422 806 417 q 522 201 694 303 q 357 124 444 156 q 244 92 269 92 q 229 108 229 92 q 248 136 229 125 q 321 172 267 147 q 424 226 375 197 q 506 278 468 253 q 574 329 543 304 q 626 373 604 354 q 669 415 647 392 q 701 449 692 438 q 729 482 711 460 q 750 507 747 504 q 710 551 732 532 q 678 580 689 571 q 667 597 667 589 z "},"ダ":{"ha":1389,"x_min":156,"x_max":1315,"o":"m 1315 900 q 1265 840 1315 840 q 1215 868 1225 840 q 1174 938 1201 911 q 1142 960 1163 949 q 1115 978 1122 971 q 1101 1004 1101 992 q 1135 1021 1101 1021 q 1248 985 1181 1021 q 1315 900 1315 949 m 1185 814 q 1135 757 1185 757 q 1085 783 1093 757 q 1043 853 1071 826 q 1012 875 1032 864 q 985 893 992 886 q 971 919 971 907 q 1004 938 971 938 q 1117 900 1050 938 q 1185 814 1185 863 m 593 560 q 608 574 593 574 q 672 556 632 574 q 731 532 724 536 q 768 578 758 565 q 793 619 778 592 q 829 689 808 646 q 658 711 806 711 q 494 558 611 656 q 342 439 378 460 q 276 411 289 411 q 265 416 271 411 q 258 426 258 421 q 299 479 258 454 q 477 639 378 529 q 576 804 576 749 q 563 848 576 822 q 549 882 549 874 q 606 915 549 915 q 665 883 632 915 q 699 829 699 851 q 690 776 699 790 q 734 769 697 775 q 786 763 771 763 q 849 770 824 763 q 882 787 874 778 q 899 803 890 796 q 919 811 908 811 q 997 764 957 811 q 1038 694 1038 717 q 1024 674 1038 683 q 985 654 1010 665 q 947 636 960 643 q 814 478 878 556 q 896 356 896 410 q 826 267 896 267 q 746 347 786 267 q 738 366 743 353 q 731 385 732 379 q 449 164 621 265 q 283 86 371 118 q 171 54 196 54 q 156 71 156 54 q 174 99 156 88 q 247 135 193 110 q 350 189 301 160 q 432 241 394 215 q 500 292 469 267 q 552 335 531 317 q 596 377 574 354 q 628 411 618 400 q 656 444 638 422 q 676 469 674 467 q 637 514 658 494 q 604 542 615 533 q 593 560 593 551 z "},"チ":{"ha":1389,"x_min":249,"x_max":1144,"o":"m 811 953 q 894 921 847 953 q 942 860 942 889 q 922 822 942 835 q 883 808 901 808 q 854 812 874 808 q 828 815 835 815 q 779 801 817 815 q 725 788 768 797 q 785 683 785 750 q 782 638 785 664 q 901 661 861 650 q 960 692 938 671 q 990 708 978 708 q 1074 666 1004 708 q 1144 597 1144 624 q 1076 542 1144 542 q 1036 558 1060 542 q 972 571 1029 564 q 892 578 915 578 q 774 572 843 578 q 732 398 760 485 q 669 260 704 311 q 568 144 622 192 q 483 80 514 96 q 442 64 453 64 q 417 83 417 64 q 428 105 417 93 q 460 132 440 117 q 488 157 479 147 q 609 338 569 246 q 658 563 649 431 q 400 511 442 539 q 358 493 372 493 q 290 526 332 493 q 249 582 249 558 q 262 603 249 593 q 292 614 275 614 q 324 608 310 614 q 357 601 339 601 q 661 622 478 601 q 661 661 661 642 q 657 712 661 700 q 636 735 653 724 q 615 749 629 739 q 594 763 600 758 q 353 729 406 729 q 297 747 297 729 q 307 763 297 756 q 326 769 317 769 q 590 828 418 769 q 768 919 763 886 q 779 945 771 938 q 811 953 788 953 z "},"ヂ":{"ha":1389,"x_min":249,"x_max":1340,"o":"m 1340 842 q 1290 782 1340 782 q 1240 810 1250 782 q 1199 879 1226 853 q 1167 901 1188 890 q 1140 919 1147 913 q 1126 946 1126 933 q 1160 963 1126 963 q 1273 926 1206 963 q 1340 842 1340 890 m 1210 756 q 1160 699 1210 699 q 1110 725 1118 699 q 1068 794 1096 768 q 1037 817 1057 806 q 1010 835 1017 828 q 996 861 996 849 q 1029 879 996 879 q 1142 842 1075 879 q 1210 756 1210 804 m 811 953 q 894 921 847 953 q 942 860 942 889 q 922 822 942 835 q 883 808 901 808 q 854 812 874 808 q 828 815 835 815 q 779 801 817 815 q 725 788 768 797 q 785 683 785 750 q 782 638 785 664 q 901 661 861 650 q 960 692 938 671 q 990 708 978 708 q 1074 666 1004 708 q 1144 597 1144 624 q 1076 542 1144 542 q 1036 558 1060 542 q 972 571 1029 564 q 892 578 915 578 q 774 572 843 578 q 732 398 760 485 q 669 260 704 311 q 568 144 622 192 q 483 80 514 96 q 442 64 453 64 q 417 83 417 64 q 428 105 417 93 q 460 132 440 117 q 488 157 479 147 q 609 338 569 246 q 658 563 649 431 q 400 511 442 539 q 358 493 372 493 q 290 526 332 493 q 249 582 249 558 q 262 603 249 593 q 292 614 275 614 q 324 608 310 614 q 357 601 339 601 q 661 622 478 601 q 661 661 661 642 q 657 712 661 700 q 636 735 653 724 q 615 749 629 739 q 594 763 600 758 q 353 729 406 729 q 297 747 297 729 q 307 763 297 756 q 326 769 317 769 q 590 828 418 769 q 768 919 763 886 q 779 945 771 938 q 811 953 788 953 z "},"ッ":{"ha":1389,"x_min":392,"x_max":996,"o":"m 859 647 q 840 677 859 657 q 820 708 820 697 q 838 734 820 726 q 871 741 856 741 q 959 694 923 741 q 995 614 995 647 q 974 566 995 566 q 940 517 956 544 q 838 347 876 399 q 736 235 800 296 q 711 213 723 224 q 684 193 698 203 q 661 175 671 182 q 635 159 651 168 q 614 145 619 149 q 592 132 608 142 q 573 122 575 123 q 458 63 520 89 q 436 58 450 58 q 411 76 411 58 q 435 112 411 94 q 494 148 458 130 q 589 212 531 167 q 703 317 648 258 q 821 496 783 405 q 859 647 859 587 m 604 709 q 647 700 619 709 q 703 667 675 691 q 730 612 730 643 q 729 592 730 603 q 720 564 728 580 q 699 543 712 548 q 678 538 690 538 q 659 543 668 538 q 639 558 645 549 q 631 578 634 567 q 617 611 628 589 q 591 659 607 634 q 571 694 571 686 q 604 709 571 709 m 393 586 q 392 592 392 590 q 398 608 392 600 q 413 615 403 615 q 494 583 452 615 q 550 489 550 540 q 534 445 550 470 q 491 420 519 420 q 459 433 471 420 q 442 464 446 446 q 393 586 427 532 z "},"ツ":{"ha":1389,"x_min":342,"x_max":1044,"o":"m 886 785 q 863 819 886 796 q 840 856 840 843 q 861 885 840 876 q 900 894 882 894 q 1002 840 960 894 q 1044 746 1044 785 q 1019 690 1044 690 q 981 633 999 665 q 861 436 906 496 q 743 306 817 376 q 713 281 728 293 q 683 256 699 268 q 656 236 667 244 q 626 217 644 228 q 601 201 607 206 q 575 186 594 197 q 553 174 556 175 q 419 106 492 136 q 394 100 410 100 q 365 121 365 100 q 392 163 365 142 q 462 205 419 183 q 572 279 504 226 q 704 401 640 332 q 842 609 797 503 q 886 785 886 715 m 589 857 q 640 847 607 857 q 704 808 672 836 q 736 744 736 781 q 735 720 736 733 q 724 688 733 707 q 700 664 715 669 q 675 658 689 658 q 653 664 664 658 q 631 681 638 671 q 620 704 624 692 q 605 743 617 717 q 574 799 593 769 q 551 839 551 831 q 589 857 551 857 m 344 714 q 343 721 343 718 q 349 739 343 731 q 367 747 356 747 q 461 710 413 747 q 526 601 526 660 q 508 550 526 579 q 458 521 490 521 q 420 536 435 521 q 401 572 406 551 q 344 714 383 651 z "},"ヅ":{"ha":1389,"x_min":342,"x_max":1319,"o":"m 886 785 q 863 819 886 796 q 840 856 840 843 q 861 885 840 876 q 900 894 882 894 q 1002 840 960 894 q 1044 746 1044 785 q 1019 690 1044 690 q 981 633 999 665 q 861 436 906 496 q 743 306 817 376 q 713 281 728 293 q 683 256 699 268 q 656 236 667 244 q 626 217 644 228 q 601 201 607 206 q 575 186 594 197 q 553 174 556 175 q 419 106 492 136 q 394 100 410 100 q 365 121 365 100 q 392 163 365 142 q 462 205 419 183 q 572 279 504 226 q 704 401 640 332 q 842 609 797 503 q 886 785 886 715 m 589 857 q 640 847 607 857 q 704 808 672 836 q 736 744 736 781 q 735 720 736 733 q 724 688 733 707 q 700 664 715 669 q 675 658 689 658 q 653 664 664 658 q 631 681 638 671 q 620 704 624 692 q 605 743 617 717 q 574 799 593 769 q 551 839 551 831 q 589 857 551 857 m 344 714 q 343 721 343 718 q 349 739 343 731 q 367 747 356 747 q 461 710 413 747 q 526 601 526 660 q 508 550 526 579 q 458 521 490 521 q 420 536 435 521 q 401 572 406 551 q 344 714 383 651 m 1319 961 q 1269 901 1319 901 q 1219 929 1229 901 q 1178 999 1206 972 q 1147 1021 1167 1010 q 1119 1039 1126 1032 q 1106 1065 1106 1053 q 1139 1082 1106 1082 q 1252 1046 1185 1082 q 1319 961 1319 1010 m 1189 875 q 1139 818 1189 818 q 1089 844 1097 818 q 1047 914 1075 888 q 1016 936 1036 925 q 989 954 996 947 q 975 981 975 968 q 1008 999 975 999 q 1122 961 1054 999 q 1189 875 1189 924 z "},"テ":{"ha":1389,"x_min":292,"x_max":1083,"o":"m 517 876 q 532 872 517 876 q 564 868 546 868 q 687 886 582 868 q 808 913 792 904 q 860 929 842 929 q 913 902 890 929 q 936 860 936 875 q 786 821 936 821 q 658 800 743 821 q 553 779 572 779 q 488 807 531 779 q 444 854 444 835 q 481 883 444 883 q 517 876 489 883 m 933 721 q 1024 687 964 721 q 1083 629 1083 653 q 1036 585 1083 585 q 956 597 1021 585 q 800 608 892 608 q 842 536 842 561 q 822 492 842 515 q 800 463 803 468 q 587 212 733 317 q 350 107 440 107 q 338 112 344 107 q 331 124 331 117 q 364 157 331 139 q 605 345 494 225 q 715 540 715 465 q 614 590 715 583 q 518 570 569 582 q 437 551 467 558 q 396 544 407 544 q 331 578 369 544 q 292 629 292 613 q 317 663 292 663 q 352 652 321 663 q 428 642 383 642 q 831 685 663 642 q 876 700 853 690 q 914 715 900 710 q 933 721 928 721 z "},"デ":{"ha":1389,"x_min":292,"x_max":1315,"o":"m 1315 960 q 1265 900 1315 900 q 1215 928 1225 900 q 1174 997 1201 971 q 1142 1019 1163 1008 q 1115 1038 1122 1031 q 1101 1064 1101 1051 q 1135 1081 1101 1081 q 1248 1044 1181 1081 q 1315 960 1315 1008 m 1185 874 q 1135 817 1185 817 q 1085 843 1093 817 q 1043 913 1071 886 q 1012 935 1032 924 q 985 953 992 946 q 971 979 971 967 q 1004 997 971 997 q 1117 960 1050 997 q 1185 874 1185 922 m 517 876 q 532 872 517 876 q 564 868 546 868 q 687 886 582 868 q 808 913 792 904 q 860 929 842 929 q 913 902 890 929 q 936 860 936 875 q 786 821 936 821 q 658 800 743 821 q 553 779 572 779 q 488 807 531 779 q 444 854 444 835 q 481 883 444 883 q 517 876 489 883 m 933 721 q 1024 687 964 721 q 1083 629 1083 653 q 1036 585 1083 585 q 956 597 1021 585 q 800 608 892 608 q 842 536 842 561 q 822 492 842 515 q 800 463 803 468 q 587 212 733 317 q 350 107 440 107 q 338 112 344 107 q 331 124 331 117 q 364 157 331 139 q 605 345 494 225 q 715 540 715 465 q 614 590 715 583 q 518 570 569 582 q 437 551 467 558 q 396 544 407 544 q 331 578 369 544 q 292 629 292 613 q 317 663 292 663 q 352 652 321 663 q 428 642 383 642 q 831 685 663 642 q 876 700 853 690 q 914 715 900 710 q 933 721 928 721 z "},"ト":{"ha":1389,"x_min":483,"x_max":908,"o":"m 650 206 q 659 171 651 192 q 667 140 667 150 q 649 101 667 126 q 614 75 632 75 q 551 135 586 75 q 517 233 517 194 q 524 274 517 247 q 535 314 532 300 q 544 447 539 340 q 550 603 550 553 q 538 803 550 703 q 525 844 535 833 q 496 872 511 861 q 483 904 483 881 q 499 929 483 919 q 540 939 515 939 q 593 928 567 939 q 656 896 633 913 q 678 854 678 879 q 664 817 678 838 q 649 786 650 797 q 640 622 640 714 q 683 631 668 631 q 831 592 747 631 q 882 548 856 581 q 908 475 908 515 q 888 416 908 438 q 839 394 867 394 q 800 409 815 394 q 763 463 785 424 q 729 519 742 501 q 690 557 715 538 q 640 581 665 576 q 650 206 640 268 z "},"ド":{"ha":1389,"x_min":483,"x_max":1150,"o":"m 650 206 q 659 171 651 192 q 667 140 667 150 q 649 101 667 126 q 614 75 632 75 q 551 135 586 75 q 517 233 517 194 q 524 274 517 247 q 535 314 532 300 q 544 447 539 340 q 550 603 550 553 q 538 803 550 703 q 525 844 535 833 q 496 872 511 861 q 483 904 483 881 q 499 929 483 919 q 540 939 515 939 q 593 928 567 939 q 656 896 633 913 q 678 854 678 879 q 664 817 678 838 q 649 786 650 797 q 640 622 640 714 q 683 631 668 631 q 831 592 747 631 q 882 548 856 581 q 908 475 908 515 q 888 416 908 438 q 839 394 867 394 q 800 409 815 394 q 763 463 785 424 q 729 519 742 501 q 690 557 715 538 q 640 581 665 576 q 650 206 640 268 m 1150 850 q 1100 790 1150 790 q 1050 818 1060 790 q 1008 888 1036 861 q 977 910 997 899 q 950 928 957 921 q 936 954 936 942 q 969 971 936 971 q 1083 935 1015 971 q 1150 850 1150 899 m 1019 764 q 969 707 1019 707 q 919 733 928 707 q 878 803 906 776 q 847 825 867 814 q 819 843 826 836 q 806 869 806 857 q 839 888 806 888 q 952 850 885 888 q 1019 764 1019 813 z "},"ナ":{"ha":1389,"x_min":258,"x_max":1131,"o":"m 1018 722 q 1033 712 1019 722 q 1051 700 1047 701 q 1078 685 1064 697 q 1101 663 1092 674 q 1114 653 1111 653 q 1121 647 1115 653 q 1126 638 1126 640 q 1128 626 1126 636 q 1131 608 1131 615 q 1126 594 1131 600 q 1122 586 1122 588 q 1106 573 1122 581 q 1076 565 1089 565 q 1042 572 1061 565 l 1024 579 q 974 589 976 589 l 946 597 q 865 610 908 610 q 809 604 839 610 q 776 599 779 599 q 751 560 763 599 q 731 472 740 521 q 715 411 721 422 q 706 385 713 407 q 699 360 700 364 l 665 289 q 638 240 656 265 l 626 224 q 608 203 618 215 q 593 183 599 190 q 585 175 588 175 l 581 169 q 569 156 575 163 l 565 150 l 540 125 q 475 75 531 111 q 400 39 419 39 q 388 53 388 39 q 393 72 388 61 q 403 85 399 82 q 458 128 421 93 q 507 183 496 164 q 517 196 508 186 q 526 208 526 206 q 532 217 526 210 q 538 225 538 224 l 550 242 q 556 249 551 242 q 560 258 560 256 l 568 274 q 569 278 569 274 l 600 340 l 603 350 q 611 370 607 358 q 621 398 615 382 q 631 430 626 414 q 640 462 636 446 q 644 489 643 478 q 649 528 646 503 q 653 561 653 553 q 649 575 653 571 q 608 578 649 578 q 508 569 590 578 q 415 558 425 561 q 369 551 397 551 q 283 585 308 551 l 272 600 q 258 636 258 619 q 285 661 258 661 q 322 652 290 661 q 386 643 354 643 l 403 644 q 444 647 419 644 q 497 650 469 649 q 553 653 525 651 q 597 654 581 654 q 608 656 601 654 q 618 658 615 658 q 639 664 628 658 q 656 675 650 669 l 663 682 q 667 713 667 694 l 667 725 q 667 749 667 742 q 668 757 668 756 l 667 758 q 667 765 667 761 q 667 772 667 768 l 667 833 q 665 858 667 850 q 656 873 664 865 q 632 881 649 881 q 617 885 625 881 q 604 895 608 890 q 600 901 600 900 q 593 918 593 910 q 598 930 593 924 q 607 940 603 936 q 613 943 611 943 q 627 956 615 943 q 650 968 639 968 q 677 965 661 968 q 703 957 693 961 l 714 953 q 728 949 726 950 q 743 938 732 944 l 750 933 q 760 928 756 931 q 773 919 765 925 q 786 908 781 914 q 795 893 792 901 q 799 876 799 885 q 796 850 799 856 q 793 842 793 844 q 768 711 768 788 q 773 681 768 688 q 800 674 778 674 q 872 683 829 674 q 936 706 914 693 q 997 729 953 729 q 1018 722 1003 729 z "},"ニ":{"ha":1389,"x_min":279,"x_max":1119,"o":"m 304 425 q 372 409 311 425 q 515 393 432 393 q 903 414 765 393 q 933 428 911 415 q 969 440 956 440 q 1064 413 1008 440 q 1119 351 1119 386 q 1104 314 1119 331 q 1067 297 1089 297 q 1008 306 1050 297 q 942 317 967 315 q 676 326 819 326 q 492 311 606 326 q 358 296 378 296 q 309 338 339 296 q 279 407 279 379 q 304 425 279 425 m 433 703 q 487 687 453 703 q 539 671 521 671 q 771 691 685 671 q 889 711 857 711 q 944 690 915 711 q 972 642 972 669 q 928 599 972 599 q 851 603 924 599 q 683 607 778 607 q 572 593 633 607 q 486 579 510 579 q 438 618 467 579 q 408 685 408 657 q 433 703 408 703 z "},"ヌ":{"ha":1389,"x_min":286,"x_max":1101,"o":"m 492 713 q 497 734 492 729 q 518 739 503 739 q 563 734 531 739 q 610 729 594 729 q 628 731 622 729 l 658 738 q 765 749 664 739 q 871 760 865 758 l 894 768 q 917 780 899 769 q 950 790 936 790 q 972 785 961 790 q 997 775 975 783 q 1026 762 1019 767 q 1048 747 1033 757 q 1067 724 1063 738 q 1072 693 1072 711 q 1059 663 1072 675 q 1022 638 1046 651 q 983 611 997 625 q 959 584 971 599 q 942 562 947 569 q 935 554 938 554 q 888 494 888 518 q 893 483 888 488 q 914 474 899 479 q 939 465 929 469 q 1085 371 1074 400 q 1101 307 1101 321 q 1085 266 1101 282 q 1057 247 1069 250 q 1038 243 1044 243 q 1013 251 1031 243 q 996 264 996 260 q 958 300 996 267 q 875 367 919 333 q 818 400 831 400 q 805 394 814 400 q 794 388 796 388 l 768 371 q 740 354 742 354 l 733 350 q 726 344 728 344 q 715 335 725 344 q 666 306 704 326 q 568 263 628 286 q 444 228 526 246 q 318 211 363 211 q 289 221 289 211 l 289 224 q 288 229 286 228 q 306 251 288 242 q 357 269 324 260 q 410 289 390 279 l 422 293 q 456 303 436 297 q 499 317 476 310 q 546 335 522 325 q 585 353 569 344 q 706 450 706 433 q 684 476 706 463 q 640 499 663 490 q 617 510 617 508 q 583 517 601 514 q 553 522 565 521 q 531 526 542 524 q 514 534 519 529 q 508 546 508 539 q 557 565 508 565 q 655 555 608 565 q 728 533 701 544 l 754 524 q 812 566 774 524 q 850 663 850 608 q 847 681 850 675 q 839 688 843 686 q 826 689 835 689 l 822 689 q 702 679 749 689 q 637 659 656 669 q 614 649 618 649 q 526 666 561 649 q 492 713 492 683 z "},"ネ":{"ha":1389,"x_min":267,"x_max":1101,"o":"m 561 957 q 728 922 644 957 q 811 825 811 886 q 793 786 811 804 q 758 768 775 768 q 697 809 735 768 q 649 858 660 850 q 611 883 644 861 q 558 918 578 904 q 539 938 539 932 q 561 957 539 957 m 425 728 q 466 717 429 728 q 525 706 503 706 q 657 713 592 706 q 738 728 722 719 q 857 751 788 751 q 928 717 888 751 q 968 653 968 682 q 958 626 968 635 q 931 613 947 618 q 907 601 914 608 q 736 465 831 532 q 764 442 764 453 q 760 392 764 431 q 756 319 756 354 q 760 217 756 286 q 764 133 764 149 q 710 65 764 65 q 669 92 694 65 q 643 147 643 119 l 647 200 q 653 317 653 253 q 651 411 653 382 q 299 283 435 283 q 277 290 288 283 q 267 306 267 296 q 301 331 267 315 q 817 654 646 471 q 735 657 761 657 q 603 637 696 657 q 500 617 511 617 q 433 646 472 617 q 394 689 394 675 q 405 715 394 701 q 425 728 415 728 m 838 475 q 1016 433 931 475 q 1101 331 1101 392 q 1081 289 1101 307 q 1046 271 1061 271 q 1009 289 1029 271 q 962 336 989 307 q 913 382 935 365 q 865 411 894 394 q 821 438 836 428 q 806 453 806 447 q 815 468 806 461 q 838 475 824 475 z "},"ノ":{"ha":1389,"x_min":363,"x_max":1025,"o":"m 672 453 q 785 626 736 536 q 835 754 835 717 q 822 800 835 788 q 810 808 819 803 q 793 817 800 813 q 786 826 786 822 q 808 858 786 840 q 851 876 829 876 q 961 822 897 876 q 1025 708 1025 768 q 1010 685 1025 697 q 973 655 996 672 q 938 622 950 638 q 848 500 904 583 q 763 386 792 417 q 608 246 700 318 q 443 138 515 174 q 381 122 413 122 q 363 144 363 122 q 414 194 363 163 q 545 306 472 231 q 672 453 618 382 z "},"ハ":{"ha":1389,"x_min":160,"x_max":1117,"o":"m 861 682 q 1011 613 906 682 q 1117 489 1117 543 q 1040 372 1117 372 q 974 435 1010 372 q 907 567 939 497 q 857 647 875 638 q 840 668 840 656 q 848 677 840 672 q 861 682 856 682 m 553 665 q 642 630 581 665 q 703 544 703 594 q 694 504 703 521 q 679 482 686 488 q 651 466 672 476 q 625 453 629 456 q 378 336 499 378 q 196 294 258 294 q 160 313 160 294 q 206 357 160 342 q 449 471 335 403 q 563 575 563 539 q 548 618 563 601 q 533 649 533 635 q 553 665 533 665 z "},"バ":{"ha":1389,"x_min":160,"x_max":1340,"o":"m 1340 808 q 1290 749 1340 749 q 1240 776 1250 749 q 1199 846 1226 819 q 1167 868 1188 857 q 1140 886 1147 879 q 1126 913 1126 900 q 1160 929 1126 929 q 1273 893 1206 929 q 1340 808 1340 857 m 1210 722 q 1160 665 1210 665 q 1110 692 1118 665 q 1068 761 1096 735 q 1037 783 1057 772 q 1010 801 1017 794 q 996 828 996 815 q 1029 846 996 846 q 1142 808 1075 846 q 1210 722 1210 771 m 861 682 q 1011 613 906 682 q 1117 489 1117 543 q 1040 372 1117 372 q 974 435 1010 372 q 907 567 939 497 q 857 647 875 638 q 840 668 840 656 q 848 677 840 672 q 861 682 856 682 m 553 665 q 642 630 581 665 q 703 544 703 594 q 694 504 703 521 q 679 482 686 488 q 651 466 672 476 q 625 453 629 456 q 378 336 499 378 q 196 294 258 294 q 160 313 160 294 q 206 357 160 342 q 449 471 335 403 q 563 575 563 539 q 548 618 563 601 q 533 649 533 635 q 553 665 533 665 z "},"パ":{"ha":1389,"x_min":160,"x_max":1242,"o":"m 1067 905 q 1057 895 1067 905 q 1047 856 1047 885 q 1067 806 1047 826 q 1117 786 1088 786 q 1166 806 1146 786 q 1186 856 1186 826 q 1166 905 1186 885 q 1117 925 1146 925 q 1067 905 1088 925 m 1028 767 q 1010 785 1028 767 q 992 856 992 803 q 1028 944 992 908 q 1117 981 1064 981 q 1206 944 1169 981 q 1242 856 1242 908 q 1206 767 1242 803 q 1117 731 1169 731 q 1028 767 1064 731 m 861 682 q 1011 613 906 682 q 1117 489 1117 543 q 1040 372 1117 372 q 974 435 1010 372 q 907 567 939 497 q 857 647 875 638 q 840 668 840 656 q 848 677 840 672 q 861 682 856 682 m 553 665 q 642 630 581 665 q 703 544 703 594 q 694 504 703 521 q 679 482 686 488 q 651 466 672 476 q 625 453 629 456 q 378 336 499 378 q 196 294 258 294 q 160 313 160 294 q 206 357 160 342 q 449 471 335 403 q 563 575 563 539 q 548 618 563 601 q 533 649 533 635 q 553 665 533 665 z "},"ヒ":{"ha":1389,"x_min":390,"x_max":1003,"o":"m 449 857 q 543 821 482 857 q 604 764 604 785 q 592 731 604 736 q 571 690 576 724 q 557 551 567 672 q 807 689 807 660 q 792 713 807 700 q 776 729 776 726 q 822 744 776 744 q 913 706 861 744 q 964 635 964 667 q 944 599 964 611 q 894 586 924 586 q 758 563 832 586 q 556 485 683 539 q 574 346 557 388 q 639 304 592 304 q 740 311 676 304 q 822 324 804 318 q 843 332 829 326 q 869 340 857 338 q 892 343 881 343 q 1003 283 1003 343 q 961 225 1003 236 q 728 208 900 208 q 510 254 556 208 q 468 413 468 296 q 464 647 468 600 q 449 761 456 756 q 390 813 390 800 q 408 842 390 826 q 449 857 426 857 z "},"ビ":{"ha":1389,"x_min":390,"x_max":1183,"o":"m 1183 878 q 1133 818 1183 818 q 1083 846 1093 818 q 1042 915 1069 889 q 1010 938 1031 926 q 983 956 990 949 q 969 982 969 969 q 1003 999 969 999 q 1116 963 1049 999 q 1183 878 1183 926 m 1053 792 q 1003 735 1053 735 q 953 761 961 735 q 911 831 939 804 q 880 853 900 842 q 853 871 860 864 q 839 897 839 885 q 872 915 839 915 q 985 878 918 915 q 1053 792 1053 840 m 449 857 q 543 821 482 857 q 604 764 604 785 q 592 731 604 736 q 571 690 576 724 q 557 551 567 672 q 807 689 807 660 q 792 713 807 700 q 776 729 776 726 q 822 744 776 744 q 913 706 861 744 q 964 635 964 667 q 944 599 964 611 q 894 586 924 586 q 758 563 832 586 q 556 485 683 539 q 574 346 557 388 q 639 304 592 304 q 740 311 676 304 q 822 324 804 318 q 843 332 829 326 q 869 340 857 338 q 892 343 881 343 q 1003 283 1003 343 q 961 225 1003 236 q 728 208 900 208 q 510 254 556 208 q 468 413 468 296 q 464 647 468 600 q 449 761 456 756 q 390 813 390 800 q 408 842 390 826 q 449 857 426 857 z "},"ピ":{"ha":1389,"x_min":390,"x_max":1161,"o":"m 987 916 q 977 906 987 916 q 967 867 967 896 q 987 817 967 838 q 1036 797 1007 797 q 1085 817 1065 797 q 1106 867 1106 838 q 1085 916 1106 896 q 1036 936 1065 936 q 987 916 1007 936 m 947 778 q 929 796 947 778 q 911 867 911 814 q 947 956 911 919 q 1036 992 983 992 q 1125 956 1089 992 q 1161 867 1161 919 q 1125 778 1161 814 q 1036 742 1089 742 q 947 778 983 742 m 449 857 q 543 821 482 857 q 604 764 604 785 q 592 731 604 736 q 571 690 576 724 q 557 551 567 672 q 807 689 807 660 q 792 713 807 700 q 776 729 776 726 q 822 744 776 744 q 913 706 861 744 q 964 635 964 667 q 944 599 964 611 q 894 586 924 586 q 758 563 832 586 q 556 485 683 539 q 574 346 557 388 q 639 304 592 304 q 740 311 676 304 q 822 324 804 318 q 843 332 829 326 q 869 340 857 338 q 892 343 881 343 q 1003 283 1003 343 q 961 225 1003 236 q 728 208 900 208 q 510 254 556 208 q 468 413 468 296 q 464 647 468 600 q 449 761 456 756 q 390 813 390 800 q 408 842 390 826 q 449 857 426 857 z "},"フ":{"ha":1389,"x_min":367,"x_max":1050,"o":"m 867 464 q 723 313 800 374 q 542 200 646 253 q 478 176 518 189 q 428 164 439 164 q 401 170 413 164 q 389 183 389 176 q 401 201 389 194 q 437 218 413 208 q 475 236 461 228 q 692 417 578 297 q 842 663 774 504 q 858 738 858 701 q 656 701 792 738 q 601 685 643 697 q 533 666 558 672 q 489 660 507 660 q 411 698 456 660 q 367 758 367 736 q 403 785 367 785 q 447 778 413 785 q 497 772 481 772 q 800 815 553 772 q 877 837 846 824 q 922 850 908 850 q 1006 802 961 850 q 1050 728 1050 754 q 1017 685 1050 703 q 972 650 983 667 q 925 563 961 633 q 867 464 889 493 z "},"ブ":{"ha":1389,"x_min":367,"x_max":1306,"o":"m 867 464 q 723 313 800 374 q 542 200 646 253 q 478 176 518 189 q 428 164 439 164 q 401 170 413 164 q 389 183 389 176 q 401 201 389 194 q 437 218 413 208 q 475 236 461 228 q 692 417 578 297 q 842 663 774 504 q 858 738 858 701 q 656 701 792 738 q 601 685 643 697 q 533 666 558 672 q 489 660 507 660 q 411 698 456 660 q 367 758 367 736 q 403 785 367 785 q 447 778 413 785 q 497 772 481 772 q 800 815 553 772 q 877 837 846 824 q 922 850 908 850 q 1006 802 961 850 q 1050 728 1050 754 q 1017 685 1050 703 q 972 650 983 667 q 925 563 961 633 q 867 464 889 493 m 1306 938 q 1256 878 1306 878 q 1206 906 1215 878 q 1164 975 1192 949 q 1133 997 1153 986 q 1106 1015 1113 1008 q 1092 1042 1092 1029 q 1125 1058 1092 1058 q 1238 1022 1171 1058 q 1306 938 1306 986 m 1175 851 q 1125 794 1175 794 q 1075 821 1083 794 q 1033 890 1061 864 q 1002 913 1022 901 q 975 931 982 924 q 961 957 961 944 q 994 975 961 975 q 1108 938 1040 975 q 1175 851 1175 900 z "},"プ":{"ha":1389,"x_min":367,"x_max":1268,"o":"m 867 464 q 723 313 800 374 q 542 200 646 253 q 478 176 518 189 q 428 164 439 164 q 401 170 413 164 q 389 183 389 176 q 401 201 389 194 q 437 218 413 208 q 475 236 461 228 q 692 417 578 297 q 842 663 774 504 q 858 738 858 701 q 656 701 792 738 q 601 685 643 697 q 533 666 558 672 q 489 660 507 660 q 411 698 456 660 q 367 758 367 736 q 403 785 367 785 q 447 778 413 785 q 497 772 481 772 q 800 815 553 772 q 877 837 846 824 q 922 850 908 850 q 1006 802 961 850 q 1050 728 1050 754 q 1017 685 1050 703 q 972 650 983 667 q 925 563 961 633 q 867 464 889 493 m 1094 960 q 1084 950 1094 960 q 1074 911 1074 940 q 1094 862 1074 882 q 1143 842 1114 842 q 1192 862 1172 842 q 1213 911 1213 882 q 1192 960 1213 940 q 1143 981 1172 981 q 1094 960 1114 981 m 1054 822 q 1036 840 1054 822 q 1018 911 1018 858 q 1054 1000 1018 964 q 1143 1036 1090 1036 q 1232 1000 1196 1036 q 1268 911 1268 964 q 1232 822 1268 858 q 1143 786 1196 786 q 1054 822 1090 786 z "},"ヘ":{"ha":1389,"x_min":203,"x_max":1181,"o":"m 229 579 q 258 565 232 579 q 303 551 285 551 q 384 591 335 551 q 489 671 433 631 q 589 711 544 711 q 654 690 617 711 q 752 624 692 668 q 849 558 813 581 q 1007 484 917 517 q 1139 428 1097 451 q 1181 365 1181 406 q 1157 313 1181 335 q 1097 292 1133 292 q 786 483 1032 292 q 714 547 758 504 q 640 612 669 589 q 588 635 610 635 q 517 600 553 635 q 455 524 481 565 q 392 447 429 482 q 321 413 356 413 q 242 465 281 413 q 203 540 203 518 q 212 567 203 554 q 229 579 221 579 z "},"ベ":{"ha":1389,"x_min":203,"x_max":1181,"o":"m 1175 783 q 1125 724 1175 724 q 1075 751 1085 724 q 1033 821 1061 794 q 1002 843 1022 832 q 975 861 982 854 q 961 888 961 875 q 994 904 961 904 q 1108 868 1040 904 q 1175 783 1175 832 m 1044 697 q 994 640 1044 640 q 944 667 953 640 q 903 736 931 710 q 872 758 892 747 q 844 776 851 769 q 831 803 831 790 q 864 821 831 821 q 977 783 910 821 q 1044 697 1044 746 m 229 579 q 258 565 232 579 q 303 551 285 551 q 384 591 335 551 q 489 671 433 631 q 589 711 544 711 q 654 690 617 711 q 752 624 692 668 q 849 558 813 581 q 1007 484 917 517 q 1139 428 1097 451 q 1181 365 1181 406 q 1157 313 1181 335 q 1097 292 1133 292 q 786 483 1032 292 q 714 547 758 504 q 640 612 669 589 q 588 635 610 635 q 517 600 553 635 q 455 524 481 565 q 392 447 429 482 q 321 413 356 413 q 242 465 281 413 q 203 540 203 518 q 212 567 203 554 q 229 579 221 579 z "},"ペ":{"ha":1389,"x_min":203,"x_max":1181,"o":"m 959 830 q 949 820 959 830 q 939 781 939 810 q 959 731 939 751 q 1008 711 979 711 q 1058 731 1038 711 q 1078 781 1078 751 q 1058 830 1078 810 q 1008 850 1038 850 q 959 830 979 850 m 919 692 q 901 710 919 692 q 883 781 883 728 q 919 869 883 833 q 1008 906 956 906 q 1097 869 1061 906 q 1133 781 1133 833 q 1097 692 1133 728 q 1008 656 1061 656 q 919 692 956 656 m 229 579 q 258 565 232 579 q 303 551 285 551 q 384 591 335 551 q 489 671 433 631 q 589 711 544 711 q 654 690 617 711 q 752 624 692 668 q 849 558 813 581 q 1007 484 917 517 q 1139 428 1097 451 q 1181 365 1181 406 q 1157 313 1181 335 q 1097 292 1133 292 q 786 483 1032 292 q 714 547 758 504 q 640 612 669 589 q 588 635 610 635 q 517 600 553 635 q 455 524 481 565 q 392 447 429 482 q 321 413 356 413 q 242 465 281 413 q 203 540 203 518 q 212 567 203 554 q 229 579 221 579 z "},"ホ":{"ha":1389,"x_min":274,"x_max":1097,"o":"m 364 650 q 389 645 371 650 q 422 640 407 640 q 658 658 478 640 q 649 779 654 763 q 610 812 644 789 q 576 846 576 835 q 598 872 576 858 q 647 886 619 886 q 722 851 676 886 q 767 799 767 817 q 757 771 767 786 q 747 749 747 756 l 747 739 q 749 709 749 729 q 750 668 750 689 q 850 685 825 676 q 963 711 924 711 q 1033 683 996 711 q 1071 624 1071 654 q 1056 597 1071 607 q 1019 586 1040 586 q 946 601 996 586 q 888 617 896 617 q 751 613 814 617 q 760 219 760 307 q 733 172 760 196 q 685 147 707 147 q 670 150 678 147 q 656 159 663 153 q 643 170 649 165 q 631 185 638 175 q 621 199 624 194 q 612 212 618 203 q 606 222 606 221 q 576 258 594 240 q 546 288 557 276 q 535 311 535 300 q 550 325 535 325 q 585 315 564 325 q 615 304 607 304 q 653 331 643 304 q 663 461 663 358 q 661 603 663 560 q 535 582 596 594 q 442 561 475 569 q 400 553 410 553 q 340 576 374 553 q 306 617 306 600 q 326 641 306 632 q 364 650 347 650 m 489 503 q 508 458 508 503 q 492 370 508 421 q 435 272 476 319 q 339 225 394 225 q 291 247 308 225 q 274 289 274 269 q 310 344 274 317 q 393 397 347 372 q 450 435 439 421 q 467 465 460 447 q 480 492 475 482 q 489 503 485 503 m 833 506 q 918 481 857 506 q 1038 410 979 456 q 1097 319 1097 364 q 1074 249 1097 271 q 1017 228 1050 228 q 978 244 993 228 q 956 285 964 260 q 921 356 947 311 q 856 443 894 400 q 840 460 847 451 q 828 472 832 468 q 822 478 825 475 q 817 485 818 482 q 817 494 817 489 q 833 506 817 506 z "},"ボ":{"ha":1389,"x_min":274,"x_max":1271,"o":"m 1271 876 q 1221 817 1271 817 q 1171 844 1181 817 q 1129 914 1157 888 q 1098 936 1118 925 q 1071 954 1078 947 q 1057 981 1057 968 q 1090 997 1057 997 q 1203 961 1136 997 q 1271 876 1271 925 m 1140 790 q 1090 733 1140 733 q 1040 760 1049 733 q 999 829 1026 803 q 967 851 988 840 q 940 869 947 863 q 926 896 926 883 q 960 914 926 914 q 1073 876 1006 914 q 1140 790 1140 839 m 364 650 q 389 645 371 650 q 422 640 407 640 q 658 658 478 640 q 649 779 654 763 q 610 812 644 789 q 576 846 576 835 q 598 872 576 858 q 647 886 619 886 q 722 851 676 886 q 767 799 767 817 q 757 771 767 786 q 747 749 747 756 l 747 739 q 749 709 749 729 q 750 668 750 689 q 850 685 825 676 q 963 711 924 711 q 1033 683 996 711 q 1071 624 1071 654 q 1056 597 1071 607 q 1019 586 1040 586 q 946 601 996 586 q 888 617 896 617 q 751 613 814 617 q 760 219 760 307 q 733 172 760 196 q 685 147 707 147 q 670 150 678 147 q 656 159 663 153 q 643 170 649 165 q 631 185 638 175 q 621 199 624 194 q 612 212 618 203 q 606 222 606 221 q 576 258 594 240 q 546 288 557 276 q 535 311 535 300 q 550 325 535 325 q 585 315 564 325 q 615 304 607 304 q 653 331 643 304 q 663 461 663 358 q 661 603 663 560 q 535 582 596 594 q 442 561 475 569 q 400 553 410 553 q 340 576 374 553 q 306 617 306 600 q 326 641 306 632 q 364 650 347 650 m 489 503 q 508 458 508 503 q 492 370 508 421 q 435 272 476 319 q 339 225 394 225 q 291 247 308 225 q 274 289 274 269 q 310 344 274 317 q 393 397 347 372 q 450 435 439 421 q 467 465 460 447 q 480 492 475 482 q 489 503 485 503 m 833 506 q 918 481 857 506 q 1038 410 979 456 q 1097 319 1097 364 q 1074 249 1097 271 q 1017 228 1050 228 q 978 244 993 228 q 956 285 964 260 q 921 356 947 311 q 856 443 894 400 q 840 460 847 451 q 828 472 832 468 q 822 478 825 475 q 817 485 818 482 q 817 494 817 489 q 833 506 817 506 z "},"ポ":{"ha":1389,"x_min":274,"x_max":1222,"o":"m 1048 922 q 1038 911 1048 922 q 1028 872 1028 901 q 1048 823 1028 843 q 1097 803 1068 803 q 1147 823 1126 803 q 1167 872 1167 843 q 1147 922 1167 901 q 1097 942 1126 942 q 1048 922 1068 942 m 1008 783 q 990 801 1008 783 q 972 872 972 819 q 1008 961 972 925 q 1097 997 1044 997 q 1186 961 1150 997 q 1222 872 1222 925 q 1186 783 1222 819 q 1097 747 1150 747 q 1008 783 1044 747 m 364 650 q 389 645 371 650 q 422 640 407 640 q 658 658 478 640 q 649 779 654 763 q 610 812 644 789 q 576 846 576 835 q 598 872 576 858 q 647 886 619 886 q 722 851 676 886 q 767 799 767 817 q 757 771 767 786 q 747 749 747 756 l 747 739 q 749 709 749 729 q 750 668 750 689 q 850 685 825 676 q 963 711 924 711 q 1033 683 996 711 q 1071 624 1071 654 q 1056 597 1071 607 q 1019 586 1040 586 q 946 601 996 586 q 888 617 896 617 q 751 613 814 617 q 760 219 760 307 q 733 172 760 196 q 685 147 707 147 q 670 150 678 147 q 656 159 663 153 q 643 170 649 165 q 631 185 638 175 q 621 199 624 194 q 612 212 618 203 q 606 222 606 221 q 576 258 594 240 q 546 288 557 276 q 535 311 535 300 q 550 325 535 325 q 585 315 564 325 q 615 304 607 304 q 653 331 643 304 q 663 461 663 358 q 661 603 663 560 q 535 582 596 594 q 442 561 475 569 q 400 553 410 553 q 340 576 374 553 q 306 617 306 600 q 326 641 306 632 q 364 650 347 650 m 489 503 q 508 458 508 503 q 492 370 508 421 q 435 272 476 319 q 339 225 394 225 q 291 247 308 225 q 274 289 274 269 q 310 344 274 317 q 393 397 347 372 q 450 435 439 421 q 467 465 460 447 q 480 492 475 482 q 489 503 485 503 m 833 506 q 918 481 857 506 q 1038 410 979 456 q 1097 319 1097 364 q 1074 249 1097 271 q 1017 228 1050 228 q 978 244 993 228 q 956 285 964 260 q 921 356 947 311 q 856 443 894 400 q 840 460 847 451 q 828 472 832 468 q 822 478 825 475 q 817 485 818 482 q 817 494 817 489 q 833 506 817 506 z "},"マ":{"ha":1389,"x_min":263,"x_max":1126,"o":"m 1126 626 q 1108 570 1126 586 q 1051 554 1090 554 q 1029 555 1043 554 q 1008 556 1015 556 q 983 551 992 556 q 937 524 971 546 q 875 482 903 501 l 847 463 q 821 426 821 436 q 832 410 821 424 q 853 373 843 396 q 864 322 864 350 q 860 303 864 311 l 850 289 q 831 272 835 272 q 783 263 806 263 q 751 276 767 263 q 729 301 736 289 q 722 317 722 314 q 642 442 696 376 l 590 492 l 586 494 q 580 499 583 496 q 573 506 576 501 q 569 517 569 511 q 585 532 569 532 q 649 517 604 532 q 731 488 693 503 q 769 474 768 474 q 792 492 774 474 q 810 513 810 510 q 814 520 810 514 q 829 540 818 526 q 850 567 840 554 l 853 571 q 856 576 854 575 l 864 590 q 869 604 865 592 q 874 622 874 617 q 843 632 874 632 q 789 628 828 632 q 735 625 750 625 q 644 613 694 624 q 574 600 594 603 q 433 568 481 589 q 374 547 386 547 q 319 558 346 547 q 288 578 293 569 q 281 588 286 579 q 269 611 275 596 q 263 639 263 626 q 288 667 263 667 q 333 659 301 667 q 375 651 364 651 q 385 653 382 651 q 640 675 392 656 q 901 708 888 694 q 978 738 944 738 q 1007 725 999 738 q 1024 715 1010 722 q 1044 700 1038 707 q 1078 679 1056 690 q 1113 656 1100 668 q 1126 626 1126 644 z "},"ミ":{"ha":1389,"x_min":458,"x_max":901,"o":"m 901 193 q 863 135 901 135 q 801 146 825 135 q 738 188 778 157 q 514 326 575 308 q 458 365 458 343 q 492 379 458 379 q 689 349 592 379 q 844 276 786 319 q 901 193 901 232 m 789 518 q 738 454 789 454 q 713 457 725 454 q 691 467 701 460 q 674 479 681 474 q 656 494 667 485 q 640 508 644 504 q 500 594 593 549 q 471 614 471 608 q 517 628 471 628 q 582 624 544 628 q 670 609 619 619 q 755 575 721 599 q 789 518 789 551 m 856 744 q 835 696 856 711 q 790 681 815 681 q 699 719 742 681 q 621 769 682 735 q 546 804 560 803 q 508 828 508 810 q 590 853 508 853 q 779 823 703 853 q 856 744 856 793 z "},"ム":{"ha":1389,"x_min":315,"x_max":1072,"o":"m 532 381 q 861 419 739 393 q 841 468 853 444 q 822 506 829 492 q 814 526 814 519 q 839 539 814 539 q 919 515 867 539 q 1022 438 972 490 q 1072 325 1072 386 q 1046 260 1072 286 q 994 233 1019 233 q 952 248 968 233 q 919 301 936 263 q 900 342 901 340 q 840 335 899 342 q 714 319 782 328 q 580 295 646 310 q 496 265 514 281 q 426 240 467 240 q 355 269 394 240 q 315 324 315 297 q 394 378 315 378 q 447 406 425 378 q 561 578 503 476 q 619 713 619 681 q 596 753 619 742 q 557 794 557 771 q 577 824 557 811 q 622 836 597 836 q 722 799 661 836 q 782 715 782 763 q 770 676 782 692 q 740 650 758 661 q 719 636 722 639 q 676 581 706 621 q 603 479 647 542 q 532 381 558 417 z "},"メ":{"ha":1389,"x_min":318,"x_max":1071,"o":"m 804 613 q 812 610 806 613 q 822 608 818 608 q 846 631 835 608 l 856 650 q 888 710 867 667 q 910 771 910 754 q 890 805 910 785 q 851 839 871 825 l 832 853 q 831 860 831 856 q 875 886 831 886 l 878 885 l 882 885 q 979 869 965 885 l 1007 854 l 1011 850 q 1020 840 1015 846 q 1026 833 1025 835 l 1038 818 q 1071 753 1071 774 q 1060 713 1071 722 q 1044 706 1056 710 q 1026 699 1032 703 q 949 605 978 651 q 921 538 921 558 q 924 529 921 532 q 967 491 957 500 q 990 465 976 482 q 1006 437 1003 449 q 1008 407 1008 425 q 996 359 1008 374 q 968 344 983 344 q 947 347 958 344 q 928 353 935 350 l 921 356 q 908 371 914 356 q 893 406 901 386 q 878 433 885 426 q 847 458 853 458 q 839 453 843 458 l 801 401 q 706 301 768 353 q 603 224 643 250 q 553 194 563 199 l 526 176 q 340 124 433 124 q 326 130 333 124 q 318 143 318 136 q 321 150 318 147 q 331 157 324 153 q 346 165 338 161 q 369 176 354 168 q 401 193 385 183 l 496 247 q 590 316 519 261 q 672 386 660 371 l 721 442 q 783 539 783 519 q 719 583 783 549 q 650 624 654 617 q 646 638 646 632 q 665 649 646 649 q 747 631 689 649 l 804 613 z "},"モ":{"ha":1389,"x_min":292,"x_max":1097,"o":"m 742 425 q 751 338 742 363 q 783 310 760 313 q 839 306 833 306 q 912 315 854 306 q 982 325 969 325 q 1048 304 1014 325 q 1082 254 1082 283 q 1069 218 1082 226 q 1032 208 1053 208 q 954 206 1008 208 q 871 204 900 204 q 672 265 715 204 q 656 331 658 285 q 650 415 653 378 q 636 456 647 451 q 629 456 633 456 q 624 457 625 457 q 515 442 581 457 q 428 407 450 428 q 394 388 408 388 q 336 414 368 388 l 318 429 q 292 479 292 450 q 297 501 292 492 q 310 510 303 510 q 325 499 311 510 q 358 489 339 489 q 482 499 432 489 q 545 506 513 504 q 597 511 578 508 q 633 522 617 514 q 636 524 635 522 q 644 543 644 528 q 635 657 644 564 q 588 681 633 681 q 490 669 531 681 q 442 658 450 658 q 388 678 414 658 q 361 722 361 699 q 390 743 361 743 q 438 739 401 743 q 496 735 474 735 q 649 753 528 735 q 786 786 771 772 q 840 804 807 804 l 956 793 q 984 774 972 789 q 996 750 996 760 q 986 733 996 746 q 974 721 976 721 q 918 708 957 708 q 862 712 900 708 q 807 715 824 715 q 754 694 761 715 q 739 574 739 653 l 739 568 q 768 540 739 540 q 875 556 810 540 q 951 588 940 571 q 965 597 957 597 q 993 589 972 597 q 1033 576 1014 581 q 1092 550 1072 569 q 1097 532 1097 544 q 1083 499 1097 514 q 1043 483 1068 483 q 994 491 1031 483 q 928 499 958 499 q 856 493 900 499 q 781 483 811 488 q 749 476 750 478 q 742 425 742 476 z "},"ャ":{"ha":1389,"x_min":350,"x_max":1039,"o":"m 759 342 l 759 334 q 785 212 759 288 q 793 197 788 204 q 801 181 798 190 q 804 155 804 172 q 789 102 804 119 q 757 84 773 84 q 730 90 745 84 q 699 115 715 95 q 682 167 682 135 l 682 181 q 643 428 682 284 q 639 446 642 436 q 637 459 637 456 q 634 467 636 462 q 630 473 632 471 q 623 474 628 474 q 613 475 619 475 q 577 468 599 475 q 539 453 556 461 q 506 438 521 445 l 491 430 q 486 425 489 428 q 478 419 483 421 q 460 417 472 417 q 451 417 458 417 q 439 418 444 418 q 389 441 427 418 q 350 491 350 464 q 377 509 350 509 q 408 503 389 509 q 439 498 427 498 q 542 516 478 498 q 606 550 606 534 q 601 590 606 583 l 593 608 q 570 645 585 633 q 543 657 555 657 q 523 664 532 658 q 514 688 514 671 q 519 695 514 691 l 528 704 l 551 716 q 573 719 559 719 q 613 712 593 719 q 645 697 632 706 q 661 689 659 689 q 696 658 696 678 q 691 631 696 635 q 687 620 687 627 q 712 561 687 561 q 811 584 742 561 q 882 618 880 606 q 921 633 886 633 q 942 629 933 633 q 960 616 950 624 q 976 603 969 608 q 1028 570 1019 578 q 1036 546 1036 562 q 1035 538 1036 543 q 1035 530 1035 534 q 1037 520 1035 526 q 1038 511 1038 513 q 1032 495 1038 505 q 1020 485 1026 488 q 1004 481 1013 482 q 966 464 994 480 q 899 420 938 449 q 774 351 800 353 q 761 348 764 350 q 759 342 759 347 m 806 436 q 859 519 859 475 q 846 541 859 541 q 801 530 837 541 q 763 520 782 524 q 737 514 743 516 q 727 506 731 512 q 723 486 723 500 l 729 446 q 740 421 735 437 q 749 396 746 405 q 757 387 753 387 q 768 392 764 387 q 783 411 773 397 q 806 436 792 424 z "},"ヤ":{"ha":1389,"x_min":294,"x_max":1094,"o":"m 769 431 l 769 421 q 800 279 769 367 q 809 261 803 269 q 819 242 815 253 q 822 213 822 232 q 804 151 822 171 q 767 131 786 131 q 735 137 753 131 q 699 166 718 143 q 681 226 681 189 l 681 243 q 635 531 681 363 q 631 551 633 539 q 627 566 628 563 q 624 575 626 569 q 619 582 622 581 q 612 584 617 583 q 600 585 607 585 q 558 576 583 585 q 513 559 533 568 q 475 542 493 550 l 458 532 q 452 526 456 531 q 442 519 449 522 q 422 517 436 517 q 411 517 419 517 q 397 518 403 518 q 339 545 383 518 q 294 603 294 572 q 325 624 294 624 q 361 617 339 624 q 397 611 383 611 q 517 632 443 611 q 592 672 592 653 q 586 718 592 710 l 576 739 q 549 782 567 768 q 519 797 532 796 q 495 805 506 797 q 485 832 485 813 q 490 840 485 836 l 501 851 l 528 865 q 553 868 538 868 q 599 860 576 868 q 638 843 622 853 q 656 833 653 833 q 696 797 696 821 q 691 766 696 771 q 686 753 686 761 q 715 685 686 685 q 830 711 750 685 q 913 751 910 738 q 958 768 917 768 q 982 763 972 768 q 1003 749 992 758 q 1022 733 1014 739 q 1082 695 1072 704 q 1092 667 1092 686 q 1091 658 1092 664 q 1090 649 1090 653 q 1092 637 1090 644 q 1094 626 1094 629 q 1088 608 1094 619 q 1073 597 1081 600 q 1054 592 1065 593 q 1010 572 1043 590 q 932 521 978 554 q 788 440 817 443 q 772 438 775 439 q 769 431 769 436 m 824 539 q 886 636 886 585 q 871 661 886 661 q 818 649 860 661 q 774 637 796 642 q 744 630 751 632 q 733 621 738 628 q 728 597 728 614 l 735 551 q 748 522 742 540 q 758 492 754 503 q 767 482 763 482 q 781 488 775 482 q 797 510 786 494 q 824 539 808 525 z "},"ュ":{"ha":1389,"x_min":293,"x_max":1096,"o":"m 1042 237 q 1001 240 1041 237 q 904 245 961 242 q 804 247 847 247 q 439 198 654 247 l 432 194 q 415 186 424 190 q 395 182 405 182 q 359 193 377 182 q 341 204 342 204 q 328 210 336 206 q 306 227 319 213 q 293 254 293 240 q 318 277 293 277 q 354 273 335 277 q 386 268 373 268 q 510 281 413 268 q 665 297 607 294 q 716 302 696 299 q 746 308 736 304 q 760 313 757 311 q 765 320 763 315 q 768 326 767 325 q 772 372 772 332 l 772 387 q 775 437 772 397 q 778 495 778 476 q 772 538 778 529 q 749 542 768 542 q 684 537 703 542 l 667 534 q 611 516 638 528 q 575 504 585 504 q 502 520 537 504 q 466 553 466 536 q 468 561 466 556 q 477 571 470 566 q 495 577 484 577 q 527 572 505 577 q 559 568 549 568 q 593 574 564 568 q 669 587 622 580 q 764 597 717 595 q 810 609 801 599 q 831 618 819 618 q 863 612 845 618 q 886 600 882 606 q 913 574 890 592 q 936 540 936 555 q 909 509 936 528 q 882 476 882 491 q 880 470 882 474 q 875 460 878 466 q 871 451 872 455 l 852 408 q 833 342 833 363 q 835 332 833 337 q 854 325 838 328 q 900 321 870 321 q 948 331 935 321 q 980 341 961 341 q 1040 329 1006 341 q 1078 313 1074 317 l 1086 301 q 1096 273 1096 288 q 1048 237 1096 237 l 1042 237 z "},"ユ":{"ha":1389,"x_min":228,"x_max":1161,"o":"m 1099 308 q 1051 311 1097 308 q 938 317 1004 314 q 822 319 872 319 q 397 263 647 319 l 389 258 q 369 249 381 253 q 346 244 358 244 q 305 257 325 244 q 283 269 285 269 q 268 276 278 272 q 243 296 258 281 q 228 328 228 311 q 257 354 228 354 q 299 349 276 354 q 336 344 321 344 q 480 359 367 344 q 660 378 593 374 q 719 383 696 381 q 755 390 743 386 q 770 397 767 394 q 776 404 774 399 q 781 411 779 410 q 785 465 785 418 l 785 482 q 788 540 785 494 q 792 608 792 586 q 785 658 792 647 q 758 663 781 663 q 682 657 704 663 l 663 653 q 598 632 629 646 q 556 618 567 618 q 470 637 511 618 q 429 675 429 656 q 431 685 429 679 q 442 697 433 690 q 463 703 450 703 q 499 698 474 703 q 538 693 525 693 q 576 700 543 693 q 665 715 610 707 q 775 726 721 724 q 828 740 818 729 q 853 751 839 751 q 891 744 869 751 q 917 731 913 738 q 949 699 922 721 q 975 660 975 678 q 944 624 975 646 q 913 586 913 603 q 910 578 913 583 q 905 567 908 574 q 900 557 901 561 l 878 507 q 856 431 856 454 q 858 419 856 424 q 880 410 861 414 q 933 406 899 406 q 989 417 974 406 q 1026 429 1004 429 q 1097 415 1057 429 q 1140 396 1136 401 l 1150 382 q 1161 350 1161 367 q 1106 308 1161 308 l 1099 308 z "},"ョ":{"ha":1389,"x_min":424,"x_max":965,"o":"m 515 535 q 462 550 499 535 q 424 590 424 566 q 432 605 424 596 q 450 615 439 615 q 481 608 457 615 q 518 600 505 600 l 814 620 q 851 627 844 621 q 864 633 858 633 q 905 624 870 633 q 945 614 940 616 q 951 610 946 614 q 960 597 955 606 q 964 575 964 587 q 954 519 964 541 q 943 491 944 497 l 936 456 q 920 383 927 421 q 913 323 913 344 l 913 314 l 909 234 l 909 227 q 908 214 909 218 q 902 206 907 210 q 886 198 896 202 q 854 184 871 194 q 829 174 838 174 q 814 180 814 174 q 784 206 814 184 q 723 217 768 217 q 589 194 659 217 q 519 172 520 172 q 479 196 507 172 q 452 235 452 219 q 460 250 452 243 q 477 256 467 256 q 496 252 482 256 q 525 247 510 247 q 608 259 536 247 q 693 271 680 271 l 720 271 q 754 273 743 271 q 777 280 765 274 q 803 290 790 286 q 811 310 809 291 q 819 360 819 347 q 817 372 819 369 q 810 379 815 376 q 803 383 806 382 q 796 388 798 388 q 789 387 795 388 q 768 384 783 385 q 731 382 753 382 q 663 377 710 382 q 608 372 616 372 q 551 365 562 371 q 526 358 539 358 q 492 370 509 358 q 466 394 475 382 q 457 409 457 406 q 464 434 457 425 q 482 443 471 443 q 502 432 490 443 q 548 421 513 421 q 658 428 606 421 q 739 441 710 434 q 768 448 767 448 q 786 446 776 448 q 800 444 797 444 q 819 452 806 444 q 834 464 833 460 l 837 480 q 838 513 838 494 q 833 549 838 537 q 823 563 828 561 q 819 566 819 565 q 765 569 819 569 q 609 552 694 569 q 515 535 524 535 z "},"ヨ":{"ha":1389,"x_min":381,"x_max":1008,"o":"m 486 654 q 424 672 467 654 q 381 718 381 690 q 389 736 381 725 q 410 747 397 747 q 446 739 418 747 q 489 731 474 731 l 833 753 q 876 761 868 754 q 892 768 885 768 q 940 758 899 768 q 986 746 981 749 q 992 742 988 746 q 1003 726 997 738 q 1008 701 1008 715 q 997 635 1008 661 q 983 603 985 610 l 975 563 q 957 477 965 522 q 949 408 949 432 l 949 397 l 944 304 l 944 296 q 943 281 944 286 q 935 272 942 276 q 917 263 929 267 q 881 247 900 258 q 851 235 861 235 q 833 242 833 235 q 799 272 833 246 q 728 285 781 285 q 572 258 653 285 q 490 232 492 232 q 444 260 476 232 q 413 306 413 288 q 422 323 413 315 q 442 331 431 331 q 464 325 447 331 q 497 319 481 319 q 594 333 510 319 q 693 347 678 347 l 724 347 q 764 349 751 347 q 791 358 776 351 q 821 369 806 365 q 831 393 828 371 q 839 451 839 436 q 837 465 839 461 q 829 473 835 469 q 821 478 824 476 q 813 483 815 483 q 804 482 811 483 q 780 478 797 481 q 738 476 763 476 q 658 471 713 476 q 594 465 603 465 q 527 456 540 464 q 499 449 514 449 q 459 463 479 449 q 428 490 439 476 q 418 508 418 504 q 426 537 418 526 q 447 547 435 547 q 470 535 457 547 q 524 522 483 522 q 652 530 592 522 q 746 545 713 538 q 781 553 779 553 q 801 551 789 553 q 817 549 814 549 q 840 558 824 549 q 857 572 856 567 l 860 590 q 861 629 861 607 q 856 671 861 657 q 844 687 850 685 q 839 690 839 689 q 776 694 839 694 q 595 674 694 694 q 486 654 496 654 z "},"ラ":{"ha":1389,"x_min":321,"x_max":1068,"o":"m 844 549 q 855 574 844 551 q 865 604 865 596 q 851 613 865 613 q 844 611 851 613 q 838 613 843 613 q 669 594 793 613 q 507 561 544 576 q 489 554 492 554 q 453 575 479 554 q 418 601 428 596 q 383 642 383 619 q 389 661 383 651 q 404 671 394 671 q 463 662 415 671 q 529 653 511 653 q 782 672 683 661 q 848 695 824 676 q 915 714 872 714 q 967 710 958 714 l 985 701 q 1010 684 997 697 q 1032 664 1022 671 q 1040 658 1035 661 q 1047 652 1044 654 q 1052 647 1049 650 q 1058 642 1056 644 q 1062 638 1060 640 q 1065 633 1064 635 q 1067 628 1067 631 q 1068 622 1068 625 q 1053 588 1068 608 q 1050 581 1051 586 l 1047 574 q 1031 564 1043 569 q 1011 556 1019 558 l 1001 551 q 980 526 997 551 q 947 476 963 501 l 932 451 q 901 403 921 429 q 867 362 881 378 q 853 343 853 346 q 834 326 851 343 q 783 278 817 308 q 713 225 749 249 l 700 217 q 646 183 674 197 q 581 153 618 168 q 532 133 544 139 q 507 122 531 133 q 463 102 483 111 q 413 85 442 93 q 365 76 385 76 q 332 85 343 76 q 321 107 321 94 q 339 128 321 119 q 383 145 357 138 q 418 157 410 153 q 464 177 424 160 q 547 219 504 194 q 624 276 589 243 q 724 363 719 358 q 780 424 747 386 q 813 469 813 463 l 824 492 q 843 546 838 533 q 844 549 844 547 m 640 801 l 628 801 q 595 794 611 801 q 572 786 579 786 q 518 810 557 786 q 479 865 479 833 q 499 888 479 888 q 549 880 524 888 q 583 872 574 872 q 656 879 607 872 q 747 898 713 889 q 789 911 782 907 l 794 915 l 817 925 q 846 932 831 932 q 884 924 863 932 q 911 915 906 915 q 924 911 917 914 q 944 893 932 908 q 957 856 957 878 l 957 851 q 908 808 957 808 q 870 815 899 808 q 818 821 842 821 q 767 816 811 821 q 681 806 722 811 l 640 801 z "},"リ":{"ha":1389,"x_min":456,"x_max":926,"o":"m 808 954 q 883 917 840 954 q 926 843 926 879 q 914 803 926 819 q 900 763 900 785 q 840 399 900 542 q 751 245 807 317 q 642 132 694 174 q 547 67 589 90 q 485 43 504 43 q 464 63 464 43 q 518 126 464 89 q 560 159 536 139 q 622 217 583 179 q 692 307 660 254 q 739 414 725 360 q 783 778 783 581 q 780 860 783 835 q 776 887 776 886 q 765 894 775 888 q 747 919 747 910 q 765 943 747 932 q 808 954 783 954 m 532 878 q 604 852 569 878 q 639 806 639 826 q 635 775 639 792 q 632 744 632 758 q 633 643 632 739 q 635 540 635 547 q 618 496 635 515 q 586 476 601 476 q 549 497 565 476 q 532 547 532 517 q 533 568 532 550 q 533 613 533 586 q 533 661 533 639 q 504 800 533 788 q 456 840 456 819 q 476 865 456 853 q 532 878 496 878 z "},"ル":{"ha":1389,"x_min":138,"x_max":1251,"o":"m 138 151 q 181 206 138 169 q 344 422 258 272 q 431 653 431 571 q 408 685 431 669 q 386 711 386 700 q 397 739 386 726 q 425 751 407 751 q 523 708 481 751 q 565 631 565 664 q 563 614 565 622 q 557 602 560 606 q 547 592 554 599 q 539 583 540 585 q 504 513 518 561 q 224 150 447 324 q 167 126 194 126 q 138 151 138 126 m 788 375 q 658 342 728 342 q 631 372 646 342 q 615 417 615 403 q 626 440 615 422 q 635 488 635 454 q 642 636 635 564 q 650 715 650 708 q 636 746 650 740 q 590 782 590 764 q 604 816 590 804 q 636 828 618 828 q 740 790 686 828 q 794 726 794 753 q 787 706 794 718 q 775 683 779 694 q 751 494 753 624 q 1157 792 849 532 q 1179 815 1164 797 q 1206 840 1194 832 q 1231 849 1218 849 q 1251 826 1251 849 q 1073 605 1251 774 q 788 375 894 436 z "},"レ":{"ha":1389,"x_min":301,"x_max":1171,"o":"m 356 817 q 453 783 393 817 q 514 721 514 750 q 503 679 514 679 q 483 632 494 679 q 464 510 472 585 q 456 367 456 436 q 740 487 513 367 q 1104 739 967 607 q 1150 764 1131 764 q 1171 746 1171 764 q 989 535 1171 679 q 568 272 807 390 q 486 219 531 254 q 425 200 461 200 q 376 253 414 200 q 338 326 338 306 q 351 388 338 332 q 370 507 360 422 q 381 635 381 592 q 372 699 381 681 q 343 729 364 718 q 301 771 301 753 q 323 801 301 785 q 356 817 344 817 z "},"ロ":{"ha":1389,"x_min":310,"x_max":1042,"o":"m 849 688 q 680 660 807 688 q 550 633 553 633 q 557 489 550 581 q 569 372 564 397 q 836 403 708 372 q 858 600 858 521 q 849 688 858 658 m 392 751 q 481 735 436 751 q 558 719 526 719 q 748 753 594 719 q 901 788 901 788 q 981 757 940 788 q 995 747 982 756 q 1016 732 1008 739 q 1032 715 1024 725 q 1040 696 1040 704 q 1038 671 1040 686 q 1023 637 1035 656 q 993 615 1011 618 q 976 601 983 614 q 960 542 969 588 q 940 408 951 496 q 974 354 974 392 q 956 313 974 326 q 883 300 938 300 q 805 301 872 300 q 710 303 738 303 q 637 299 681 303 q 581 286 593 294 q 557 215 571 238 q 519 192 543 192 q 462 273 478 192 q 435 596 446 354 q 406 642 433 618 q 367 667 379 667 q 328 678 346 667 q 311 708 311 689 q 392 751 311 751 z "}}}
